M48
; DRILL file {KiCad (6.0.2)} date Sat Jan 21 08:28:22 2023
; FORMAT={-:-/ absolute / metric / decimal}
; #@! TF.CreationDate,2023-01-21T08:28:22+01:00
; #@! TF.GenerationSoftware,Kicad,Pcbnew,(6.0.2)
; #@! TF.FileFunction,Plated,1,2,PTH
FMAT,2
METRIC
; #@! TA.AperFunction,Plated,PTH,ComponentDrill
T1C0.800
; #@! TA.AperFunction,Plated,PTH,ComponentDrill
T2C1.000
%
G90
G05
T1
X118.1Y-114.3
X118.1Y-121.92
X120.64Y-114.3
X120.64Y-121.92
X123.18Y-114.3
X123.18Y-121.92
X125.72Y-114.3
X125.72Y-121.92
X128.26Y-114.3
X128.26Y-121.92
X130.8Y-114.3
X130.8Y-121.92
X133.34Y-114.3
X133.34Y-121.92
X135.88Y-114.3
X135.88Y-121.92
X142.24Y-114.3
X142.24Y-124.46
X147.32Y-114.3
X147.32Y-124.46
X152.4Y-114.3
X152.4Y-124.46
X157.48Y-114.3
X157.48Y-124.46
T2
X118.11Y-129.54
X118.11Y-132.08
X118.11Y-134.62
X120.635Y-107.95
X123.175Y-107.95
X124.695Y-156.21
X125.715Y-107.95
X127.235Y-156.21
X128.255Y-107.95
X129.775Y-156.21
X130.795Y-107.95
X132.315Y-156.21
X133.335Y-107.95
X134.62Y-127.0
X134.62Y-129.54
X134.62Y-132.08
X134.62Y-134.62
X134.855Y-156.21
X137.395Y-156.21
X138.415Y-107.95
X139.935Y-156.21
X142.475Y-156.21
X145.015Y-107.95
X147.32Y-147.32
X147.32Y-149.86
X147.555Y-107.95
X147.555Y-156.21
X150.095Y-107.95
X150.095Y-156.21
X152.4Y-147.32
X152.635Y-107.95
X152.635Y-156.21
X155.175Y-107.95
X155.175Y-156.21
X157.715Y-107.95
X157.715Y-156.21
X160.255Y-107.95
X160.255Y-156.21
X162.56Y-114.3
X162.56Y-116.84
X162.56Y-121.92
X162.56Y-124.46
X162.56Y-137.795
X165.1Y-114.3
X165.1Y-116.84
X165.1Y-121.92
X165.1Y-124.46
X165.1Y-137.795
X170.8Y-130.81
X170.815Y-114.3
X170.815Y-128.27
X173.34Y-130.81
X173.355Y-128.27
X175.88Y-130.81
X175.895Y-114.3
X175.895Y-119.38
X175.895Y-128.27
T0
M30
