0
SECTION
2
HEADER
0
ENDSEC
0
SECTION
2
TABLES
0
TABLE
2
LTYPE
0
LTYPE
72
65
70
64
2
CONTINUOUS
3
______
73
0
40
0
0
ENDTAB
0
TABLE
2
LAYER
0
ENDTAB
0
ENDSEC
0
SECTION
2
ENTITIES
0
CIRCLE
8
0
10
30
20
0
40
7.5
0
CIRCLE
8
0
10
30
20
0
40
7.5
0
LINE
8
0
10
00
20
-0.62
11
00
21
0.62
0
LINE
8
0
10
-0.62
20
00
11
0.62
21
00
0
LINE
8
0
10
00
20
-0.62
11
00
21
0.62
0
LINE
8
0
10
-0.62
20
00
11
0.62
21
00
0
LINE
8
layer0
10
20.1254181
20
-4.4564687
11
20.2511088
21
-4.307865
0
LINE
8
layer0
10
20.2511088
20
-4.307865
11
20.3723802
21
-4.1761116
0
LINE
8
layer0
10
20.3723802
20
-4.1761116
11
20.4862032
21
-4.062403
0
LINE
8
layer0
10
20.4862032
20
-4.062403
11
20.5927433
21
-3.9645301
0
LINE
8
layer0
10
20.5927433
20
-3.9645301
11
20.6899799
21
-3.8824553
0
LINE
8
layer0
10
20.6899799
20
-3.8824553
11
20.7769221
21
-3.8150707
0
LINE
8
layer0
10
20.7769221
20
-3.8150707
11
20.8526835
21
-3.7612657
0
LINE
8
layer0
10
20.8526835
20
-3.7612657
11
20.9676105
21
-3.6895934
0
LINE
8
layer0
10
20.9676105
20
-3.6895934
11
21.0045139
21
-3.6697799
0
LINE
8
layer0
10
21.0045139
20
-3.6697799
11
21.1375377
21
-3.6307952
0
LINE
8
layer0
10
21.1375377
20
-3.6307952
11
21.2754325
21
-3.5804283
0
LINE
8
layer0
10
21.2754325
20
-3.5804283
11
21.3935962
21
-3.5256107
0
LINE
8
layer0
10
21.3935962
20
-3.5256107
11
21.4919316
21
-3.4679198
0
LINE
8
layer0
10
21.4919316
20
-3.4679198
11
21.5704364
21
-3.4089019
0
LINE
8
layer0
10
21.5704364
20
-3.4089019
11
21.6022811
21
-3.3793763
0
LINE
8
layer0
10
21.6022811
20
-3.3793763
11
21.6292063
21
-3.3501138
0
LINE
8
layer0
10
21.6292063
20
-3.3501138
11
21.6512455
21
-3.3212821
0
LINE
8
layer0
10
21.6512455
20
-3.3212821
11
21.6684256
21
-3.2930936
0
LINE
8
layer0
10
21.6684256
20
-3.2930936
11
21.6807863
21
-3.2657349
0
LINE
8
layer0
10
21.6807863
20
-3.2657349
11
21.6883767
21
-3.2393899
0
LINE
8
layer0
10
21.6883767
20
-3.2393899
11
21.6912366
21
-3.2142454
0
LINE
8
layer0
10
21.6912366
20
-3.2142454
11
21.6894247
21
-3.1904823
0
LINE
8
layer0
10
21.6894247
20
-3.1904823
11
21.6830059
21
-3.1683002
0
LINE
8
layer0
10
21.6830059
20
-3.1683002
11
21.5725145
21
-2.8614769
0
LINE
8
layer0
10
21.5725145
20
-2.8614769
11
21.535597
21
-2.7502512
0
LINE
8
layer0
10
21.535597
20
-2.7502512
11
21.5000871
21
-2.6385683
0
LINE
8
layer0
10
21.5000871
20
-2.6385683
11
21.4091303
21
-2.3253978
0
LINE
8
layer0
10
21.4091303
20
-2.3253978
11
21.4012849
21
-2.3036792
0
LINE
8
layer0
10
21.4012849
20
-2.3036792
11
21.3887832
21
-2.2833894
0
LINE
8
layer0
10
21.3887832
20
-2.2833894
11
21.3716899
21
-2.2647281
0
LINE
8
layer0
10
21.3716899
20
-2.2647281
11
21.3500639
21
-2.2478761
0
LINE
8
layer0
10
21.3500639
20
-2.2478761
11
21.3239829
21
-2.2330079
0
LINE
8
layer0
10
21.3239829
20
-2.2330079
11
21.2935151
21
-2.2203011
0
LINE
8
layer0
10
21.2935151
20
-2.2203011
11
21.2587382
21
-2.2099301
0
LINE
8
layer0
10
21.2587382
20
-2.2099301
11
21.2197551
21
-2.2020825
0
LINE
8
layer0
10
21.2197551
20
-2.2020825
11
21.1766375
21
-2.1969136
0
LINE
8
layer0
10
21.1766375
20
-2.1969136
11
21.078436
21
-2.1953111
0
LINE
8
layer0
10
21.078436
20
-2.1953111
11
20.9649711
21
-2.2064382
0
LINE
8
layer0
10
20.9649711
20
-2.2064382
11
20.8371537
21
-2.2315448
0
LINE
8
layer0
10
20.8371537
20
-2.2315448
11
20.6959894
21
-2.2718496
0
LINE
8
layer0
10
20.6959894
20
-2.2718496
11
20.5654564
21
-2.3184998
0
LINE
8
layer0
10
20.5654564
20
-2.3184998
11
20.5239548
21
-2.3241616
0
LINE
8
layer0
10
20.5239548
20
-2.3241616
11
20.388849
21
-2.3337299
0
LINE
8
layer0
10
20.388849
20
-2.3337299
11
20.295931
21
-2.3347322
0
LINE
8
layer0
10
20.295931
20
-2.3347322
11
20.1859855
21
-2.3313202
0
LINE
8
layer0
10
20.1859855
20
-2.3313202
11
20.0590771
21
-2.3220745
0
LINE
8
layer0
10
20.0590771
20
-2.3220745
11
19.9153561
21
-2.3055163
0
LINE
8
layer0
10
19.9153561
20
-2.3055163
11
19.7564352
21
-2.2804277
0
LINE
8
layer0
10
19.7564352
20
-2.2804277
11
19.5808818
21
-2.2451185
0
LINE
8
layer0
10
19.5808818
20
-2.2451185
11
19.3918489
21
-2.1987747
0
LINE
8
layer0
10
19.3918489
20
-2.1987747
11
19.211532
21
-2.1467603
0
ARC
8
layer0
10
30.000017
20
0.0000026
40
11
50
186.7459132
51
191.2540859
0
LINE
8
layer0
10
19.0761718
20
-1.2921296
11
19.23159
21
-1.18694
0
LINE
8
layer0
10
19.23159
20
-1.18694
11
19.39705
21
-1.08445
0
LINE
8
layer0
10
19.39705
20
-1.08445
11
19.5531
21
-0.99662
0
LINE
8
layer0
10
19.5531
20
-0.99662
11
19.69649
21
-0.92365
0
LINE
8
layer0
10
19.69649
20
-0.92365
11
19.82806
21
-0.86349
0
LINE
8
layer0
10
19.82806
20
-0.86349
11
19.9459
21
-0.81548
0
LINE
8
layer0
10
19.9459
20
-0.81548
11
20.04941
21
-0.77826
0
LINE
8
layer0
10
20.04941
20
-0.77826
11
20.13809
21
-0.7505
0
LINE
8
layer0
10
20.13809
20
-0.7505
11
20.26954
21
-0.71785
0
LINE
8
layer0
10
20.26954
20
-0.71785
11
20.31076
21
-0.71041
0
LINE
8
layer0
10
20.31076
20
-0.71041
11
20.44932
21
-0.71444
0
LINE
8
layer0
10
20.44932
20
-0.71444
11
20.59603
21
-0.70915
0
LINE
8
layer0
10
20.59603
20
-0.70915
11
20.72535
21
-0.69353
0
LINE
8
layer0
10
20.72535
20
-0.69353
11
20.8367
21
-0.66905
0
LINE
8
layer0
10
20.8367
20
-0.66905
11
20.9296
21
-0.63718
0
LINE
8
layer0
10
20.9296
20
-0.63718
11
20.96901
21
-0.61894
0
LINE
8
layer0
10
20.96901
20
-0.61894
11
21.00366
21
-0.59943
0
LINE
8
layer0
10
21.00366
20
-0.59943
11
21.03353
21
-0.57882
0
LINE
8
layer0
10
21.03353
20
-0.57882
11
21.05858
21
-0.55732
0
LINE
8
layer0
10
21.05858
20
-0.55732
11
21.07879
21
-0.53512
0
LINE
8
layer0
10
21.07879
20
-0.53512
11
21.09415
21
-0.51241
0
LINE
8
layer0
10
21.09415
20
-0.51241
11
21.10464
21
-0.48938
0
LINE
8
layer0
10
21.10464
20
-0.48938
11
21.11026
21
-0.46622
0
LINE
8
layer0
10
21.11026
20
-0.46622
11
21.11101
21
-0.44314
0
LINE
8
layer0
10
21.11101
20
-0.44314
11
21.10074
21
-0.11719
0
LINE
8
layer0
10
21.10074
20
-0.11719
11
21.1
21
0
0
LINE
8
layer0
10
21.1
20
0
11
21.10074
21
0.11719
0
LINE
8
layer0
10
21.10074
20
0.11719
11
21.11101
21
0.44314
0
LINE
8
layer0
10
21.11101
20
0.44314
11
21.11026
21
0.46622
0
LINE
8
layer0
10
21.11026
20
0.46622
11
21.10464
21
0.48938
0
LINE
8
layer0
10
21.10464
20
0.48938
11
21.09415
21
0.51241
0
LINE
8
layer0
10
21.09415
20
0.51241
11
21.07879
21
0.53512
0
LINE
8
layer0
10
21.07879
20
0.53512
11
21.05858
21
0.55732
0
LINE
8
layer0
10
21.05858
20
0.55732
11
21.03353
21
0.57882
0
LINE
8
layer0
10
21.03353
20
0.57882
11
21.00366
21
0.59943
0
LINE
8
layer0
10
21.00366
20
0.59943
11
20.96901
21
0.61894
0
LINE
8
layer0
10
20.96901
20
0.61894
11
20.9296
21
0.63718
0
LINE
8
layer0
10
20.9296
20
0.63718
11
20.8367
21
0.66905
0
LINE
8
layer0
10
20.8367
20
0.66905
11
20.72535
21
0.69353
0
LINE
8
layer0
10
20.72535
20
0.69353
11
20.59603
21
0.70915
0
LINE
8
layer0
10
20.59603
20
0.70915
11
20.44932
21
0.71444
0
LINE
8
layer0
10
20.44932
20
0.71444
11
20.31076
21
0.71041
0
LINE
8
layer0
10
20.31076
20
0.71041
11
20.26954
21
0.71785
0
LINE
8
layer0
10
20.26954
20
0.71785
11
20.13809
21
0.7505
0
LINE
8
layer0
10
20.13809
20
0.7505
11
20.04941
21
0.77826
0
LINE
8
layer0
10
20.04941
20
0.77826
11
19.9459
21
0.81548
0
LINE
8
layer0
10
19.9459
20
0.81548
11
19.82806
21
0.86349
0
LINE
8
layer0
10
19.82806
20
0.86349
11
19.69649
21
0.92365
0
LINE
8
layer0
10
19.69649
20
0.92365
11
19.5531
21
0.99662
0
LINE
8
layer0
10
19.5531
20
0.99662
11
19.39705
21
1.08445
0
LINE
8
layer0
10
19.39705
20
1.08445
11
19.23159
21
1.18694
0
LINE
8
layer0
10
19.23159
20
1.18694
11
19.0761718
21
1.2921296
0
ARC
8
layer0
10
30.000017
20
-0.0000026
40
11
50
168.7459141
51
173.2540868
0
LINE
8
layer0
10
19.211532
20
2.1467603
11
19.3918489
21
2.1987747
0
LINE
8
layer0
10
19.3918489
20
2.1987747
11
19.5808818
21
2.2451185
0
LINE
8
layer0
10
19.5808818
20
2.2451185
11
19.7564352
21
2.2804277
0
LINE
8
layer0
10
19.7564352
20
2.2804277
11
19.9153561
21
2.3055163
0
LINE
8
layer0
10
19.9153561
20
2.3055163
11
20.0590771
21
2.3220745
0
LINE
8
layer0
10
20.0590771
20
2.3220745
11
20.1859855
21
2.3313202
0
LINE
8
layer0
10
20.1859855
20
2.3313202
11
20.295931
21
2.3347322
0
LINE
8
layer0
10
20.295931
20
2.3347322
11
20.388849
21
2.3337299
0
LINE
8
layer0
10
20.388849
20
2.3337299
11
20.5239548
21
2.3241616
0
LINE
8
layer0
10
20.5239548
20
2.3241616
11
20.5654564
21
2.3184998
0
LINE
8
layer0
10
20.5654564
20
2.3184998
11
20.6959894
21
2.2718496
0
LINE
8
layer0
10
20.6959894
20
2.2718496
11
20.8371537
21
2.2315448
0
LINE
8
layer0
10
20.8371537
20
2.2315448
11
20.9649711
21
2.2064382
0
LINE
8
layer0
10
20.9649711
20
2.2064382
11
21.078436
21
2.1953111
0
LINE
8
layer0
10
21.078436
20
2.1953111
11
21.1766375
21
2.1969136
0
LINE
8
layer0
10
21.1766375
20
2.1969136
11
21.2197551
21
2.2020825
0
LINE
8
layer0
10
21.2197551
20
2.2020825
11
21.2587382
21
2.2099301
0
LINE
8
layer0
10
21.2587382
20
2.2099301
11
21.2935151
21
2.2203011
0
LINE
8
layer0
10
21.2935151
20
2.2203011
11
21.3239829
21
2.2330079
0
LINE
8
layer0
10
21.3239829
20
2.2330079
11
21.3500639
21
2.2478761
0
LINE
8
layer0
10
21.3500639
20
2.2478761
11
21.3716899
21
2.2647281
0
LINE
8
layer0
10
21.3716899
20
2.2647281
11
21.3887832
21
2.2833894
0
LINE
8
layer0
10
21.3887832
20
2.2833894
11
21.4012849
21
2.3036792
0
LINE
8
layer0
10
21.4012849
20
2.3036792
11
21.4091303
21
2.3253978
0
LINE
8
layer0
10
21.4091303
20
2.3253978
11
21.5000871
21
2.6385683
0
LINE
8
layer0
10
21.5000871
20
2.6385683
11
21.535597
21
2.7502512
0
LINE
8
layer0
10
21.535597
20
2.7502512
11
21.5725145
21
2.8614769
0
LINE
8
layer0
10
21.5725145
20
2.8614769
11
21.6830059
21
3.1683002
0
LINE
8
layer0
10
21.6830059
20
3.1683002
11
21.6894247
21
3.1904823
0
LINE
8
layer0
10
21.6894247
20
3.1904823
11
21.6912366
21
3.2142454
0
LINE
8
layer0
10
21.6912366
20
3.2142454
11
21.6883767
21
3.2393899
0
LINE
8
layer0
10
21.6883767
20
3.2393899
11
21.6807863
21
3.2657349
0
LINE
8
layer0
10
21.6807863
20
3.2657349
11
21.6684256
21
3.2930936
0
LINE
8
layer0
10
21.6684256
20
3.2930936
11
21.6512455
21
3.3212821
0
LINE
8
layer0
10
21.6512455
20
3.3212821
11
21.6292063
21
3.3501138
0
LINE
8
layer0
10
21.6292063
20
3.3501138
11
21.6022811
21
3.3793763
0
LINE
8
layer0
10
21.6022811
20
3.3793763
11
21.5704364
21
3.4089019
0
LINE
8
layer0
10
21.5704364
20
3.4089019
11
21.4919316
21
3.4679198
0
LINE
8
layer0
10
21.4919316
20
3.4679198
11
21.3935962
21
3.5256107
0
LINE
8
layer0
10
21.3935962
20
3.5256107
11
21.2754325
21
3.5804283
0
LINE
8
layer0
10
21.2754325
20
3.5804283
11
21.1375377
21
3.6307952
0
LINE
8
layer0
10
21.1375377
20
3.6307952
11
21.0045139
21
3.6697799
0
LINE
8
layer0
10
21.0045139
20
3.6697799
11
20.9676105
21
3.6895934
0
LINE
8
layer0
10
20.9676105
20
3.6895934
11
20.8526835
21
3.7612657
0
LINE
8
layer0
10
20.8526835
20
3.7612657
11
20.7769221
21
3.8150707
0
LINE
8
layer0
10
20.7769221
20
3.8150707
11
20.6899799
21
3.8824553
0
LINE
8
layer0
10
20.6899799
20
3.8824553
11
20.5927433
21
3.9645301
0
LINE
8
layer0
10
20.5927433
20
3.9645301
11
20.4862032
21
4.062403
0
LINE
8
layer0
10
20.4862032
20
4.062403
11
20.3723802
21
4.1761116
0
LINE
8
layer0
10
20.3723802
20
4.1761116
11
20.2511088
21
4.307865
0
LINE
8
layer0
10
20.2511088
20
4.307865
11
20.1254181
21
4.4564687
0
LINE
8
layer0
10
20.1254181
20
4.4564687
11
20.010112
21
4.6045368
0
ARC
8
layer0
10
30.0000154
20
-0.0000076
40
11
50
150.7459149
51
155.2540876
0
LINE
8
layer0
10
20.4029426
20
5.3755103
11
20.5905075
21
5.369258
0
LINE
8
layer0
10
20.5905075
20
5.369258
11
20.7846095
21
5.3549192
0
LINE
8
layer0
10
20.7846095
20
5.3549192
11
20.9624818
21
5.3342512
0
LINE
8
layer0
10
20.9624818
20
5.3342512
11
21.1213775
21
5.3090027
0
LINE
8
layer0
10
21.1213775
20
5.3090027
11
21.263181
21
5.2803382
0
LINE
8
layer0
10
21.263181
20
5.2803382
11
21.3867351
21
5.2499145
0
LINE
8
layer0
10
21.3867351
20
5.2499145
11
21.4923538
21
5.2191845
0
LINE
8
layer0
10
21.4923538
20
5.2191845
11
21.5804144
21
5.189518
0
LINE
8
layer0
10
21.5804144
20
5.189518
11
21.7059509
21
5.138668
0
LINE
8
layer0
10
21.7059509
20
5.138668
11
21.7436717
21
5.1204586
0
LINE
8
layer0
10
21.7436717
20
5.1204586
11
21.8534003
21
5.0357548
0
LINE
8
layer0
10
21.8534003
20
5.0357548
11
21.9752005
21
4.9538005
0
LINE
8
layer0
10
21.9752005
20
4.9538005
11
22.0890038
21
4.8904249
0
LINE
8
layer0
10
22.0890038
20
4.8904249
11
22.1934769
21
4.8447798
0
LINE
8
layer0
10
22.1934769
20
4.8447798
11
22.2873672
21
4.8159579
0
LINE
8
layer0
10
22.2873672
20
4.8159579
11
22.3299718
21
4.8075498
0
LINE
8
layer0
10
22.3299718
20
4.8075498
11
22.3694719
21
4.8029669
0
LINE
8
layer0
10
22.3694719
20
4.8029669
11
22.4057515
21
4.8020836
0
LINE
8
layer0
10
22.4057515
20
4.8020836
11
22.4386548
21
4.8047535
0
LINE
8
layer0
10
22.4386548
20
4.8047535
11
22.4680539
21
4.8108345
0
LINE
8
layer0
10
22.4680539
20
4.8108345
11
22.493829
21
4.8201789
0
LINE
8
layer0
10
22.493829
20
4.8201789
11
22.5158522
21
4.8326447
0
LINE
8
layer0
10
22.5158522
20
4.8326447
11
22.534012
21
4.8480782
0
LINE
8
layer0
10
22.534012
20
4.8480782
11
22.5481849
21
4.8663094
0
LINE
8
layer0
10
22.5481849
20
4.8663094
11
22.7314649
21
5.1360451
0
LINE
8
layer0
10
22.7314649
20
5.1360451
11
22.7997488
21
5.2312887
0
LINE
8
layer0
10
22.7997488
20
5.2312887
11
22.86923
21
5.3256625
0
LINE
8
layer0
10
22.86923
20
5.3256625
11
23.0691272
21
5.583325
0
LINE
8
layer0
10
23.0691272
20
5.583325
11
23.0820865
21
5.602438
0
LINE
8
layer0
10
23.0820865
20
5.602438
11
23.0911529
21
5.6244782
0
LINE
8
layer0
10
23.0911529
20
5.6244782
11
23.096203
21
5.6492757
0
LINE
8
layer0
10
23.096203
20
5.6492757
11
23.0971251
21
5.6766768
0
LINE
8
layer0
10
23.0971251
20
5.6766768
11
23.0938237
21
5.7065162
0
LINE
8
layer0
10
23.0938237
20
5.7065162
11
23.0861953
21
5.738634
0
LINE
8
layer0
10
23.0861953
20
5.738634
11
23.0741442
21
5.772865
0
LINE
8
layer0
10
23.0741442
20
5.772865
11
23.0575794
21
5.8090157
0
LINE
8
layer0
10
23.0575794
20
5.8090157
11
23.0364173
21
5.8469368
0
LINE
8
layer0
10
23.0364173
20
5.8469368
11
22.9799923
21
5.9273254
0
LINE
8
layer0
10
22.9799923
20
5.9273254
11
22.9042972
21
6.01258
0
LINE
8
layer0
10
22.9042972
20
6.01258
11
22.8088564
21
6.1012293
0
LINE
8
layer0
10
22.8088564
20
6.1012293
11
22.6932749
21
6.191743
0
LINE
8
layer0
10
22.6932749
20
6.191743
11
22.5788087
21
6.2699261
0
LINE
8
layer0
10
22.5788087
20
6.2699261
11
22.5498341
21
6.3001737
0
LINE
8
layer0
10
22.5498341
20
6.3001737
11
22.46268
21
6.4038525
0
LINE
8
layer0
10
22.46268
20
6.4038525
11
22.4072533
21
6.4784356
0
LINE
8
layer0
10
22.4072533
20
6.4784356
11
22.3453894
21
6.5693889
0
LINE
8
layer0
10
22.3453894
20
6.5693889
11
22.2782744
21
6.6774944
0
LINE
8
layer0
10
22.2782744
20
6.6774944
11
22.2071932
21
6.8034998
0
LINE
8
layer0
10
22.2071932
20
6.8034998
11
22.1340789
21
6.9468163
0
LINE
8
layer0
10
22.1340789
20
6.9468163
11
22.059457
21
7.1095961
0
LINE
8
layer0
10
22.059457
20
7.1095961
11
21.9858391
21
7.2897672
0
LINE
8
layer0
10
21.9858391
20
7.2897672
11
21.9219321
21
7.4662199
0
ARC
8
layer0
10
30.0000122
20
-0.0000122
40
11
50
132.7459138
51
137.2540862
0
LINE
8
layer0
10
22.5337801
20
8.0780679
11
22.7102328
21
8.0141609
0
LINE
8
layer0
10
22.7102328
20
8.0141609
11
22.8904039
21
7.940543
0
LINE
8
layer0
10
22.8904039
20
7.940543
11
23.0531837
21
7.8659211
0
LINE
8
layer0
10
23.0531837
20
7.8659211
11
23.1965002
21
7.7928068
0
LINE
8
layer0
10
23.1965002
20
7.7928068
11
23.3225056
21
7.7217256
0
LINE
8
layer0
10
23.3225056
20
7.7217256
11
23.4306111
21
7.6546106
0
LINE
8
layer0
10
23.4306111
20
7.6546106
11
23.5215644
21
7.5927467
0
LINE
8
layer0
10
23.5215644
20
7.5927467
11
23.5961475
21
7.53732
0
LINE
8
layer0
10
23.5961475
20
7.53732
11
23.6998263
21
7.4501659
0
LINE
8
layer0
10
23.6998263
20
7.4501659
11
23.7300739
21
7.4211913
0
LINE
8
layer0
10
23.7300739
20
7.4211913
11
23.808257
21
7.3067251
0
LINE
8
layer0
10
23.808257
20
7.3067251
11
23.8987707
21
7.1911436
0
LINE
8
layer0
10
23.8987707
20
7.1911436
11
23.98742
21
7.0957028
0
LINE
8
layer0
10
23.98742
20
7.0957028
11
24.0726746
21
7.0200077
0
LINE
8
layer0
10
24.0726746
20
7.0200077
11
24.1530632
21
6.9635827
0
LINE
8
layer0
10
24.1530632
20
6.9635827
11
24.1909843
21
6.9424206
0
LINE
8
layer0
10
24.1909843
20
6.9424206
11
24.227135
21
6.9258558
0
LINE
8
layer0
10
24.227135
20
6.9258558
11
24.261366
21
6.9138047
0
LINE
8
layer0
10
24.261366
20
6.9138047
11
24.2934838
21
6.9061763
0
LINE
8
layer0
10
24.2934838
20
6.9061763
11
24.3233232
21
6.9028749
0
LINE
8
layer0
10
24.3233232
20
6.9028749
11
24.3507243
21
6.903797
0
LINE
8
layer0
10
24.3507243
20
6.903797
11
24.3755218
21
6.9088471
0
LINE
8
layer0
10
24.3755218
20
6.9088471
11
24.397562
21
6.9179135
0
LINE
8
layer0
10
24.397562
20
6.9179135
11
24.416675
21
6.9308728
0
LINE
8
layer0
10
24.416675
20
6.9308728
11
24.6743375
21
7.13077
0
LINE
8
layer0
10
24.6743375
20
7.13077
11
24.7687113
21
7.2002512
0
LINE
8
layer0
10
24.7687113
20
7.2002512
11
24.8639549
21
7.2685351
0
LINE
8
layer0
10
24.8639549
20
7.2685351
11
25.1336906
21
7.4518151
0
LINE
8
layer0
10
25.1336906
20
7.4518151
11
25.1519218
21
7.465988
0
LINE
8
layer0
10
25.1519218
20
7.465988
11
25.1673553
21
7.4841478
0
LINE
8
layer0
10
25.1673553
20
7.4841478
11
25.1798211
21
7.506171
0
LINE
8
layer0
10
25.1798211
20
7.506171
11
25.1891655
21
7.5319461
0
LINE
8
layer0
10
25.1891655
20
7.5319461
11
25.1952465
21
7.5613452
0
LINE
8
layer0
10
25.1952465
20
7.5613452
11
25.1979164
21
7.5942485
0
LINE
8
layer0
10
25.1979164
20
7.5942485
11
25.1970331
21
7.6305281
0
LINE
8
layer0
10
25.1970331
20
7.6305281
11
25.1924502
21
7.6700282
0
LINE
8
layer0
10
25.1924502
20
7.6700282
11
25.1840421
21
7.7126328
0
LINE
8
layer0
10
25.1840421
20
7.7126328
11
25.1552202
21
7.8065231
0
LINE
8
layer0
10
25.1552202
20
7.8065231
11
25.1095751
21
7.9109962
0
LINE
8
layer0
10
25.1095751
20
7.9109962
11
25.0461995
21
8.0247995
0
LINE
8
layer0
10
25.0461995
20
8.0247995
11
24.9642452
21
8.1465997
0
LINE
8
layer0
10
24.9642452
20
8.1465997
11
24.8795414
21
8.2563283
0
LINE
8
layer0
10
24.8795414
20
8.2563283
11
24.861332
21
8.2940491
0
LINE
8
layer0
10
24.861332
20
8.2940491
11
24.810482
21
8.4195856
0
LINE
8
layer0
10
24.810482
20
8.4195856
11
24.7808155
21
8.5076462
0
LINE
8
layer0
10
24.7808155
20
8.5076462
11
24.7500855
21
8.6132649
0
LINE
8
layer0
10
24.7500855
20
8.6132649
11
24.7196618
21
8.736819
0
LINE
8
layer0
10
24.7196618
20
8.736819
11
24.6909973
21
8.8786225
0
LINE
8
layer0
10
24.6909973
20
8.8786225
11
24.6657488
21
9.0375182
0
LINE
8
layer0
10
24.6657488
20
9.0375182
11
24.6450808
21
9.2153905
0
LINE
8
layer0
10
24.6450808
20
9.2153905
11
24.630742
21
9.4094925
0
LINE
8
layer0
10
24.630742
20
9.4094925
11
24.6244897
21
9.5970574
0
ARC
8
layer0
10
30.0000077
20
-0.0000154
40
11
50
114.7459128
51
119.2540855
0
LINE
8
layer0
10
25.3954632
20
9.989888
11
25.5435313
21
9.8745819
0
LINE
8
layer0
10
25.5435313
20
9.8745819
11
25.692135
21
9.7488912
0
LINE
8
layer0
10
25.692135
20
9.7488912
11
25.8238884
21
9.6276198
0
LINE
8
layer0
10
25.8238884
20
9.6276198
11
25.937597
21
9.5137968
0
LINE
8
layer0
10
25.937597
20
9.5137968
11
26.0354699
21
9.4072567
0
LINE
8
layer0
10
26.0354699
20
9.4072567
11
26.1175447
21
9.3100201
0
LINE
8
layer0
10
26.1175447
20
9.3100201
11
26.1849293
21
9.2230779
0
LINE
8
layer0
10
26.1849293
20
9.2230779
11
26.2387343
21
9.1473165
0
LINE
8
layer0
10
26.2387343
20
9.1473165
11
26.3104066
21
9.0323895
0
LINE
8
layer0
10
26.3104066
20
9.0323895
11
26.3302201
21
8.9954861
0
LINE
8
layer0
10
26.3302201
20
8.9954861
11
26.3692048
21
8.8624623
0
LINE
8
layer0
10
26.3692048
20
8.8624623
11
26.4195717
21
8.7245675
0
LINE
8
layer0
10
26.4195717
20
8.7245675
11
26.4743893
21
8.6064038
0
LINE
8
layer0
10
26.4743893
20
8.6064038
11
26.5320802
21
8.5080684
0
LINE
8
layer0
10
26.5320802
20
8.5080684
11
26.5910981
21
8.4295636
0
LINE
8
layer0
10
26.5910981
20
8.4295636
11
26.6206237
21
8.3977189
0
LINE
8
layer0
10
26.6206237
20
8.3977189
11
26.6498862
21
8.3707937
0
LINE
8
layer0
10
26.6498862
20
8.3707937
11
26.6787179
21
8.3487545
0
LINE
8
layer0
10
26.6787179
20
8.3487545
11
26.7069064
21
8.3315744
0
LINE
8
layer0
10
26.7069064
20
8.3315744
11
26.7342651
21
8.3192137
0
LINE
8
layer0
10
26.7342651
20
8.3192137
11
26.7606101
21
8.3116233
0
LINE
8
layer0
10
26.7606101
20
8.3116233
11
26.7857546
21
8.3087634
0
LINE
8
layer0
10
26.7857546
20
8.3087634
11
26.8095177
21
8.3105753
0
LINE
8
layer0
10
26.8095177
20
8.3105753
11
26.8316998
21
8.3169941
0
LINE
8
layer0
10
26.8316998
20
8.3169941
11
27.1385231
21
8.4274855
0
LINE
8
layer0
10
27.1385231
20
8.4274855
11
27.2497488
21
8.464403
0
LINE
8
layer0
10
27.2497488
20
8.464403
11
27.3614317
21
8.4999129
0
LINE
8
layer0
10
27.3614317
20
8.4999129
11
27.6746022
21
8.5908697
0
LINE
8
layer0
10
27.6746022
20
8.5908697
11
27.6963208
21
8.5987151
0
LINE
8
layer0
10
27.6963208
20
8.5987151
11
27.7166106
21
8.6112168
0
LINE
8
layer0
10
27.7166106
20
8.6112168
11
27.7352719
21
8.6283101
0
LINE
8
layer0
10
27.7352719
20
8.6283101
11
27.7521239
21
8.6499361
0
LINE
8
layer0
10
27.7521239
20
8.6499361
11
27.7669921
21
8.6760171
0
LINE
8
layer0
10
27.7669921
20
8.6760171
11
27.7796989
21
8.7064849
0
LINE
8
layer0
10
27.7796989
20
8.7064849
11
27.7900699
21
8.7412618
0
LINE
8
layer0
10
27.7900699
20
8.7412618
11
27.7979175
21
8.7802449
0
LINE
8
layer0
10
27.7979175
20
8.7802449
11
27.8030864
21
8.8233625
0
LINE
8
layer0
10
27.8030864
20
8.8233625
11
27.8046889
21
8.921564
0
LINE
8
layer0
10
27.8046889
20
8.921564
11
27.7935618
21
9.0350289
0
LINE
8
layer0
10
27.7935618
20
9.0350289
11
27.7684552
21
9.1628463
0
LINE
8
layer0
10
27.7684552
20
9.1628463
11
27.7281504
21
9.3040106
0
LINE
8
layer0
10
27.7281504
20
9.3040106
11
27.6815002
21
9.4345436
0
LINE
8
layer0
10
27.6815002
20
9.4345436
11
27.6758384
21
9.4760452
0
LINE
8
layer0
10
27.6758384
20
9.4760452
11
27.6662701
21
9.611151
0
LINE
8
layer0
10
27.6662701
20
9.611151
11
27.6652678
21
9.704069
0
LINE
8
layer0
10
27.6652678
20
9.704069
11
27.6686798
21
9.8140145
0
LINE
8
layer0
10
27.6686798
20
9.8140145
11
27.6779255
21
9.9409229
0
LINE
8
layer0
10
27.6779255
20
9.9409229
11
27.6944837
21
10.0846439
0
LINE
8
layer0
10
27.6944837
20
10.0846439
11
27.7195723
21
10.2435648
0
LINE
8
layer0
10
27.7195723
20
10.2435648
11
27.7548815
21
10.4191182
0
LINE
8
layer0
10
27.7548815
20
10.4191182
11
27.8012253
21
10.6081511
0
LINE
8
layer0
10
27.8012253
20
10.6081511
11
27.8532397
21
10.788468
0
ARC
8
layer0
10
30.0000026
20
-0.000017
40
11
50
96.7459132
51
101.2540859
0
LINE
8
layer0
10
28.7078704
20
10.9238282
11
28.81306
21
10.76841
0
LINE
8
layer0
10
28.81306
20
10.76841
11
28.91555
21
10.60295
0
LINE
8
layer0
10
28.91555
20
10.60295
11
29.00338
21
10.4469
0
LINE
8
layer0
10
29.00338
20
10.4469
11
29.07635
21
10.30351
0
LINE
8
layer0
10
29.07635
20
10.30351
11
29.13651
21
10.17194
0
LINE
8
layer0
10
29.13651
20
10.17194
11
29.18452
21
10.0541
0
LINE
8
layer0
10
29.18452
20
10.0541
11
29.22174
21
9.95059
0
LINE
8
layer0
10
29.22174
20
9.95059
11
29.2495
21
9.86191
0
LINE
8
layer0
10
29.2495
20
9.86191
11
29.28215
21
9.73046
0
LINE
8
layer0
10
29.28215
20
9.73046
11
29.28959
21
9.68924
0
LINE
8
layer0
10
29.28959
20
9.68924
11
29.28556
21
9.55068
0
LINE
8
layer0
10
29.28556
20
9.55068
11
29.29085
21
9.40397
0
LINE
8
layer0
10
29.29085
20
9.40397
11
29.30647
21
9.27465
0
LINE
8
layer0
10
29.30647
20
9.27465
11
29.33095
21
9.1633
0
LINE
8
layer0
10
29.33095
20
9.1633
11
29.36282
21
9.0704
0
LINE
8
layer0
10
29.36282
20
9.0704
11
29.38106
21
9.03099
0
LINE
8
layer0
10
29.38106
20
9.03099
11
29.40057
21
8.99634
0
LINE
8
layer0
10
29.40057
20
8.99634
11
29.42118
21
8.96647
0
LINE
8
layer0
10
29.42118
20
8.96647
11
29.44268
21
8.94142
0
LINE
8
layer0
10
29.44268
20
8.94142
11
29.46488
21
8.92121
0
LINE
8
layer0
10
29.46488
20
8.92121
11
29.48759
21
8.90585
0
LINE
8
layer0
10
29.48759
20
8.90585
11
29.51062
21
8.89536
0
LINE
8
layer0
10
29.51062
20
8.89536
11
29.53378
21
8.88974
0
LINE
8
layer0
10
29.53378
20
8.88974
11
29.55686
21
8.88899
0
LINE
8
layer0
10
29.55686
20
8.88899
11
29.88281
21
8.89926
0
LINE
8
layer0
10
29.88281
20
8.89926
11
30
21
8.9
0
LINE
8
layer0
10
30
20
8.9
11
30.11719
21
8.89926
0
LINE
8
layer0
10
30.11719
20
8.89926
11
30.44314
21
8.88899
0
LINE
8
layer0
10
30.44314
20
8.88899
11
30.46622
21
8.88974
0
LINE
8
layer0
10
30.46622
20
8.88974
11
30.48938
21
8.89536
0
LINE
8
layer0
10
30.48938
20
8.89536
11
30.51241
21
8.90585
0
LINE
8
layer0
10
30.51241
20
8.90585
11
30.53512
21
8.92121
0
LINE
8
layer0
10
30.53512
20
8.92121
11
30.55732
21
8.94142
0
LINE
8
layer0
10
30.55732
20
8.94142
11
30.57882
21
8.96647
0
LINE
8
layer0
10
30.57882
20
8.96647
11
30.59943
21
8.99634
0
LINE
8
layer0
10
30.59943
20
8.99634
11
30.61894
21
9.03099
0
LINE
8
layer0
10
30.61894
20
9.03099
11
30.63718
21
9.0704
0
LINE
8
layer0
10
30.63718
20
9.0704
11
30.66905
21
9.1633
0
LINE
8
layer0
10
30.66905
20
9.1633
11
30.69353
21
9.27465
0
LINE
8
layer0
10
30.69353
20
9.27465
11
30.70915
21
9.40397
0
LINE
8
layer0
10
30.70915
20
9.40397
11
30.71444
21
9.55068
0
LINE
8
layer0
10
30.71444
20
9.55068
11
30.71041
21
9.68924
0
LINE
8
layer0
10
30.71041
20
9.68924
11
30.71785
21
9.73046
0
LINE
8
layer0
10
30.71785
20
9.73046
11
30.7505
21
9.86191
0
LINE
8
layer0
10
30.7505
20
9.86191
11
30.77826
21
9.95059
0
LINE
8
layer0
10
30.77826
20
9.95059
11
30.81548
21
10.0541
0
LINE
8
layer0
10
30.81548
20
10.0541
11
30.86349
21
10.17194
0
LINE
8
layer0
10
30.86349
20
10.17194
11
30.92365
21
10.30351
0
LINE
8
layer0
10
30.92365
20
10.30351
11
30.99662
21
10.4469
0
LINE
8
layer0
10
30.99662
20
10.4469
11
31.08445
21
10.60295
0
LINE
8
layer0
10
31.08445
20
10.60295
11
31.18694
21
10.76841
0
LINE
8
layer0
10
31.18694
20
10.76841
11
31.2921296
21
10.9238282
0
ARC
8
layer0
10
29.9999974
20
-0.000017
40
11
50
78.7459141
51
83.2540868
0
LINE
8
layer0
10
32.1467603
20
10.788468
11
32.1987747
21
10.6081511
0
LINE
8
layer0
10
32.1987747
20
10.6081511
11
32.2451185
21
10.4191182
0
LINE
8
layer0
10
32.2451185
20
10.4191182
11
32.2804277
21
10.2435648
0
LINE
8
layer0
10
32.2804277
20
10.2435648
11
32.3055163
21
10.0846439
0
LINE
8
layer0
10
32.3055163
20
10.0846439
11
32.3220745
21
9.9409229
0
LINE
8
layer0
10
32.3220745
20
9.9409229
11
32.3313202
21
9.8140145
0
LINE
8
layer0
10
32.3313202
20
9.8140145
11
32.3347322
21
9.704069
0
LINE
8
layer0
10
32.3347322
20
9.704069
11
32.3337299
21
9.611151
0
LINE
8
layer0
10
32.3337299
20
9.611151
11
32.3241616
21
9.4760452
0
LINE
8
layer0
10
32.3241616
20
9.4760452
11
32.3184998
21
9.4345436
0
LINE
8
layer0
10
32.3184998
20
9.4345436
11
32.2718496
21
9.3040106
0
LINE
8
layer0
10
32.2718496
20
9.3040106
11
32.2315448
21
9.1628463
0
LINE
8
layer0
10
32.2315448
20
9.1628463
11
32.2064382
21
9.0350289
0
LINE
8
layer0
10
32.2064382
20
9.0350289
11
32.1953111
21
8.921564
0
LINE
8
layer0
10
32.1953111
20
8.921564
11
32.1969136
21
8.8233625
0
LINE
8
layer0
10
32.1969136
20
8.8233625
11
32.2020825
21
8.7802449
0
LINE
8
layer0
10
32.2020825
20
8.7802449
11
32.2099301
21
8.7412618
0
LINE
8
layer0
10
32.2099301
20
8.7412618
11
32.2203011
21
8.7064849
0
LINE
8
layer0
10
32.2203011
20
8.7064849
11
32.2330079
21
8.6760171
0
LINE
8
layer0
10
32.2330079
20
8.6760171
11
32.2478761
21
8.6499361
0
LINE
8
layer0
10
32.2478761
20
8.6499361
11
32.2647281
21
8.6283101
0
LINE
8
layer0
10
32.2647281
20
8.6283101
11
32.2833894
21
8.6112168
0
LINE
8
layer0
10
32.2833894
20
8.6112168
11
32.3036792
21
8.5987151
0
LINE
8
layer0
10
32.3036792
20
8.5987151
11
32.3253978
21
8.5908697
0
LINE
8
layer0
10
32.3253978
20
8.5908697
11
32.6385683
21
8.4999129
0
LINE
8
layer0
10
32.6385683
20
8.4999129
11
32.7502512
21
8.464403
0
LINE
8
layer0
10
32.7502512
20
8.464403
11
32.8614769
21
8.4274855
0
LINE
8
layer0
10
32.8614769
20
8.4274855
11
33.1683002
21
8.3169941
0
LINE
8
layer0
10
33.1683002
20
8.3169941
11
33.1904823
21
8.3105753
0
LINE
8
layer0
10
33.1904823
20
8.3105753
11
33.2142454
21
8.3087634
0
LINE
8
layer0
10
33.2142454
20
8.3087634
11
33.2393899
21
8.3116233
0
LINE
8
layer0
10
33.2393899
20
8.3116233
11
33.2657349
21
8.3192137
0
LINE
8
layer0
10
33.2657349
20
8.3192137
11
33.2930936
21
8.3315744
0
LINE
8
layer0
10
33.2930936
20
8.3315744
11
33.3212821
21
8.3487545
0
LINE
8
layer0
10
33.3212821
20
8.3487545
11
33.3501138
21
8.3707937
0
LINE
8
layer0
10
33.3501138
20
8.3707937
11
33.3793763
21
8.3977189
0
LINE
8
layer0
10
33.3793763
20
8.3977189
11
33.4089019
21
8.4295636
0
LINE
8
layer0
10
33.4089019
20
8.4295636
11
33.4679198
21
8.5080684
0
LINE
8
layer0
10
33.4679198
20
8.5080684
11
33.5256107
21
8.6064038
0
LINE
8
layer0
10
33.5256107
20
8.6064038
11
33.5804283
21
8.7245675
0
LINE
8
layer0
10
33.5804283
20
8.7245675
11
33.6307952
21
8.8624623
0
LINE
8
layer0
10
33.6307952
20
8.8624623
11
33.6697799
21
8.9954861
0
LINE
8
layer0
10
33.6697799
20
8.9954861
11
33.6895934
21
9.0323895
0
LINE
8
layer0
10
33.6895934
20
9.0323895
11
33.7612657
21
9.1473165
0
LINE
8
layer0
10
33.7612657
20
9.1473165
11
33.8150707
21
9.2230779
0
LINE
8
layer0
10
33.8150707
20
9.2230779
11
33.8824553
21
9.3100201
0
LINE
8
layer0
10
33.8824553
20
9.3100201
11
33.9645301
21
9.4072567
0
LINE
8
layer0
10
33.9645301
20
9.4072567
11
34.062403
21
9.5137968
0
LINE
8
layer0
10
34.062403
20
9.5137968
11
34.1761116
21
9.6276198
0
LINE
8
layer0
10
34.1761116
20
9.6276198
11
34.307865
21
9.7488912
0
LINE
8
layer0
10
34.307865
20
9.7488912
11
34.4564687
21
9.8745819
0
LINE
8
layer0
10
34.4564687
20
9.8745819
11
34.6045368
21
9.989888
0
ARC
8
layer0
10
29.9999924
20
-0.0000154
40
11
50
60.7459149
51
65.2540876
0
LINE
8
layer0
10
35.3755103
20
9.5970574
11
35.369258
21
9.4094925
0
LINE
8
layer0
10
35.369258
20
9.4094925
11
35.3549192
21
9.2153905
0
LINE
8
layer0
10
35.3549192
20
9.2153905
11
35.3342512
21
9.0375182
0
LINE
8
layer0
10
35.3342512
20
9.0375182
11
35.3090027
21
8.8786225
0
LINE
8
layer0
10
35.3090027
20
8.8786225
11
35.2803382
21
8.736819
0
LINE
8
layer0
10
35.2803382
20
8.736819
11
35.2499145
21
8.6132649
0
LINE
8
layer0
10
35.2499145
20
8.6132649
11
35.2191845
21
8.5076462
0
LINE
8
layer0
10
35.2191845
20
8.5076462
11
35.189518
21
8.4195856
0
LINE
8
layer0
10
35.189518
20
8.4195856
11
35.138668
21
8.2940491
0
LINE
8
layer0
10
35.138668
20
8.2940491
11
35.1204586
21
8.2563283
0
LINE
8
layer0
10
35.1204586
20
8.2563283
11
35.0357548
21
8.1465997
0
LINE
8
layer0
10
35.0357548
20
8.1465997
11
34.9538005
21
8.0247995
0
LINE
8
layer0
10
34.9538005
20
8.0247995
11
34.8904249
21
7.9109962
0
LINE
8
layer0
10
34.8904249
20
7.9109962
11
34.8447798
21
7.8065231
0
LINE
8
layer0
10
34.8447798
20
7.8065231
11
34.8159579
21
7.7126328
0
LINE
8
layer0
10
34.8159579
20
7.7126328
11
34.8075498
21
7.6700282
0
LINE
8
layer0
10
34.8075498
20
7.6700282
11
34.8029669
21
7.6305281
0
LINE
8
layer0
10
34.8029669
20
7.6305281
11
34.8020836
21
7.5942485
0
LINE
8
layer0
10
34.8020836
20
7.5942485
11
34.8047535
21
7.5613452
0
LINE
8
layer0
10
34.8047535
20
7.5613452
11
34.8108345
21
7.5319461
0
LINE
8
layer0
10
34.8108345
20
7.5319461
11
34.8201789
21
7.506171
0
LINE
8
layer0
10
34.8201789
20
7.506171
11
34.8326447
21
7.4841478
0
LINE
8
layer0
10
34.8326447
20
7.4841478
11
34.8480782
21
7.465988
0
LINE
8
layer0
10
34.8480782
20
7.465988
11
34.8663094
21
7.4518151
0
LINE
8
layer0
10
34.8663094
20
7.4518151
11
35.1360451
21
7.2685351
0
LINE
8
layer0
10
35.1360451
20
7.2685351
11
35.2312887
21
7.2002512
0
LINE
8
layer0
10
35.2312887
20
7.2002512
11
35.3256625
21
7.13077
0
LINE
8
layer0
10
35.3256625
20
7.13077
11
35.583325
21
6.9308728
0
LINE
8
layer0
10
35.583325
20
6.9308728
11
35.602438
21
6.9179135
0
LINE
8
layer0
10
35.602438
20
6.9179135
11
35.6244782
21
6.9088471
0
LINE
8
layer0
10
35.6244782
20
6.9088471
11
35.6492757
21
6.903797
0
LINE
8
layer0
10
35.6492757
20
6.903797
11
35.6766768
21
6.9028749
0
LINE
8
layer0
10
35.6766768
20
6.9028749
11
35.7065162
21
6.9061763
0
LINE
8
layer0
10
35.7065162
20
6.9061763
11
35.738634
21
6.9138047
0
LINE
8
layer0
10
35.738634
20
6.9138047
11
35.772865
21
6.9258558
0
LINE
8
layer0
10
35.772865
20
6.9258558
11
35.8090157
21
6.9424206
0
LINE
8
layer0
10
35.8090157
20
6.9424206
11
35.8469368
21
6.9635827
0
LINE
8
layer0
10
35.8469368
20
6.9635827
11
35.9273254
21
7.0200077
0
LINE
8
layer0
10
35.9273254
20
7.0200077
11
36.01258
21
7.0957028
0
LINE
8
layer0
10
36.01258
20
7.0957028
11
36.1012293
21
7.1911436
0
LINE
8
layer0
10
36.1012293
20
7.1911436
11
36.191743
21
7.3067251
0
LINE
8
layer0
10
36.191743
20
7.3067251
11
36.2699261
21
7.4211913
0
LINE
8
layer0
10
36.2699261
20
7.4211913
11
36.3001737
21
7.4501659
0
LINE
8
layer0
10
36.3001737
20
7.4501659
11
36.4038525
21
7.53732
0
LINE
8
layer0
10
36.4038525
20
7.53732
11
36.4784356
21
7.5927467
0
LINE
8
layer0
10
36.4784356
20
7.5927467
11
36.5693889
21
7.6546106
0
LINE
8
layer0
10
36.5693889
20
7.6546106
11
36.6774944
21
7.7217256
0
LINE
8
layer0
10
36.6774944
20
7.7217256
11
36.8034998
21
7.7928068
0
LINE
8
layer0
10
36.8034998
20
7.7928068
11
36.9468163
21
7.8659211
0
LINE
8
layer0
10
36.9468163
20
7.8659211
11
37.1095961
21
7.940543
0
LINE
8
layer0
10
37.1095961
20
7.940543
11
37.2897672
21
8.0141609
0
LINE
8
layer0
10
37.2897672
20
8.0141609
11
37.4662199
21
8.0780679
0
ARC
8
layer0
10
29.9999878
20
-0.0000122
40
11
50
42.7459138
51
47.2540862
0
LINE
8
layer0
10
38.0780679
20
7.4662199
11
38.0141609
21
7.2897672
0
LINE
8
layer0
10
38.0141609
20
7.2897672
11
37.940543
21
7.1095961
0
LINE
8
layer0
10
37.940543
20
7.1095961
11
37.8659211
21
6.9468163
0
LINE
8
layer0
10
37.8659211
20
6.9468163
11
37.7928068
21
6.8034998
0
LINE
8
layer0
10
37.7928068
20
6.8034998
11
37.7217256
21
6.6774944
0
LINE
8
layer0
10
37.7217256
20
6.6774944
11
37.6546106
21
6.5693889
0
LINE
8
layer0
10
37.6546106
20
6.5693889
11
37.5927467
21
6.4784356
0
LINE
8
layer0
10
37.5927467
20
6.4784356
11
37.53732
21
6.4038525
0
LINE
8
layer0
10
37.53732
20
6.4038525
11
37.4501659
21
6.3001737
0
LINE
8
layer0
10
37.4501659
20
6.3001737
11
37.4211913
21
6.2699261
0
LINE
8
layer0
10
37.4211913
20
6.2699261
11
37.3067251
21
6.191743
0
LINE
8
layer0
10
37.3067251
20
6.191743
11
37.1911436
21
6.1012293
0
LINE
8
layer0
10
37.1911436
20
6.1012293
11
37.0957028
21
6.01258
0
LINE
8
layer0
10
37.0957028
20
6.01258
11
37.0200077
21
5.9273254
0
LINE
8
layer0
10
37.0200077
20
5.9273254
11
36.9635827
21
5.8469368
0
LINE
8
layer0
10
36.9635827
20
5.8469368
11
36.9424206
21
5.8090157
0
LINE
8
layer0
10
36.9424206
20
5.8090157
11
36.9258558
21
5.772865
0
LINE
8
layer0
10
36.9258558
20
5.772865
11
36.9138047
21
5.738634
0
LINE
8
layer0
10
36.9138047
20
5.738634
11
36.9061763
21
5.7065162
0
LINE
8
layer0
10
36.9061763
20
5.7065162
11
36.9028749
21
5.6766768
0
LINE
8
layer0
10
36.9028749
20
5.6766768
11
36.903797
21
5.6492757
0
LINE
8
layer0
10
36.903797
20
5.6492757
11
36.9088471
21
5.6244782
0
LINE
8
layer0
10
36.9088471
20
5.6244782
11
36.9179135
21
5.602438
0
LINE
8
layer0
10
36.9179135
20
5.602438
11
36.9308728
21
5.583325
0
LINE
8
layer0
10
36.9308728
20
5.583325
11
37.13077
21
5.3256625
0
LINE
8
layer0
10
37.13077
20
5.3256625
11
37.2002512
21
5.2312887
0
LINE
8
layer0
10
37.2002512
20
5.2312887
11
37.2685351
21
5.1360451
0
LINE
8
layer0
10
37.2685351
20
5.1360451
11
37.4518151
21
4.8663094
0
LINE
8
layer0
10
37.4518151
20
4.8663094
11
37.465988
21
4.8480782
0
LINE
8
layer0
10
37.465988
20
4.8480782
11
37.4841478
21
4.8326447
0
LINE
8
layer0
10
37.4841478
20
4.8326447
11
37.506171
21
4.8201789
0
LINE
8
layer0
10
37.506171
20
4.8201789
11
37.5319461
21
4.8108345
0
LINE
8
layer0
10
37.5319461
20
4.8108345
11
37.5613452
21
4.8047535
0
LINE
8
layer0
10
37.5613452
20
4.8047535
11
37.5942485
21
4.8020836
0
LINE
8
layer0
10
37.5942485
20
4.8020836
11
37.6305281
21
4.8029669
0
LINE
8
layer0
10
37.6305281
20
4.8029669
11
37.6700282
21
4.8075498
0
LINE
8
layer0
10
37.6700282
20
4.8075498
11
37.7126328
21
4.8159579
0
LINE
8
layer0
10
37.7126328
20
4.8159579
11
37.8065231
21
4.8447798
0
LINE
8
layer0
10
37.8065231
20
4.8447798
11
37.9109962
21
4.8904249
0
LINE
8
layer0
10
37.9109962
20
4.8904249
11
38.0247995
21
4.9538005
0
LINE
8
layer0
10
38.0247995
20
4.9538005
11
38.1465997
21
5.0357548
0
LINE
8
layer0
10
38.1465997
20
5.0357548
11
38.2563283
21
5.1204586
0
LINE
8
layer0
10
38.2563283
20
5.1204586
11
38.2940491
21
5.138668
0
LINE
8
layer0
10
38.2940491
20
5.138668
11
38.4195856
21
5.189518
0
LINE
8
layer0
10
38.4195856
20
5.189518
11
38.5076462
21
5.2191845
0
LINE
8
layer0
10
38.5076462
20
5.2191845
11
38.6132649
21
5.2499145
0
LINE
8
layer0
10
38.6132649
20
5.2499145
11
38.736819
21
5.2803382
0
LINE
8
layer0
10
38.736819
20
5.2803382
11
38.8786225
21
5.3090027
0
LINE
8
layer0
10
38.8786225
20
5.3090027
11
39.0375182
21
5.3342512
0
LINE
8
layer0
10
39.0375182
20
5.3342512
11
39.2153905
21
5.3549192
0
LINE
8
layer0
10
39.2153905
20
5.3549192
11
39.4094925
21
5.369258
0
LINE
8
layer0
10
39.4094925
20
5.369258
11
39.5970574
21
5.3755103
0
ARC
8
layer0
10
29.9999846
20
-0.0000077
40
11
50
24.7459128
51
29.2540855
0
LINE
8
layer0
10
39.989888
20
4.6045368
11
39.8745819
21
4.4564687
0
LINE
8
layer0
10
39.8745819
20
4.4564687
11
39.7488912
21
4.307865
0
LINE
8
layer0
10
39.7488912
20
4.307865
11
39.6276198
21
4.1761116
0
LINE
8
layer0
10
39.6276198
20
4.1761116
11
39.5137968
21
4.062403
0
LINE
8
layer0
10
39.5137968
20
4.062403
11
39.4072567
21
3.9645301
0
LINE
8
layer0
10
39.4072567
20
3.9645301
11
39.3100201
21
3.8824553
0
LINE
8
layer0
10
39.3100201
20
3.8824553
11
39.2230779
21
3.8150707
0
LINE
8
layer0
10
39.2230779
20
3.8150707
11
39.1473165
21
3.7612657
0
LINE
8
layer0
10
39.1473165
20
3.7612657
11
39.0323895
21
3.6895934
0
LINE
8
layer0
10
39.0323895
20
3.6895934
11
38.9954861
21
3.6697799
0
LINE
8
layer0
10
38.9954861
20
3.6697799
11
38.8624623
21
3.6307952
0
LINE
8
layer0
10
38.8624623
20
3.6307952
11
38.7245675
21
3.5804283
0
LINE
8
layer0
10
38.7245675
20
3.5804283
11
38.6064038
21
3.5256107
0
LINE
8
layer0
10
38.6064038
20
3.5256107
11
38.5080684
21
3.4679198
0
LINE
8
layer0
10
38.5080684
20
3.4679198
11
38.4295636
21
3.4089019
0
LINE
8
layer0
10
38.4295636
20
3.4089019
11
38.3977189
21
3.3793763
0
LINE
8
layer0
10
38.3977189
20
3.3793763
11
38.3707937
21
3.3501138
0
LINE
8
layer0
10
38.3707937
20
3.3501138
11
38.3487545
21
3.3212821
0
LINE
8
layer0
10
38.3487545
20
3.3212821
11
38.3315744
21
3.2930936
0
LINE
8
layer0
10
38.3315744
20
3.2930936
11
38.3192137
21
3.2657349
0
LINE
8
layer0
10
38.3192137
20
3.2657349
11
38.3116233
21
3.2393899
0
LINE
8
layer0
10
38.3116233
20
3.2393899
11
38.3087634
21
3.2142454
0
LINE
8
layer0
10
38.3087634
20
3.2142454
11
38.3105753
21
3.1904823
0
LINE
8
layer0
10
38.3105753
20
3.1904823
11
38.3169941
21
3.1683002
0
LINE
8
layer0
10
38.3169941
20
3.1683002
11
38.4274855
21
2.8614769
0
LINE
8
layer0
10
38.4274855
20
2.8614769
11
38.464403
21
2.7502512
0
LINE
8
layer0
10
38.464403
20
2.7502512
11
38.4999129
21
2.6385683
0
LINE
8
layer0
10
38.4999129
20
2.6385683
11
38.5908697
21
2.3253978
0
LINE
8
layer0
10
38.5908697
20
2.3253978
11
38.5987151
21
2.3036792
0
LINE
8
layer0
10
38.5987151
20
2.3036792
11
38.6112168
21
2.2833894
0
LINE
8
layer0
10
38.6112168
20
2.2833894
11
38.6283101
21
2.2647281
0
LINE
8
layer0
10
38.6283101
20
2.2647281
11
38.6499361
21
2.2478761
0
LINE
8
layer0
10
38.6499361
20
2.2478761
11
38.6760171
21
2.2330079
0
LINE
8
layer0
10
38.6760171
20
2.2330079
11
38.7064849
21
2.2203011
0
LINE
8
layer0
10
38.7064849
20
2.2203011
11
38.7412618
21
2.2099301
0
LINE
8
layer0
10
38.7412618
20
2.2099301
11
38.7802449
21
2.2020825
0
LINE
8
layer0
10
38.7802449
20
2.2020825
11
38.8233625
21
2.1969136
0
LINE
8
layer0
10
38.8233625
20
2.1969136
11
38.921564
21
2.1953111
0
LINE
8
layer0
10
38.921564
20
2.1953111
11
39.0350289
21
2.2064382
0
LINE
8
layer0
10
39.0350289
20
2.2064382
11
39.1628463
21
2.2315448
0
LINE
8
layer0
10
39.1628463
20
2.2315448
11
39.3040106
21
2.2718496
0
LINE
8
layer0
10
39.3040106
20
2.2718496
11
39.4345436
21
2.3184998
0
LINE
8
layer0
10
39.4345436
20
2.3184998
11
39.4760452
21
2.3241616
0
LINE
8
layer0
10
39.4760452
20
2.3241616
11
39.611151
21
2.3337299
0
LINE
8
layer0
10
39.611151
20
2.3337299
11
39.704069
21
2.3347322
0
LINE
8
layer0
10
39.704069
20
2.3347322
11
39.8140145
21
2.3313202
0
LINE
8
layer0
10
39.8140145
20
2.3313202
11
39.9409229
21
2.3220745
0
LINE
8
layer0
10
39.9409229
20
2.3220745
11
40.0846439
21
2.3055163
0
LINE
8
layer0
10
40.0846439
20
2.3055163
11
40.2435648
21
2.2804277
0
LINE
8
layer0
10
40.2435648
20
2.2804277
11
40.4191182
21
2.2451185
0
LINE
8
layer0
10
40.4191182
20
2.2451185
11
40.6081511
21
2.1987747
0
LINE
8
layer0
10
40.6081511
20
2.1987747
11
40.788468
21
2.1467603
0
ARC
8
layer0
10
29.999983
20
-0.0000026
40
11
50
6.7459132
51
11.2540859
0
LINE
8
layer0
10
40.9238282
20
1.2921296
11
40.76841
21
1.18694
0
LINE
8
layer0
10
40.76841
20
1.18694
11
40.60295
21
1.08445
0
LINE
8
layer0
10
40.60295
20
1.08445
11
40.4469
21
0.99662
0
LINE
8
layer0
10
40.4469
20
0.99662
11
40.30351
21
0.92365
0
LINE
8
layer0
10
40.30351
20
0.92365
11
40.17194
21
0.86349
0
LINE
8
layer0
10
40.17194
20
0.86349
11
40.0541
21
0.81548
0
LINE
8
layer0
10
40.0541
20
0.81548
11
39.95059
21
0.77826
0
LINE
8
layer0
10
39.95059
20
0.77826
11
39.86191
21
0.7505
0
LINE
8
layer0
10
39.86191
20
0.7505
11
39.73046
21
0.71785
0
LINE
8
layer0
10
39.73046
20
0.71785
11
39.68924
21
0.71041
0
LINE
8
layer0
10
39.68924
20
0.71041
11
39.55068
21
0.71444
0
LINE
8
layer0
10
39.55068
20
0.71444
11
39.40397
21
0.70915
0
LINE
8
layer0
10
39.40397
20
0.70915
11
39.27465
21
0.69353
0
LINE
8
layer0
10
39.27465
20
0.69353
11
39.1633
21
0.66905
0
LINE
8
layer0
10
39.1633
20
0.66905
11
39.0704
21
0.63718
0
LINE
8
layer0
10
39.0704
20
0.63718
11
39.03099
21
0.61894
0
LINE
8
layer0
10
39.03099
20
0.61894
11
38.99634
21
0.59943
0
LINE
8
layer0
10
38.99634
20
0.59943
11
38.96647
21
0.57882
0
LINE
8
layer0
10
38.96647
20
0.57882
11
38.94142
21
0.55732
0
LINE
8
layer0
10
38.94142
20
0.55732
11
38.92121
21
0.53512
0
LINE
8
layer0
10
38.92121
20
0.53512
11
38.90585
21
0.51241
0
LINE
8
layer0
10
38.90585
20
0.51241
11
38.89536
21
0.48938
0
LINE
8
layer0
10
38.89536
20
0.48938
11
38.88974
21
0.46622
0
LINE
8
layer0
10
38.88974
20
0.46622
11
38.88899
21
0.44314
0
LINE
8
layer0
10
38.88899
20
0.44314
11
38.89926
21
0.11719
0
LINE
8
layer0
10
38.89926
20
0.11719
11
38.9
21
0
0
LINE
8
layer0
10
38.9
20
0
11
38.89926
21
-0.11719
0
LINE
8
layer0
10
38.89926
20
-0.11719
11
38.88899
21
-0.44314
0
LINE
8
layer0
10
38.88899
20
-0.44314
11
38.88974
21
-0.46622
0
LINE
8
layer0
10
38.88974
20
-0.46622
11
38.89536
21
-0.48938
0
LINE
8
layer0
10
38.89536
20
-0.48938
11
38.90585
21
-0.51241
0
LINE
8
layer0
10
38.90585
20
-0.51241
11
38.92121
21
-0.53512
0
LINE
8
layer0
10
38.92121
20
-0.53512
11
38.94142
21
-0.55732
0
LINE
8
layer0
10
38.94142
20
-0.55732
11
38.96647
21
-0.57882
0
LINE
8
layer0
10
38.96647
20
-0.57882
11
38.99634
21
-0.59943
0
LINE
8
layer0
10
38.99634
20
-0.59943
11
39.03099
21
-0.61894
0
LINE
8
layer0
10
39.03099
20
-0.61894
11
39.0704
21
-0.63718
0
LINE
8
layer0
10
39.0704
20
-0.63718
11
39.1633
21
-0.66905
0
LINE
8
layer0
10
39.1633
20
-0.66905
11
39.27465
21
-0.69353
0
LINE
8
layer0
10
39.27465
20
-0.69353
11
39.40397
21
-0.70915
0
LINE
8
layer0
10
39.40397
20
-0.70915
11
39.55068
21
-0.71444
0
LINE
8
layer0
10
39.55068
20
-0.71444
11
39.68924
21
-0.71041
0
LINE
8
layer0
10
39.68924
20
-0.71041
11
39.73046
21
-0.71785
0
LINE
8
layer0
10
39.73046
20
-0.71785
11
39.86191
21
-0.7505
0
LINE
8
layer0
10
39.86191
20
-0.7505
11
39.95059
21
-0.77826
0
LINE
8
layer0
10
39.95059
20
-0.77826
11
40.0541
21
-0.81548
0
LINE
8
layer0
10
40.0541
20
-0.81548
11
40.17194
21
-0.86349
0
LINE
8
layer0
10
40.17194
20
-0.86349
11
40.30351
21
-0.92365
0
LINE
8
layer0
10
40.30351
20
-0.92365
11
40.4469
21
-0.99662
0
LINE
8
layer0
10
40.4469
20
-0.99662
11
40.60295
21
-1.08445
0
LINE
8
layer0
10
40.60295
20
-1.08445
11
40.76841
21
-1.18694
0
LINE
8
layer0
10
40.76841
20
-1.18694
11
40.9238282
21
-1.2921296
0
ARC
8
layer0
10
29.999983
20
0.0000026
40
11
50
348.7459141
51
353.2540868
0
LINE
8
layer0
10
40.788468
20
-2.1467603
11
40.6081511
21
-2.1987747
0
LINE
8
layer0
10
40.6081511
20
-2.1987747
11
40.4191182
21
-2.2451185
0
LINE
8
layer0
10
40.4191182
20
-2.2451185
11
40.2435648
21
-2.2804277
0
LINE
8
layer0
10
40.2435648
20
-2.2804277
11
40.0846439
21
-2.3055163
0
LINE
8
layer0
10
40.0846439
20
-2.3055163
11
39.9409229
21
-2.3220745
0
LINE
8
layer0
10
39.9409229
20
-2.3220745
11
39.8140145
21
-2.3313202
0
LINE
8
layer0
10
39.8140145
20
-2.3313202
11
39.704069
21
-2.3347322
0
LINE
8
layer0
10
39.704069
20
-2.3347322
11
39.611151
21
-2.3337299
0
LINE
8
layer0
10
39.611151
20
-2.3337299
11
39.4760452
21
-2.3241616
0
LINE
8
layer0
10
39.4760452
20
-2.3241616
11
39.4345436
21
-2.3184998
0
LINE
8
layer0
10
39.4345436
20
-2.3184998
11
39.3040106
21
-2.2718496
0
LINE
8
layer0
10
39.3040106
20
-2.2718496
11
39.1628463
21
-2.2315448
0
LINE
8
layer0
10
39.1628463
20
-2.2315448
11
39.0350289
21
-2.2064382
0
LINE
8
layer0
10
39.0350289
20
-2.2064382
11
38.921564
21
-2.1953111
0
LINE
8
layer0
10
38.921564
20
-2.1953111
11
38.8233625
21
-2.1969136
0
LINE
8
layer0
10
38.8233625
20
-2.1969136
11
38.7802449
21
-2.2020825
0
LINE
8
layer0
10
38.7802449
20
-2.2020825
11
38.7412618
21
-2.2099301
0
LINE
8
layer0
10
38.7412618
20
-2.2099301
11
38.7064849
21
-2.2203011
0
LINE
8
layer0
10
38.7064849
20
-2.2203011
11
38.6760171
21
-2.2330079
0
LINE
8
layer0
10
38.6760171
20
-2.2330079
11
38.6499361
21
-2.2478761
0
LINE
8
layer0
10
38.6499361
20
-2.2478761
11
38.6283101
21
-2.2647281
0
LINE
8
layer0
10
38.6283101
20
-2.2647281
11
38.6112168
21
-2.2833894
0
LINE
8
layer0
10
38.6112168
20
-2.2833894
11
38.5987151
21
-2.3036792
0
LINE
8
layer0
10
38.5987151
20
-2.3036792
11
38.5908697
21
-2.3253978
0
LINE
8
layer0
10
38.5908697
20
-2.3253978
11
38.4999129
21
-2.6385683
0
LINE
8
layer0
10
38.4999129
20
-2.6385683
11
38.464403
21
-2.7502512
0
LINE
8
layer0
10
38.464403
20
-2.7502512
11
38.4274855
21
-2.8614769
0
LINE
8
layer0
10
38.4274855
20
-2.8614769
11
38.3169941
21
-3.1683002
0
LINE
8
layer0
10
38.3169941
20
-3.1683002
11
38.3105753
21
-3.1904823
0
LINE
8
layer0
10
38.3105753
20
-3.1904823
11
38.3087634
21
-3.2142454
0
LINE
8
layer0
10
38.3087634
20
-3.2142454
11
38.3116233
21
-3.2393899
0
LINE
8
layer0
10
38.3116233
20
-3.2393899
11
38.3192137
21
-3.2657349
0
LINE
8
layer0
10
38.3192137
20
-3.2657349
11
38.3315744
21
-3.2930936
0
LINE
8
layer0
10
38.3315744
20
-3.2930936
11
38.3487545
21
-3.3212821
0
LINE
8
layer0
10
38.3487545
20
-3.3212821
11
38.3707937
21
-3.3501138
0
LINE
8
layer0
10
38.3707937
20
-3.3501138
11
38.3977189
21
-3.3793763
0
LINE
8
layer0
10
38.3977189
20
-3.3793763
11
38.4295636
21
-3.4089019
0
LINE
8
layer0
10
38.4295636
20
-3.4089019
11
38.5080684
21
-3.4679198
0
LINE
8
layer0
10
38.5080684
20
-3.4679198
11
38.6064038
21
-3.5256107
0
LINE
8
layer0
10
38.6064038
20
-3.5256107
11
38.7245675
21
-3.5804283
0
LINE
8
layer0
10
38.7245675
20
-3.5804283
11
38.8624623
21
-3.6307952
0
LINE
8
layer0
10
38.8624623
20
-3.6307952
11
38.9954861
21
-3.6697799
0
LINE
8
layer0
10
38.9954861
20
-3.6697799
11
39.0323895
21
-3.6895934
0
LINE
8
layer0
10
39.0323895
20
-3.6895934
11
39.1473165
21
-3.7612657
0
LINE
8
layer0
10
39.1473165
20
-3.7612657
11
39.2230779
21
-3.8150707
0
LINE
8
layer0
10
39.2230779
20
-3.8150707
11
39.3100201
21
-3.8824553
0
LINE
8
layer0
10
39.3100201
20
-3.8824553
11
39.4072567
21
-3.9645301
0
LINE
8
layer0
10
39.4072567
20
-3.9645301
11
39.5137968
21
-4.062403
0
LINE
8
layer0
10
39.5137968
20
-4.062403
11
39.6276198
21
-4.1761116
0
LINE
8
layer0
10
39.6276198
20
-4.1761116
11
39.7488912
21
-4.307865
0
LINE
8
layer0
10
39.7488912
20
-4.307865
11
39.8745819
21
-4.4564687
0
LINE
8
layer0
10
39.8745819
20
-4.4564687
11
39.989888
21
-4.6045368
0
ARC
8
layer0
10
29.9999846
20
0.0000076
40
11
50
330.7459149
51
335.2540876
0
LINE
8
layer0
10
39.5970574
20
-5.3755103
11
39.4094925
21
-5.369258
0
LINE
8
layer0
10
39.4094925
20
-5.369258
11
39.2153905
21
-5.3549192
0
LINE
8
layer0
10
39.2153905
20
-5.3549192
11
39.0375182
21
-5.3342512
0
LINE
8
layer0
10
39.0375182
20
-5.3342512
11
38.8786225
21
-5.3090027
0
LINE
8
layer0
10
38.8786225
20
-5.3090027
11
38.736819
21
-5.2803382
0
LINE
8
layer0
10
38.736819
20
-5.2803382
11
38.6132649
21
-5.2499145
0
LINE
8
layer0
10
38.6132649
20
-5.2499145
11
38.5076462
21
-5.2191845
0
LINE
8
layer0
10
38.5076462
20
-5.2191845
11
38.4195856
21
-5.189518
0
LINE
8
layer0
10
38.4195856
20
-5.189518
11
38.2940491
21
-5.138668
0
LINE
8
layer0
10
38.2940491
20
-5.138668
11
38.2563283
21
-5.1204586
0
LINE
8
layer0
10
38.2563283
20
-5.1204586
11
38.1465997
21
-5.0357548
0
LINE
8
layer0
10
38.1465997
20
-5.0357548
11
38.0247995
21
-4.9538005
0
LINE
8
layer0
10
38.0247995
20
-4.9538005
11
37.9109962
21
-4.8904249
0
LINE
8
layer0
10
37.9109962
20
-4.8904249
11
37.8065231
21
-4.8447798
0
LINE
8
layer0
10
37.8065231
20
-4.8447798
11
37.7126328
21
-4.8159579
0
LINE
8
layer0
10
37.7126328
20
-4.8159579
11
37.6700282
21
-4.8075498
0
LINE
8
layer0
10
37.6700282
20
-4.8075498
11
37.6305281
21
-4.8029669
0
LINE
8
layer0
10
37.6305281
20
-4.8029669
11
37.5942485
21
-4.8020836
0
LINE
8
layer0
10
37.5942485
20
-4.8020836
11
37.5613452
21
-4.8047535
0
LINE
8
layer0
10
37.5613452
20
-4.8047535
11
37.5319461
21
-4.8108345
0
LINE
8
layer0
10
37.5319461
20
-4.8108345
11
37.506171
21
-4.8201789
0
LINE
8
layer0
10
37.506171
20
-4.8201789
11
37.4841478
21
-4.8326447
0
LINE
8
layer0
10
37.4841478
20
-4.8326447
11
37.465988
21
-4.8480782
0
LINE
8
layer0
10
37.465988
20
-4.8480782
11
37.4518151
21
-4.8663094
0
LINE
8
layer0
10
37.4518151
20
-4.8663094
11
37.2685351
21
-5.1360451
0
LINE
8
layer0
10
37.2685351
20
-5.1360451
11
37.2002512
21
-5.2312887
0
LINE
8
layer0
10
37.2002512
20
-5.2312887
11
37.13077
21
-5.3256625
0
LINE
8
layer0
10
37.13077
20
-5.3256625
11
36.9308728
21
-5.583325
0
LINE
8
layer0
10
36.9308728
20
-5.583325
11
36.9179135
21
-5.602438
0
LINE
8
layer0
10
36.9179135
20
-5.602438
11
36.9088471
21
-5.6244782
0
LINE
8
layer0
10
36.9088471
20
-5.6244782
11
36.903797
21
-5.6492757
0
LINE
8
layer0
10
36.903797
20
-5.6492757
11
36.9028749
21
-5.6766768
0
LINE
8
layer0
10
36.9028749
20
-5.6766768
11
36.9061763
21
-5.7065162
0
LINE
8
layer0
10
36.9061763
20
-5.7065162
11
36.9138047
21
-5.738634
0
LINE
8
layer0
10
36.9138047
20
-5.738634
11
36.9258558
21
-5.772865
0
LINE
8
layer0
10
36.9258558
20
-5.772865
11
36.9424206
21
-5.8090157
0
LINE
8
layer0
10
36.9424206
20
-5.8090157
11
36.9635827
21
-5.8469368
0
LINE
8
layer0
10
36.9635827
20
-5.8469368
11
37.0200077
21
-5.9273254
0
LINE
8
layer0
10
37.0200077
20
-5.9273254
11
37.0957028
21
-6.01258
0
LINE
8
layer0
10
37.0957028
20
-6.01258
11
37.1911436
21
-6.1012293
0
LINE
8
layer0
10
37.1911436
20
-6.1012293
11
37.3067251
21
-6.191743
0
LINE
8
layer0
10
37.3067251
20
-6.191743
11
37.4211913
21
-6.2699261
0
LINE
8
layer0
10
37.4211913
20
-6.2699261
11
37.4501659
21
-6.3001737
0
LINE
8
layer0
10
37.4501659
20
-6.3001737
11
37.53732
21
-6.4038525
0
LINE
8
layer0
10
37.53732
20
-6.4038525
11
37.5927467
21
-6.4784356
0
LINE
8
layer0
10
37.5927467
20
-6.4784356
11
37.6546106
21
-6.5693889
0
LINE
8
layer0
10
37.6546106
20
-6.5693889
11
37.7217256
21
-6.6774944
0
LINE
8
layer0
10
37.7217256
20
-6.6774944
11
37.7928068
21
-6.8034998
0
LINE
8
layer0
10
37.7928068
20
-6.8034998
11
37.8659211
21
-6.9468163
0
LINE
8
layer0
10
37.8659211
20
-6.9468163
11
37.940543
21
-7.1095961
0
LINE
8
layer0
10
37.940543
20
-7.1095961
11
38.0141609
21
-7.2897672
0
LINE
8
layer0
10
38.0141609
20
-7.2897672
11
38.0780679
21
-7.4662199
0
ARC
8
layer0
10
29.9999878
20
0.0000122
40
11
50
312.7459138
51
317.2540862
0
LINE
8
layer0
10
37.4662199
20
-8.0780679
11
37.2897672
21
-8.0141609
0
LINE
8
layer0
10
37.2897672
20
-8.0141609
11
37.1095961
21
-7.940543
0
LINE
8
layer0
10
37.1095961
20
-7.940543
11
36.9468163
21
-7.8659211
0
LINE
8
layer0
10
36.9468163
20
-7.8659211
11
36.8034998
21
-7.7928068
0
LINE
8
layer0
10
36.8034998
20
-7.7928068
11
36.6774944
21
-7.7217256
0
LINE
8
layer0
10
36.6774944
20
-7.7217256
11
36.5693889
21
-7.6546106
0
LINE
8
layer0
10
36.5693889
20
-7.6546106
11
36.4784356
21
-7.5927467
0
LINE
8
layer0
10
36.4784356
20
-7.5927467
11
36.4038525
21
-7.53732
0
LINE
8
layer0
10
36.4038525
20
-7.53732
11
36.3001737
21
-7.4501659
0
LINE
8
layer0
10
36.3001737
20
-7.4501659
11
36.2699261
21
-7.4211913
0
LINE
8
layer0
10
36.2699261
20
-7.4211913
11
36.191743
21
-7.3067251
0
LINE
8
layer0
10
36.191743
20
-7.3067251
11
36.1012293
21
-7.1911436
0
LINE
8
layer0
10
36.1012293
20
-7.1911436
11
36.01258
21
-7.0957028
0
LINE
8
layer0
10
36.01258
20
-7.0957028
11
35.9273254
21
-7.0200077
0
LINE
8
layer0
10
35.9273254
20
-7.0200077
11
35.8469368
21
-6.9635827
0
LINE
8
layer0
10
35.8469368
20
-6.9635827
11
35.8090157
21
-6.9424206
0
LINE
8
layer0
10
35.8090157
20
-6.9424206
11
35.772865
21
-6.9258558
0
LINE
8
layer0
10
35.772865
20
-6.9258558
11
35.738634
21
-6.9138047
0
LINE
8
layer0
10
35.738634
20
-6.9138047
11
35.7065162
21
-6.9061763
0
LINE
8
layer0
10
35.7065162
20
-6.9061763
11
35.6766768
21
-6.9028749
0
LINE
8
layer0
10
35.6766768
20
-6.9028749
11
35.6492757
21
-6.903797
0
LINE
8
layer0
10
35.6492757
20
-6.903797
11
35.6244782
21
-6.9088471
0
LINE
8
layer0
10
35.6244782
20
-6.9088471
11
35.602438
21
-6.9179135
0
LINE
8
layer0
10
35.602438
20
-6.9179135
11
35.583325
21
-6.9308728
0
LINE
8
layer0
10
35.583325
20
-6.9308728
11
35.3256625
21
-7.13077
0
LINE
8
layer0
10
35.3256625
20
-7.13077
11
35.2312887
21
-7.2002512
0
LINE
8
layer0
10
35.2312887
20
-7.2002512
11
35.1360451
21
-7.2685351
0
LINE
8
layer0
10
35.1360451
20
-7.2685351
11
34.8663094
21
-7.4518151
0
LINE
8
layer0
10
34.8663094
20
-7.4518151
11
34.8480782
21
-7.465988
0
LINE
8
layer0
10
34.8480782
20
-7.465988
11
34.8326447
21
-7.4841478
0
LINE
8
layer0
10
34.8326447
20
-7.4841478
11
34.8201789
21
-7.506171
0
LINE
8
layer0
10
34.8201789
20
-7.506171
11
34.8108345
21
-7.5319461
0
LINE
8
layer0
10
34.8108345
20
-7.5319461
11
34.8047535
21
-7.5613452
0
LINE
8
layer0
10
34.8047535
20
-7.5613452
11
34.8020836
21
-7.5942485
0
LINE
8
layer0
10
34.8020836
20
-7.5942485
11
34.8029669
21
-7.6305281
0
LINE
8
layer0
10
34.8029669
20
-7.6305281
11
34.8075498
21
-7.6700282
0
LINE
8
layer0
10
34.8075498
20
-7.6700282
11
34.8159579
21
-7.7126328
0
LINE
8
layer0
10
34.8159579
20
-7.7126328
11
34.8447798
21
-7.8065231
0
LINE
8
layer0
10
34.8447798
20
-7.8065231
11
34.8904249
21
-7.9109962
0
LINE
8
layer0
10
34.8904249
20
-7.9109962
11
34.9538005
21
-8.0247995
0
LINE
8
layer0
10
34.9538005
20
-8.0247995
11
35.0357548
21
-8.1465997
0
LINE
8
layer0
10
35.0357548
20
-8.1465997
11
35.1204586
21
-8.2563283
0
LINE
8
layer0
10
35.1204586
20
-8.2563283
11
35.138668
21
-8.2940491
0
LINE
8
layer0
10
35.138668
20
-8.2940491
11
35.189518
21
-8.4195856
0
LINE
8
layer0
10
35.189518
20
-8.4195856
11
35.2191845
21
-8.5076462
0
LINE
8
layer0
10
35.2191845
20
-8.5076462
11
35.2499145
21
-8.6132649
0
LINE
8
layer0
10
35.2499145
20
-8.6132649
11
35.2803382
21
-8.736819
0
LINE
8
layer0
10
35.2803382
20
-8.736819
11
35.3090027
21
-8.8786225
0
LINE
8
layer0
10
35.3090027
20
-8.8786225
11
35.3342512
21
-9.0375182
0
LINE
8
layer0
10
35.3342512
20
-9.0375182
11
35.3549192
21
-9.2153905
0
LINE
8
layer0
10
35.3549192
20
-9.2153905
11
35.369258
21
-9.4094925
0
LINE
8
layer0
10
35.369258
20
-9.4094925
11
35.3755103
21
-9.5970574
0
ARC
8
layer0
10
29.9999923
20
0.0000154
40
11
50
294.7459128
51
299.2540855
0
LINE
8
layer0
10
34.6045368
20
-9.989888
11
34.4564687
21
-9.8745819
0
LINE
8
layer0
10
34.4564687
20
-9.8745819
11
34.307865
21
-9.7488912
0
LINE
8
layer0
10
34.307865
20
-9.7488912
11
34.1761116
21
-9.6276198
0
LINE
8
layer0
10
34.1761116
20
-9.6276198
11
34.062403
21
-9.5137968
0
LINE
8
layer0
10
34.062403
20
-9.5137968
11
33.9645301
21
-9.4072567
0
LINE
8
layer0
10
33.9645301
20
-9.4072567
11
33.8824553
21
-9.3100201
0
LINE
8
layer0
10
33.8824553
20
-9.3100201
11
33.8150707
21
-9.2230779
0
LINE
8
layer0
10
33.8150707
20
-9.2230779
11
33.7612657
21
-9.1473165
0
LINE
8
layer0
10
33.7612657
20
-9.1473165
11
33.6895934
21
-9.0323895
0
LINE
8
layer0
10
33.6895934
20
-9.0323895
11
33.6697799
21
-8.9954861
0
LINE
8
layer0
10
33.6697799
20
-8.9954861
11
33.6307952
21
-8.8624623
0
LINE
8
layer0
10
33.6307952
20
-8.8624623
11
33.5804283
21
-8.7245675
0
LINE
8
layer0
10
33.5804283
20
-8.7245675
11
33.5256107
21
-8.6064038
0
LINE
8
layer0
10
33.5256107
20
-8.6064038
11
33.4679198
21
-8.5080684
0
LINE
8
layer0
10
33.4679198
20
-8.5080684
11
33.4089019
21
-8.4295636
0
LINE
8
layer0
10
33.4089019
20
-8.4295636
11
33.3793763
21
-8.3977189
0
LINE
8
layer0
10
33.3793763
20
-8.3977189
11
33.3501138
21
-8.3707937
0
LINE
8
layer0
10
33.3501138
20
-8.3707937
11
33.3212821
21
-8.3487545
0
LINE
8
layer0
10
33.3212821
20
-8.3487545
11
33.2930936
21
-8.3315744
0
LINE
8
layer0
10
33.2930936
20
-8.3315744
11
33.2657349
21
-8.3192137
0
LINE
8
layer0
10
33.2657349
20
-8.3192137
11
33.2393899
21
-8.3116233
0
LINE
8
layer0
10
33.2393899
20
-8.3116233
11
33.2142454
21
-8.3087634
0
LINE
8
layer0
10
33.2142454
20
-8.3087634
11
33.1904823
21
-8.3105753
0
LINE
8
layer0
10
33.1904823
20
-8.3105753
11
33.1683002
21
-8.3169941
0
LINE
8
layer0
10
33.1683002
20
-8.3169941
11
32.8614769
21
-8.4274855
0
LINE
8
layer0
10
32.8614769
20
-8.4274855
11
32.7502512
21
-8.464403
0
LINE
8
layer0
10
32.7502512
20
-8.464403
11
32.6385683
21
-8.4999129
0
LINE
8
layer0
10
32.6385683
20
-8.4999129
11
32.3253978
21
-8.5908697
0
LINE
8
layer0
10
32.3253978
20
-8.5908697
11
32.3036792
21
-8.5987151
0
LINE
8
layer0
10
32.3036792
20
-8.5987151
11
32.2833894
21
-8.6112168
0
LINE
8
layer0
10
32.2833894
20
-8.6112168
11
32.2647281
21
-8.6283101
0
LINE
8
layer0
10
32.2647281
20
-8.6283101
11
32.2478761
21
-8.6499361
0
LINE
8
layer0
10
32.2478761
20
-8.6499361
11
32.2330079
21
-8.6760171
0
LINE
8
layer0
10
32.2330079
20
-8.6760171
11
32.2203011
21
-8.7064849
0
LINE
8
layer0
10
32.2203011
20
-8.7064849
11
32.2099301
21
-8.7412618
0
LINE
8
layer0
10
32.2099301
20
-8.7412618
11
32.2020825
21
-8.7802449
0
LINE
8
layer0
10
32.2020825
20
-8.7802449
11
32.1969136
21
-8.8233625
0
LINE
8
layer0
10
32.1969136
20
-8.8233625
11
32.1953111
21
-8.921564
0
LINE
8
layer0
10
32.1953111
20
-8.921564
11
32.2064382
21
-9.0350289
0
LINE
8
layer0
10
32.2064382
20
-9.0350289
11
32.2315448
21
-9.1628463
0
LINE
8
layer0
10
32.2315448
20
-9.1628463
11
32.2718496
21
-9.3040106
0
LINE
8
layer0
10
32.2718496
20
-9.3040106
11
32.3184998
21
-9.4345436
0
LINE
8
layer0
10
32.3184998
20
-9.4345436
11
32.3241616
21
-9.4760452
0
LINE
8
layer0
10
32.3241616
20
-9.4760452
11
32.3337299
21
-9.611151
0
LINE
8
layer0
10
32.3337299
20
-9.611151
11
32.3347322
21
-9.704069
0
LINE
8
layer0
10
32.3347322
20
-9.704069
11
32.3313202
21
-9.8140145
0
LINE
8
layer0
10
32.3313202
20
-9.8140145
11
32.3220745
21
-9.9409229
0
LINE
8
layer0
10
32.3220745
20
-9.9409229
11
32.3055163
21
-10.0846439
0
LINE
8
layer0
10
32.3055163
20
-10.0846439
11
32.2804277
21
-10.2435648
0
LINE
8
layer0
10
32.2804277
20
-10.2435648
11
32.2451185
21
-10.4191182
0
LINE
8
layer0
10
32.2451185
20
-10.4191182
11
32.1987747
21
-10.6081511
0
LINE
8
layer0
10
32.1987747
20
-10.6081511
11
32.1467603
21
-10.788468
0
ARC
8
layer0
10
29.9999974
20
0.000017
40
11
50
276.7459132
51
281.2540859
0
LINE
8
layer0
10
31.2921296
20
-10.9238282
11
31.18694
21
-10.76841
0
LINE
8
layer0
10
31.18694
20
-10.76841
11
31.08445
21
-10.60295
0
LINE
8
layer0
10
31.08445
20
-10.60295
11
30.99662
21
-10.4469
0
LINE
8
layer0
10
30.99662
20
-10.4469
11
30.92365
21
-10.30351
0
LINE
8
layer0
10
30.92365
20
-10.30351
11
30.86349
21
-10.17194
0
LINE
8
layer0
10
30.86349
20
-10.17194
11
30.81548
21
-10.0541
0
LINE
8
layer0
10
30.81548
20
-10.0541
11
30.77826
21
-9.95059
0
LINE
8
layer0
10
30.77826
20
-9.95059
11
30.7505
21
-9.86191
0
LINE
8
layer0
10
30.7505
20
-9.86191
11
30.71785
21
-9.73046
0
LINE
8
layer0
10
30.71785
20
-9.73046
11
30.71041
21
-9.68924
0
LINE
8
layer0
10
30.71041
20
-9.68924
11
30.71444
21
-9.55068
0
LINE
8
layer0
10
30.71444
20
-9.55068
11
30.70915
21
-9.40397
0
LINE
8
layer0
10
30.70915
20
-9.40397
11
30.69353
21
-9.27465
0
LINE
8
layer0
10
30.69353
20
-9.27465
11
30.66905
21
-9.1633
0
LINE
8
layer0
10
30.66905
20
-9.1633
11
30.63718
21
-9.0704
0
LINE
8
layer0
10
30.63718
20
-9.0704
11
30.61894
21
-9.03099
0
LINE
8
layer0
10
30.61894
20
-9.03099
11
30.59943
21
-8.99634
0
LINE
8
layer0
10
30.59943
20
-8.99634
11
30.57882
21
-8.96647
0
LINE
8
layer0
10
30.57882
20
-8.96647
11
30.55732
21
-8.94142
0
LINE
8
layer0
10
30.55732
20
-8.94142
11
30.53512
21
-8.92121
0
LINE
8
layer0
10
30.53512
20
-8.92121
11
30.51241
21
-8.90585
0
LINE
8
layer0
10
30.51241
20
-8.90585
11
30.48938
21
-8.89536
0
LINE
8
layer0
10
30.48938
20
-8.89536
11
30.46622
21
-8.88974
0
LINE
8
layer0
10
30.46622
20
-8.88974
11
30.44314
21
-8.88899
0
LINE
8
layer0
10
30.44314
20
-8.88899
11
30.11719
21
-8.89926
0
LINE
8
layer0
10
30.11719
20
-8.89926
11
30
21
-8.9
0
LINE
8
layer0
10
30
20
-8.9
11
29.88281
21
-8.89926
0
LINE
8
layer0
10
29.88281
20
-8.89926
11
29.55686
21
-8.88899
0
LINE
8
layer0
10
29.55686
20
-8.88899
11
29.53378
21
-8.88974
0
LINE
8
layer0
10
29.53378
20
-8.88974
11
29.51062
21
-8.89536
0
LINE
8
layer0
10
29.51062
20
-8.89536
11
29.48759
21
-8.90585
0
LINE
8
layer0
10
29.48759
20
-8.90585
11
29.46488
21
-8.92121
0
LINE
8
layer0
10
29.46488
20
-8.92121
11
29.44268
21
-8.94142
0
LINE
8
layer0
10
29.44268
20
-8.94142
11
29.42118
21
-8.96647
0
LINE
8
layer0
10
29.42118
20
-8.96647
11
29.40057
21
-8.99634
0
LINE
8
layer0
10
29.40057
20
-8.99634
11
29.38106
21
-9.03099
0
LINE
8
layer0
10
29.38106
20
-9.03099
11
29.36282
21
-9.0704
0
LINE
8
layer0
10
29.36282
20
-9.0704
11
29.33095
21
-9.1633
0
LINE
8
layer0
10
29.33095
20
-9.1633
11
29.30647
21
-9.27465
0
LINE
8
layer0
10
29.30647
20
-9.27465
11
29.29085
21
-9.40397
0
LINE
8
layer0
10
29.29085
20
-9.40397
11
29.28556
21
-9.55068
0
LINE
8
layer0
10
29.28556
20
-9.55068
11
29.28959
21
-9.68924
0
LINE
8
layer0
10
29.28959
20
-9.68924
11
29.28215
21
-9.73046
0
LINE
8
layer0
10
29.28215
20
-9.73046
11
29.2495
21
-9.86191
0
LINE
8
layer0
10
29.2495
20
-9.86191
11
29.22174
21
-9.95059
0
LINE
8
layer0
10
29.22174
20
-9.95059
11
29.18452
21
-10.0541
0
LINE
8
layer0
10
29.18452
20
-10.0541
11
29.13651
21
-10.17194
0
LINE
8
layer0
10
29.13651
20
-10.17194
11
29.07635
21
-10.30351
0
LINE
8
layer0
10
29.07635
20
-10.30351
11
29.00338
21
-10.4469
0
LINE
8
layer0
10
29.00338
20
-10.4469
11
28.91555
21
-10.60295
0
LINE
8
layer0
10
28.91555
20
-10.60295
11
28.81306
21
-10.76841
0
LINE
8
layer0
10
28.81306
20
-10.76841
11
28.7078704
21
-10.9238282
0
ARC
8
layer0
10
30.0000026
20
0.000017
40
11
50
258.7459141
51
263.2540868
0
LINE
8
layer0
10
27.8532397
20
-10.788468
11
27.8012253
21
-10.6081511
0
LINE
8
layer0
10
27.8012253
20
-10.6081511
11
27.7548815
21
-10.4191182
0
LINE
8
layer0
10
27.7548815
20
-10.4191182
11
27.7195723
21
-10.2435648
0
LINE
8
layer0
10
27.7195723
20
-10.2435648
11
27.6944837
21
-10.0846439
0
LINE
8
layer0
10
27.6944837
20
-10.0846439
11
27.6779255
21
-9.9409229
0
LINE
8
layer0
10
27.6779255
20
-9.9409229
11
27.6686798
21
-9.8140145
0
LINE
8
layer0
10
27.6686798
20
-9.8140145
11
27.6652678
21
-9.704069
0
LINE
8
layer0
10
27.6652678
20
-9.704069
11
27.6662701
21
-9.611151
0
LINE
8
layer0
10
27.6662701
20
-9.611151
11
27.6758384
21
-9.4760452
0
LINE
8
layer0
10
27.6758384
20
-9.4760452
11
27.6815002
21
-9.4345436
0
LINE
8
layer0
10
27.6815002
20
-9.4345436
11
27.7281504
21
-9.3040106
0
LINE
8
layer0
10
27.7281504
20
-9.3040106
11
27.7684552
21
-9.1628463
0
LINE
8
layer0
10
27.7684552
20
-9.1628463
11
27.7935618
21
-9.0350289
0
LINE
8
layer0
10
27.7935618
20
-9.0350289
11
27.8046889
21
-8.921564
0
LINE
8
layer0
10
27.8046889
20
-8.921564
11
27.8030864
21
-8.8233625
0
LINE
8
layer0
10
27.8030864
20
-8.8233625
11
27.7979175
21
-8.7802449
0
LINE
8
layer0
10
27.7979175
20
-8.7802449
11
27.7900699
21
-8.7412618
0
LINE
8
layer0
10
27.7900699
20
-8.7412618
11
27.7796989
21
-8.7064849
0
LINE
8
layer0
10
27.7796989
20
-8.7064849
11
27.7669921
21
-8.6760171
0
LINE
8
layer0
10
27.7669921
20
-8.6760171
11
27.7521239
21
-8.6499361
0
LINE
8
layer0
10
27.7521239
20
-8.6499361
11
27.7352719
21
-8.6283101
0
LINE
8
layer0
10
27.7352719
20
-8.6283101
11
27.7166106
21
-8.6112168
0
LINE
8
layer0
10
27.7166106
20
-8.6112168
11
27.6963208
21
-8.5987151
0
LINE
8
layer0
10
27.6963208
20
-8.5987151
11
27.6746022
21
-8.5908697
0
LINE
8
layer0
10
27.6746022
20
-8.5908697
11
27.3614317
21
-8.4999129
0
LINE
8
layer0
10
27.3614317
20
-8.4999129
11
27.2497488
21
-8.464403
0
LINE
8
layer0
10
27.2497488
20
-8.464403
11
27.1385231
21
-8.4274855
0
LINE
8
layer0
10
27.1385231
20
-8.4274855
11
26.8316998
21
-8.3169941
0
LINE
8
layer0
10
26.8316998
20
-8.3169941
11
26.8095177
21
-8.3105753
0
LINE
8
layer0
10
26.8095177
20
-8.3105753
11
26.7857546
21
-8.3087634
0
LINE
8
layer0
10
26.7857546
20
-8.3087634
11
26.7606101
21
-8.3116233
0
LINE
8
layer0
10
26.7606101
20
-8.3116233
11
26.7342651
21
-8.3192137
0
LINE
8
layer0
10
26.7342651
20
-8.3192137
11
26.7069064
21
-8.3315744
0
LINE
8
layer0
10
26.7069064
20
-8.3315744
11
26.6787179
21
-8.3487545
0
LINE
8
layer0
10
26.6787179
20
-8.3487545
11
26.6498862
21
-8.3707937
0
LINE
8
layer0
10
26.6498862
20
-8.3707937
11
26.6206237
21
-8.3977189
0
LINE
8
layer0
10
26.6206237
20
-8.3977189
11
26.5910981
21
-8.4295636
0
LINE
8
layer0
10
26.5910981
20
-8.4295636
11
26.5320802
21
-8.5080684
0
LINE
8
layer0
10
26.5320802
20
-8.5080684
11
26.4743893
21
-8.6064038
0
LINE
8
layer0
10
26.4743893
20
-8.6064038
11
26.4195717
21
-8.7245675
0
LINE
8
layer0
10
26.4195717
20
-8.7245675
11
26.3692048
21
-8.8624623
0
LINE
8
layer0
10
26.3692048
20
-8.8624623
11
26.3302201
21
-8.9954861
0
LINE
8
layer0
10
26.3302201
20
-8.9954861
11
26.3104066
21
-9.0323895
0
LINE
8
layer0
10
26.3104066
20
-9.0323895
11
26.2387343
21
-9.1473165
0
LINE
8
layer0
10
26.2387343
20
-9.1473165
11
26.1849293
21
-9.2230779
0
LINE
8
layer0
10
26.1849293
20
-9.2230779
11
26.1175447
21
-9.3100201
0
LINE
8
layer0
10
26.1175447
20
-9.3100201
11
26.0354699
21
-9.4072567
0
LINE
8
layer0
10
26.0354699
20
-9.4072567
11
25.937597
21
-9.5137968
0
LINE
8
layer0
10
25.937597
20
-9.5137968
11
25.8238884
21
-9.6276198
0
LINE
8
layer0
10
25.8238884
20
-9.6276198
11
25.692135
21
-9.7488912
0
LINE
8
layer0
10
25.692135
20
-9.7488912
11
25.5435313
21
-9.8745819
0
LINE
8
layer0
10
25.5435313
20
-9.8745819
11
25.3954632
21
-9.989888
0
ARC
8
layer0
10
30.0000076
20
0.0000154
40
11
50
240.7459149
51
245.2540876
0
LINE
8
layer0
10
24.6244897
20
-9.5970574
11
24.630742
21
-9.4094925
0
LINE
8
layer0
10
24.630742
20
-9.4094925
11
24.6450808
21
-9.2153905
0
LINE
8
layer0
10
24.6450808
20
-9.2153905
11
24.6657488
21
-9.0375182
0
LINE
8
layer0
10
24.6657488
20
-9.0375182
11
24.6909973
21
-8.8786225
0
LINE
8
layer0
10
24.6909973
20
-8.8786225
11
24.7196618
21
-8.736819
0
LINE
8
layer0
10
24.7196618
20
-8.736819
11
24.7500855
21
-8.6132649
0
LINE
8
layer0
10
24.7500855
20
-8.6132649
11
24.7808155
21
-8.5076462
0
LINE
8
layer0
10
24.7808155
20
-8.5076462
11
24.810482
21
-8.4195856
0
LINE
8
layer0
10
24.810482
20
-8.4195856
11
24.861332
21
-8.2940491
0
LINE
8
layer0
10
24.861332
20
-8.2940491
11
24.8795414
21
-8.2563283
0
LINE
8
layer0
10
24.8795414
20
-8.2563283
11
24.9642452
21
-8.1465997
0
LINE
8
layer0
10
24.9642452
20
-8.1465997
11
25.0461995
21
-8.0247995
0
LINE
8
layer0
10
25.0461995
20
-8.0247995
11
25.1095751
21
-7.9109962
0
LINE
8
layer0
10
25.1095751
20
-7.9109962
11
25.1552202
21
-7.8065231
0
LINE
8
layer0
10
25.1552202
20
-7.8065231
11
25.1840421
21
-7.7126328
0
LINE
8
layer0
10
25.1840421
20
-7.7126328
11
25.1924502
21
-7.6700282
0
LINE
8
layer0
10
25.1924502
20
-7.6700282
11
25.1970331
21
-7.6305281
0
LINE
8
layer0
10
25.1970331
20
-7.6305281
11
25.1979164
21
-7.5942485
0
LINE
8
layer0
10
25.1979164
20
-7.5942485
11
25.1952465
21
-7.5613452
0
LINE
8
layer0
10
25.1952465
20
-7.5613452
11
25.1891655
21
-7.5319461
0
LINE
8
layer0
10
25.1891655
20
-7.5319461
11
25.1798211
21
-7.506171
0
LINE
8
layer0
10
25.1798211
20
-7.506171
11
25.1673553
21
-7.4841478
0
LINE
8
layer0
10
25.1673553
20
-7.4841478
11
25.1519218
21
-7.465988
0
LINE
8
layer0
10
25.1519218
20
-7.465988
11
25.1336906
21
-7.4518151
0
LINE
8
layer0
10
25.1336906
20
-7.4518151
11
24.8639549
21
-7.2685351
0
LINE
8
layer0
10
24.8639549
20
-7.2685351
11
24.7687113
21
-7.2002512
0
LINE
8
layer0
10
24.7687113
20
-7.2002512
11
24.6743375
21
-7.13077
0
LINE
8
layer0
10
24.6743375
20
-7.13077
11
24.416675
21
-6.9308728
0
LINE
8
layer0
10
24.416675
20
-6.9308728
11
24.397562
21
-6.9179135
0
LINE
8
layer0
10
24.397562
20
-6.9179135
11
24.3755218
21
-6.9088471
0
LINE
8
layer0
10
24.3755218
20
-6.9088471
11
24.3507243
21
-6.903797
0
LINE
8
layer0
10
24.3507243
20
-6.903797
11
24.3233232
21
-6.9028749
0
LINE
8
layer0
10
24.3233232
20
-6.9028749
11
24.2934838
21
-6.9061763
0
LINE
8
layer0
10
24.2934838
20
-6.9061763
11
24.261366
21
-6.9138047
0
LINE
8
layer0
10
24.261366
20
-6.9138047
11
24.227135
21
-6.9258558
0
LINE
8
layer0
10
24.227135
20
-6.9258558
11
24.1909843
21
-6.9424206
0
LINE
8
layer0
10
24.1909843
20
-6.9424206
11
24.1530632
21
-6.9635827
0
LINE
8
layer0
10
24.1530632
20
-6.9635827
11
24.0726746
21
-7.0200077
0
LINE
8
layer0
10
24.0726746
20
-7.0200077
11
23.98742
21
-7.0957028
0
LINE
8
layer0
10
23.98742
20
-7.0957028
11
23.8987707
21
-7.1911436
0
LINE
8
layer0
10
23.8987707
20
-7.1911436
11
23.808257
21
-7.3067251
0
LINE
8
layer0
10
23.808257
20
-7.3067251
11
23.7300739
21
-7.4211913
0
LINE
8
layer0
10
23.7300739
20
-7.4211913
11
23.6998263
21
-7.4501659
0
LINE
8
layer0
10
23.6998263
20
-7.4501659
11
23.5961475
21
-7.53732
0
LINE
8
layer0
10
23.5961475
20
-7.53732
11
23.5215644
21
-7.5927467
0
LINE
8
layer0
10
23.5215644
20
-7.5927467
11
23.4306111
21
-7.6546106
0
LINE
8
layer0
10
23.4306111
20
-7.6546106
11
23.3225056
21
-7.7217256
0
LINE
8
layer0
10
23.3225056
20
-7.7217256
11
23.1965002
21
-7.7928068
0
LINE
8
layer0
10
23.1965002
20
-7.7928068
11
23.0531837
21
-7.8659211
0
LINE
8
layer0
10
23.0531837
20
-7.8659211
11
22.8904039
21
-7.940543
0
LINE
8
layer0
10
22.8904039
20
-7.940543
11
22.7102328
21
-8.0141609
0
LINE
8
layer0
10
22.7102328
20
-8.0141609
11
22.5337801
21
-8.0780679
0
ARC
8
layer0
10
30.0000122
20
0.0000122
40
11
50
222.7459138
51
227.2540862
0
LINE
8
layer0
10
21.9219321
20
-7.4662199
11
21.9858391
21
-7.2897672
0
LINE
8
layer0
10
21.9858391
20
-7.2897672
11
22.059457
21
-7.1095961
0
LINE
8
layer0
10
22.059457
20
-7.1095961
11
22.1340789
21
-6.9468163
0
LINE
8
layer0
10
22.1340789
20
-6.9468163
11
22.2071932
21
-6.8034998
0
LINE
8
layer0
10
22.2071932
20
-6.8034998
11
22.2782744
21
-6.6774944
0
LINE
8
layer0
10
22.2782744
20
-6.6774944
11
22.3453894
21
-6.5693889
0
LINE
8
layer0
10
22.3453894
20
-6.5693889
11
22.4072533
21
-6.4784356
0
LINE
8
layer0
10
22.4072533
20
-6.4784356
11
22.46268
21
-6.4038525
0
LINE
8
layer0
10
22.46268
20
-6.4038525
11
22.5498341
21
-6.3001737
0
LINE
8
layer0
10
22.5498341
20
-6.3001737
11
22.5788087
21
-6.2699261
0
LINE
8
layer0
10
22.5788087
20
-6.2699261
11
22.6932749
21
-6.191743
0
LINE
8
layer0
10
22.6932749
20
-6.191743
11
22.8088564
21
-6.1012293
0
LINE
8
layer0
10
22.8088564
20
-6.1012293
11
22.9042972
21
-6.01258
0
LINE
8
layer0
10
22.9042972
20
-6.01258
11
22.9799923
21
-5.9273254
0
LINE
8
layer0
10
22.9799923
20
-5.9273254
11
23.0364173
21
-5.8469368
0
LINE
8
layer0
10
23.0364173
20
-5.8469368
11
23.0575794
21
-5.8090157
0
LINE
8
layer0
10
23.0575794
20
-5.8090157
11
23.0741442
21
-5.772865
0
LINE
8
layer0
10
23.0741442
20
-5.772865
11
23.0861953
21
-5.738634
0
LINE
8
layer0
10
23.0861953
20
-5.738634
11
23.0938237
21
-5.7065162
0
LINE
8
layer0
10
23.0938237
20
-5.7065162
11
23.0971251
21
-5.6766768
0
LINE
8
layer0
10
23.0971251
20
-5.6766768
11
23.096203
21
-5.6492757
0
LINE
8
layer0
10
23.096203
20
-5.6492757
11
23.0911529
21
-5.6244782
0
LINE
8
layer0
10
23.0911529
20
-5.6244782
11
23.0820865
21
-5.602438
0
LINE
8
layer0
10
23.0820865
20
-5.602438
11
23.0691272
21
-5.583325
0
LINE
8
layer0
10
23.0691272
20
-5.583325
11
22.86923
21
-5.3256625
0
LINE
8
layer0
10
22.86923
20
-5.3256625
11
22.7997488
21
-5.2312887
0
LINE
8
layer0
10
22.7997488
20
-5.2312887
11
22.7314649
21
-5.1360451
0
LINE
8
layer0
10
22.7314649
20
-5.1360451
11
22.5481849
21
-4.8663094
0
LINE
8
layer0
10
22.5481849
20
-4.8663094
11
22.534012
21
-4.8480782
0
LINE
8
layer0
10
22.534012
20
-4.8480782
11
22.5158522
21
-4.8326447
0
LINE
8
layer0
10
22.5158522
20
-4.8326447
11
22.493829
21
-4.8201789
0
LINE
8
layer0
10
22.493829
20
-4.8201789
11
22.4680539
21
-4.8108345
0
LINE
8
layer0
10
22.4680539
20
-4.8108345
11
22.4386548
21
-4.8047535
0
LINE
8
layer0
10
22.4386548
20
-4.8047535
11
22.4057515
21
-4.8020836
0
LINE
8
layer0
10
22.4057515
20
-4.8020836
11
22.3694719
21
-4.8029669
0
LINE
8
layer0
10
22.3694719
20
-4.8029669
11
22.3299718
21
-4.8075498
0
LINE
8
layer0
10
22.3299718
20
-4.8075498
11
22.2873672
21
-4.8159579
0
LINE
8
layer0
10
22.2873672
20
-4.8159579
11
22.1934769
21
-4.8447798
0
LINE
8
layer0
10
22.1934769
20
-4.8447798
11
22.0890038
21
-4.8904249
0
LINE
8
layer0
10
22.0890038
20
-4.8904249
11
21.9752005
21
-4.9538005
0
LINE
8
layer0
10
21.9752005
20
-4.9538005
11
21.8534003
21
-5.0357548
0
LINE
8
layer0
10
21.8534003
20
-5.0357548
11
21.7436717
21
-5.1204586
0
LINE
8
layer0
10
21.7436717
20
-5.1204586
11
21.7059509
21
-5.138668
0
LINE
8
layer0
10
21.7059509
20
-5.138668
11
21.5804144
21
-5.189518
0
LINE
8
layer0
10
21.5804144
20
-5.189518
11
21.4923538
21
-5.2191845
0
LINE
8
layer0
10
21.4923538
20
-5.2191845
11
21.3867351
21
-5.2499145
0
LINE
8
layer0
10
21.3867351
20
-5.2499145
11
21.263181
21
-5.2803382
0
LINE
8
layer0
10
21.263181
20
-5.2803382
11
21.1213775
21
-5.3090027
0
LINE
8
layer0
10
21.1213775
20
-5.3090027
11
20.9624818
21
-5.3342512
0
LINE
8
layer0
10
20.9624818
20
-5.3342512
11
20.7846095
21
-5.3549192
0
LINE
8
layer0
10
20.7846095
20
-5.3549192
11
20.5905075
21
-5.369258
0
LINE
8
layer0
10
20.5905075
20
-5.369258
11
20.4029426
21
-5.3755103
0
ARC
8
layer0
10
30.0000154
20
0.0000077
40
11
50
204.7459128
51
209.2540855
0
LINE
8
layer0
10
20.010112
20
-4.6045368
11
20.1254181
21
-4.4564687
0
LINE
8
layer1
10
20.1254181
20
-4.4564687
11
20.2511088
21
-4.307865
0
LINE
8
layer1
10
20.2511088
20
-4.307865
11
20.3723802
21
-4.1761116
0
LINE
8
layer1
10
20.3723802
20
-4.1761116
11
20.4862032
21
-4.062403
0
LINE
8
layer1
10
20.4862032
20
-4.062403
11
20.5927433
21
-3.9645301
0
LINE
8
layer1
10
20.5927433
20
-3.9645301
11
20.6899799
21
-3.8824553
0
LINE
8
layer1
10
20.6899799
20
-3.8824553
11
20.7769221
21
-3.8150707
0
LINE
8
layer1
10
20.7769221
20
-3.8150707
11
20.8526835
21
-3.7612657
0
LINE
8
layer1
10
20.8526835
20
-3.7612657
11
20.9676105
21
-3.6895934
0
LINE
8
layer1
10
20.9676105
20
-3.6895934
11
21.0045139
21
-3.6697799
0
LINE
8
layer1
10
21.0045139
20
-3.6697799
11
21.1375377
21
-3.6307952
0
LINE
8
layer1
10
21.1375377
20
-3.6307952
11
21.2754325
21
-3.5804283
0
LINE
8
layer1
10
21.2754325
20
-3.5804283
11
21.3935962
21
-3.5256107
0
LINE
8
layer1
10
21.3935962
20
-3.5256107
11
21.4919316
21
-3.4679198
0
LINE
8
layer1
10
21.4919316
20
-3.4679198
11
21.5704364
21
-3.4089019
0
LINE
8
layer1
10
21.5704364
20
-3.4089019
11
21.6022811
21
-3.3793763
0
LINE
8
layer1
10
21.6022811
20
-3.3793763
11
21.6292063
21
-3.3501138
0
LINE
8
layer1
10
21.6292063
20
-3.3501138
11
21.6512455
21
-3.3212821
0
LINE
8
layer1
10
21.6512455
20
-3.3212821
11
21.6684256
21
-3.2930936
0
LINE
8
layer1
10
21.6684256
20
-3.2930936
11
21.6807863
21
-3.2657349
0
LINE
8
layer1
10
21.6807863
20
-3.2657349
11
21.6883767
21
-3.2393899
0
LINE
8
layer1
10
21.6883767
20
-3.2393899
11
21.6912366
21
-3.2142454
0
LINE
8
layer1
10
21.6912366
20
-3.2142454
11
21.6894247
21
-3.1904823
0
LINE
8
layer1
10
21.6894247
20
-3.1904823
11
21.6830059
21
-3.1683002
0
LINE
8
layer1
10
21.6830059
20
-3.1683002
11
21.5725145
21
-2.8614769
0
LINE
8
layer1
10
21.5725145
20
-2.8614769
11
21.535597
21
-2.7502512
0
LINE
8
layer1
10
21.535597
20
-2.7502512
11
21.5000871
21
-2.6385683
0
LINE
8
layer1
10
21.5000871
20
-2.6385683
11
21.4091303
21
-2.3253978
0
LINE
8
layer1
10
21.4091303
20
-2.3253978
11
21.4012849
21
-2.3036792
0
LINE
8
layer1
10
21.4012849
20
-2.3036792
11
21.3887832
21
-2.2833894
0
LINE
8
layer1
10
21.3887832
20
-2.2833894
11
21.3716899
21
-2.2647281
0
LINE
8
layer1
10
21.3716899
20
-2.2647281
11
21.3500639
21
-2.2478761
0
LINE
8
layer1
10
21.3500639
20
-2.2478761
11
21.3239829
21
-2.2330079
0
LINE
8
layer1
10
21.3239829
20
-2.2330079
11
21.2935151
21
-2.2203011
0
LINE
8
layer1
10
21.2935151
20
-2.2203011
11
21.2587382
21
-2.2099301
0
LINE
8
layer1
10
21.2587382
20
-2.2099301
11
21.2197551
21
-2.2020825
0
LINE
8
layer1
10
21.2197551
20
-2.2020825
11
21.1766375
21
-2.1969136
0
LINE
8
layer1
10
21.1766375
20
-2.1969136
11
21.078436
21
-2.1953111
0
LINE
8
layer1
10
21.078436
20
-2.1953111
11
20.9649711
21
-2.2064382
0
LINE
8
layer1
10
20.9649711
20
-2.2064382
11
20.8371537
21
-2.2315448
0
LINE
8
layer1
10
20.8371537
20
-2.2315448
11
20.6959894
21
-2.2718496
0
LINE
8
layer1
10
20.6959894
20
-2.2718496
11
20.5654564
21
-2.3184998
0
LINE
8
layer1
10
20.5654564
20
-2.3184998
11
20.5239548
21
-2.3241616
0
LINE
8
layer1
10
20.5239548
20
-2.3241616
11
20.388849
21
-2.3337299
0
LINE
8
layer1
10
20.388849
20
-2.3337299
11
20.295931
21
-2.3347322
0
LINE
8
layer1
10
20.295931
20
-2.3347322
11
20.1859855
21
-2.3313202
0
LINE
8
layer1
10
20.1859855
20
-2.3313202
11
20.0590771
21
-2.3220745
0
LINE
8
layer1
10
20.0590771
20
-2.3220745
11
19.9153561
21
-2.3055163
0
LINE
8
layer1
10
19.9153561
20
-2.3055163
11
19.7564352
21
-2.2804277
0
LINE
8
layer1
10
19.7564352
20
-2.2804277
11
19.5808818
21
-2.2451185
0
LINE
8
layer1
10
19.5808818
20
-2.2451185
11
19.3918489
21
-2.1987747
0
LINE
8
layer1
10
19.3918489
20
-2.1987747
11
19.211532
21
-2.1467603
0
ARC
8
layer1
10
30.000017
20
0.0000026
40
11
50
186.7459132
51
191.2540859
0
LINE
8
layer1
10
19.0761718
20
-1.2921296
11
19.23159
21
-1.18694
0
LINE
8
layer1
10
19.23159
20
-1.18694
11
19.39705
21
-1.08445
0
LINE
8
layer1
10
19.39705
20
-1.08445
11
19.5531
21
-0.99662
0
LINE
8
layer1
10
19.5531
20
-0.99662
11
19.69649
21
-0.92365
0
LINE
8
layer1
10
19.69649
20
-0.92365
11
19.82806
21
-0.86349
0
LINE
8
layer1
10
19.82806
20
-0.86349
11
19.9459
21
-0.81548
0
LINE
8
layer1
10
19.9459
20
-0.81548
11
20.04941
21
-0.77826
0
LINE
8
layer1
10
20.04941
20
-0.77826
11
20.13809
21
-0.7505
0
LINE
8
layer1
10
20.13809
20
-0.7505
11
20.26954
21
-0.71785
0
LINE
8
layer1
10
20.26954
20
-0.71785
11
20.31076
21
-0.71041
0
LINE
8
layer1
10
20.31076
20
-0.71041
11
20.44932
21
-0.71444
0
LINE
8
layer1
10
20.44932
20
-0.71444
11
20.59603
21
-0.70915
0
LINE
8
layer1
10
20.59603
20
-0.70915
11
20.72535
21
-0.69353
0
LINE
8
layer1
10
20.72535
20
-0.69353
11
20.8367
21
-0.66905
0
LINE
8
layer1
10
20.8367
20
-0.66905
11
20.9296
21
-0.63718
0
LINE
8
layer1
10
20.9296
20
-0.63718
11
20.96901
21
-0.61894
0
LINE
8
layer1
10
20.96901
20
-0.61894
11
21.00366
21
-0.59943
0
LINE
8
layer1
10
21.00366
20
-0.59943
11
21.03353
21
-0.57882
0
LINE
8
layer1
10
21.03353
20
-0.57882
11
21.05858
21
-0.55732
0
LINE
8
layer1
10
21.05858
20
-0.55732
11
21.07879
21
-0.53512
0
LINE
8
layer1
10
21.07879
20
-0.53512
11
21.09415
21
-0.51241
0
LINE
8
layer1
10
21.09415
20
-0.51241
11
21.10464
21
-0.48938
0
LINE
8
layer1
10
21.10464
20
-0.48938
11
21.11026
21
-0.46622
0
LINE
8
layer1
10
21.11026
20
-0.46622
11
21.11101
21
-0.44314
0
LINE
8
layer1
10
21.11101
20
-0.44314
11
21.10074
21
-0.11719
0
LINE
8
layer1
10
21.10074
20
-0.11719
11
21.1
21
0
0
LINE
8
layer1
10
21.1
20
0
11
21.10074
21
0.11719
0
LINE
8
layer1
10
21.10074
20
0.11719
11
21.11101
21
0.44314
0
LINE
8
layer1
10
21.11101
20
0.44314
11
21.11026
21
0.46622
0
LINE
8
layer1
10
21.11026
20
0.46622
11
21.10464
21
0.48938
0
LINE
8
layer1
10
21.10464
20
0.48938
11
21.09415
21
0.51241
0
LINE
8
layer1
10
21.09415
20
0.51241
11
21.07879
21
0.53512
0
LINE
8
layer1
10
21.07879
20
0.53512
11
21.05858
21
0.55732
0
LINE
8
layer1
10
21.05858
20
0.55732
11
21.03353
21
0.57882
0
LINE
8
layer1
10
21.03353
20
0.57882
11
21.00366
21
0.59943
0
LINE
8
layer1
10
21.00366
20
0.59943
11
20.96901
21
0.61894
0
LINE
8
layer1
10
20.96901
20
0.61894
11
20.9296
21
0.63718
0
LINE
8
layer1
10
20.9296
20
0.63718
11
20.8367
21
0.66905
0
LINE
8
layer1
10
20.8367
20
0.66905
11
20.72535
21
0.69353
0
LINE
8
layer1
10
20.72535
20
0.69353
11
20.59603
21
0.70915
0
LINE
8
layer1
10
20.59603
20
0.70915
11
20.44932
21
0.71444
0
LINE
8
layer1
10
20.44932
20
0.71444
11
20.31076
21
0.71041
0
LINE
8
layer1
10
20.31076
20
0.71041
11
20.26954
21
0.71785
0
LINE
8
layer1
10
20.26954
20
0.71785
11
20.13809
21
0.7505
0
LINE
8
layer1
10
20.13809
20
0.7505
11
20.04941
21
0.77826
0
LINE
8
layer1
10
20.04941
20
0.77826
11
19.9459
21
0.81548
0
LINE
8
layer1
10
19.9459
20
0.81548
11
19.82806
21
0.86349
0
LINE
8
layer1
10
19.82806
20
0.86349
11
19.69649
21
0.92365
0
LINE
8
layer1
10
19.69649
20
0.92365
11
19.5531
21
0.99662
0
LINE
8
layer1
10
19.5531
20
0.99662
11
19.39705
21
1.08445
0
LINE
8
layer1
10
19.39705
20
1.08445
11
19.23159
21
1.18694
0
LINE
8
layer1
10
19.23159
20
1.18694
11
19.0761718
21
1.2921296
0
ARC
8
layer1
10
30.000017
20
-0.0000026
40
11
50
168.7459141
51
173.2540868
0
LINE
8
layer1
10
19.211532
20
2.1467603
11
19.3918489
21
2.1987747
0
LINE
8
layer1
10
19.3918489
20
2.1987747
11
19.5808818
21
2.2451185
0
LINE
8
layer1
10
19.5808818
20
2.2451185
11
19.7564352
21
2.2804277
0
LINE
8
layer1
10
19.7564352
20
2.2804277
11
19.9153561
21
2.3055163
0
LINE
8
layer1
10
19.9153561
20
2.3055163
11
20.0590771
21
2.3220745
0
LINE
8
layer1
10
20.0590771
20
2.3220745
11
20.1859855
21
2.3313202
0
LINE
8
layer1
10
20.1859855
20
2.3313202
11
20.295931
21
2.3347322
0
LINE
8
layer1
10
20.295931
20
2.3347322
11
20.388849
21
2.3337299
0
LINE
8
layer1
10
20.388849
20
2.3337299
11
20.5239548
21
2.3241616
0
LINE
8
layer1
10
20.5239548
20
2.3241616
11
20.5654564
21
2.3184998
0
LINE
8
layer1
10
20.5654564
20
2.3184998
11
20.6959894
21
2.2718496
0
LINE
8
layer1
10
20.6959894
20
2.2718496
11
20.8371537
21
2.2315448
0
LINE
8
layer1
10
20.8371537
20
2.2315448
11
20.9649711
21
2.2064382
0
LINE
8
layer1
10
20.9649711
20
2.2064382
11
21.078436
21
2.1953111
0
LINE
8
layer1
10
21.078436
20
2.1953111
11
21.1766375
21
2.1969136
0
LINE
8
layer1
10
21.1766375
20
2.1969136
11
21.2197551
21
2.2020825
0
LINE
8
layer1
10
21.2197551
20
2.2020825
11
21.2587382
21
2.2099301
0
LINE
8
layer1
10
21.2587382
20
2.2099301
11
21.2935151
21
2.2203011
0
LINE
8
layer1
10
21.2935151
20
2.2203011
11
21.3239829
21
2.2330079
0
LINE
8
layer1
10
21.3239829
20
2.2330079
11
21.3500639
21
2.2478761
0
LINE
8
layer1
10
21.3500639
20
2.2478761
11
21.3716899
21
2.2647281
0
LINE
8
layer1
10
21.3716899
20
2.2647281
11
21.3887832
21
2.2833894
0
LINE
8
layer1
10
21.3887832
20
2.2833894
11
21.4012849
21
2.3036792
0
LINE
8
layer1
10
21.4012849
20
2.3036792
11
21.4091303
21
2.3253978
0
LINE
8
layer1
10
21.4091303
20
2.3253978
11
21.5000871
21
2.6385683
0
LINE
8
layer1
10
21.5000871
20
2.6385683
11
21.535597
21
2.7502512
0
LINE
8
layer1
10
21.535597
20
2.7502512
11
21.5725145
21
2.8614769
0
LINE
8
layer1
10
21.5725145
20
2.8614769
11
21.6830059
21
3.1683002
0
LINE
8
layer1
10
21.6830059
20
3.1683002
11
21.6894247
21
3.1904823
0
LINE
8
layer1
10
21.6894247
20
3.1904823
11
21.6912366
21
3.2142454
0
LINE
8
layer1
10
21.6912366
20
3.2142454
11
21.6883767
21
3.2393899
0
LINE
8
layer1
10
21.6883767
20
3.2393899
11
21.6807863
21
3.2657349
0
LINE
8
layer1
10
21.6807863
20
3.2657349
11
21.6684256
21
3.2930936
0
LINE
8
layer1
10
21.6684256
20
3.2930936
11
21.6512455
21
3.3212821
0
LINE
8
layer1
10
21.6512455
20
3.3212821
11
21.6292063
21
3.3501138
0
LINE
8
layer1
10
21.6292063
20
3.3501138
11
21.6022811
21
3.3793763
0
LINE
8
layer1
10
21.6022811
20
3.3793763
11
21.5704364
21
3.4089019
0
LINE
8
layer1
10
21.5704364
20
3.4089019
11
21.4919316
21
3.4679198
0
LINE
8
layer1
10
21.4919316
20
3.4679198
11
21.3935962
21
3.5256107
0
LINE
8
layer1
10
21.3935962
20
3.5256107
11
21.2754325
21
3.5804283
0
LINE
8
layer1
10
21.2754325
20
3.5804283
11
21.1375377
21
3.6307952
0
LINE
8
layer1
10
21.1375377
20
3.6307952
11
21.0045139
21
3.6697799
0
LINE
8
layer1
10
21.0045139
20
3.6697799
11
20.9676105
21
3.6895934
0
LINE
8
layer1
10
20.9676105
20
3.6895934
11
20.8526835
21
3.7612657
0
LINE
8
layer1
10
20.8526835
20
3.7612657
11
20.7769221
21
3.8150707
0
LINE
8
layer1
10
20.7769221
20
3.8150707
11
20.6899799
21
3.8824553
0
LINE
8
layer1
10
20.6899799
20
3.8824553
11
20.5927433
21
3.9645301
0
LINE
8
layer1
10
20.5927433
20
3.9645301
11
20.4862032
21
4.062403
0
LINE
8
layer1
10
20.4862032
20
4.062403
11
20.3723802
21
4.1761116
0
LINE
8
layer1
10
20.3723802
20
4.1761116
11
20.2511088
21
4.307865
0
LINE
8
layer1
10
20.2511088
20
4.307865
11
20.1254181
21
4.4564687
0
LINE
8
layer1
10
20.1254181
20
4.4564687
11
20.010112
21
4.6045368
0
ARC
8
layer1
10
30.0000154
20
-0.0000076
40
11
50
150.7459149
51
155.2540876
0
LINE
8
layer1
10
20.4029426
20
5.3755103
11
20.5905075
21
5.369258
0
LINE
8
layer1
10
20.5905075
20
5.369258
11
20.7846095
21
5.3549192
0
LINE
8
layer1
10
20.7846095
20
5.3549192
11
20.9624818
21
5.3342512
0
LINE
8
layer1
10
20.9624818
20
5.3342512
11
21.1213775
21
5.3090027
0
LINE
8
layer1
10
21.1213775
20
5.3090027
11
21.263181
21
5.2803382
0
LINE
8
layer1
10
21.263181
20
5.2803382
11
21.3867351
21
5.2499145
0
LINE
8
layer1
10
21.3867351
20
5.2499145
11
21.4923538
21
5.2191845
0
LINE
8
layer1
10
21.4923538
20
5.2191845
11
21.5804144
21
5.189518
0
LINE
8
layer1
10
21.5804144
20
5.189518
11
21.7059509
21
5.138668
0
LINE
8
layer1
10
21.7059509
20
5.138668
11
21.7436717
21
5.1204586
0
LINE
8
layer1
10
21.7436717
20
5.1204586
11
21.8534003
21
5.0357548
0
LINE
8
layer1
10
21.8534003
20
5.0357548
11
21.9752005
21
4.9538005
0
LINE
8
layer1
10
21.9752005
20
4.9538005
11
22.0890038
21
4.8904249
0
LINE
8
layer1
10
22.0890038
20
4.8904249
11
22.1934769
21
4.8447798
0
LINE
8
layer1
10
22.1934769
20
4.8447798
11
22.2873672
21
4.8159579
0
LINE
8
layer1
10
22.2873672
20
4.8159579
11
22.3299718
21
4.8075498
0
LINE
8
layer1
10
22.3299718
20
4.8075498
11
22.3694719
21
4.8029669
0
LINE
8
layer1
10
22.3694719
20
4.8029669
11
22.4057515
21
4.8020836
0
LINE
8
layer1
10
22.4057515
20
4.8020836
11
22.4386548
21
4.8047535
0
LINE
8
layer1
10
22.4386548
20
4.8047535
11
22.4680539
21
4.8108345
0
LINE
8
layer1
10
22.4680539
20
4.8108345
11
22.493829
21
4.8201789
0
LINE
8
layer1
10
22.493829
20
4.8201789
11
22.5158522
21
4.8326447
0
LINE
8
layer1
10
22.5158522
20
4.8326447
11
22.534012
21
4.8480782
0
LINE
8
layer1
10
22.534012
20
4.8480782
11
22.5481849
21
4.8663094
0
LINE
8
layer1
10
22.5481849
20
4.8663094
11
22.7314649
21
5.1360451
0
LINE
8
layer1
10
22.7314649
20
5.1360451
11
22.7997488
21
5.2312887
0
LINE
8
layer1
10
22.7997488
20
5.2312887
11
22.86923
21
5.3256625
0
LINE
8
layer1
10
22.86923
20
5.3256625
11
23.0691272
21
5.583325
0
LINE
8
layer1
10
23.0691272
20
5.583325
11
23.0820865
21
5.602438
0
LINE
8
layer1
10
23.0820865
20
5.602438
11
23.0911529
21
5.6244782
0
LINE
8
layer1
10
23.0911529
20
5.6244782
11
23.096203
21
5.6492757
0
LINE
8
layer1
10
23.096203
20
5.6492757
11
23.0971251
21
5.6766768
0
LINE
8
layer1
10
23.0971251
20
5.6766768
11
23.0938237
21
5.7065162
0
LINE
8
layer1
10
23.0938237
20
5.7065162
11
23.0861953
21
5.738634
0
LINE
8
layer1
10
23.0861953
20
5.738634
11
23.0741442
21
5.772865
0
LINE
8
layer1
10
23.0741442
20
5.772865
11
23.0575794
21
5.8090157
0
LINE
8
layer1
10
23.0575794
20
5.8090157
11
23.0364173
21
5.8469368
0
LINE
8
layer1
10
23.0364173
20
5.8469368
11
22.9799923
21
5.9273254
0
LINE
8
layer1
10
22.9799923
20
5.9273254
11
22.9042972
21
6.01258
0
LINE
8
layer1
10
22.9042972
20
6.01258
11
22.8088564
21
6.1012293
0
LINE
8
layer1
10
22.8088564
20
6.1012293
11
22.6932749
21
6.191743
0
LINE
8
layer1
10
22.6932749
20
6.191743
11
22.5788087
21
6.2699261
0
LINE
8
layer1
10
22.5788087
20
6.2699261
11
22.5498341
21
6.3001737
0
LINE
8
layer1
10
22.5498341
20
6.3001737
11
22.46268
21
6.4038525
0
LINE
8
layer1
10
22.46268
20
6.4038525
11
22.4072533
21
6.4784356
0
LINE
8
layer1
10
22.4072533
20
6.4784356
11
22.3453894
21
6.5693889
0
LINE
8
layer1
10
22.3453894
20
6.5693889
11
22.2782744
21
6.6774944
0
LINE
8
layer1
10
22.2782744
20
6.6774944
11
22.2071932
21
6.8034998
0
LINE
8
layer1
10
22.2071932
20
6.8034998
11
22.1340789
21
6.9468163
0
LINE
8
layer1
10
22.1340789
20
6.9468163
11
22.059457
21
7.1095961
0
LINE
8
layer1
10
22.059457
20
7.1095961
11
21.9858391
21
7.2897672
0
LINE
8
layer1
10
21.9858391
20
7.2897672
11
21.9219321
21
7.4662199
0
ARC
8
layer1
10
30.0000122
20
-0.0000122
40
11
50
132.7459138
51
137.2540862
0
LINE
8
layer1
10
22.5337801
20
8.0780679
11
22.7102328
21
8.0141609
0
LINE
8
layer1
10
22.7102328
20
8.0141609
11
22.8904039
21
7.940543
0
LINE
8
layer1
10
22.8904039
20
7.940543
11
23.0531837
21
7.8659211
0
LINE
8
layer1
10
23.0531837
20
7.8659211
11
23.1965002
21
7.7928068
0
LINE
8
layer1
10
23.1965002
20
7.7928068
11
23.3225056
21
7.7217256
0
LINE
8
layer1
10
23.3225056
20
7.7217256
11
23.4306111
21
7.6546106
0
LINE
8
layer1
10
23.4306111
20
7.6546106
11
23.5215644
21
7.5927467
0
LINE
8
layer1
10
23.5215644
20
7.5927467
11
23.5961475
21
7.53732
0
LINE
8
layer1
10
23.5961475
20
7.53732
11
23.6998263
21
7.4501659
0
LINE
8
layer1
10
23.6998263
20
7.4501659
11
23.7300739
21
7.4211913
0
LINE
8
layer1
10
23.7300739
20
7.4211913
11
23.808257
21
7.3067251
0
LINE
8
layer1
10
23.808257
20
7.3067251
11
23.8987707
21
7.1911436
0
LINE
8
layer1
10
23.8987707
20
7.1911436
11
23.98742
21
7.0957028
0
LINE
8
layer1
10
23.98742
20
7.0957028
11
24.0726746
21
7.0200077
0
LINE
8
layer1
10
24.0726746
20
7.0200077
11
24.1530632
21
6.9635827
0
LINE
8
layer1
10
24.1530632
20
6.9635827
11
24.1909843
21
6.9424206
0
LINE
8
layer1
10
24.1909843
20
6.9424206
11
24.227135
21
6.9258558
0
LINE
8
layer1
10
24.227135
20
6.9258558
11
24.261366
21
6.9138047
0
LINE
8
layer1
10
24.261366
20
6.9138047
11
24.2934838
21
6.9061763
0
LINE
8
layer1
10
24.2934838
20
6.9061763
11
24.3233232
21
6.9028749
0
LINE
8
layer1
10
24.3233232
20
6.9028749
11
24.3507243
21
6.903797
0
LINE
8
layer1
10
24.3507243
20
6.903797
11
24.3755218
21
6.9088471
0
LINE
8
layer1
10
24.3755218
20
6.9088471
11
24.397562
21
6.9179135
0
LINE
8
layer1
10
24.397562
20
6.9179135
11
24.416675
21
6.9308728
0
LINE
8
layer1
10
24.416675
20
6.9308728
11
24.6743375
21
7.13077
0
LINE
8
layer1
10
24.6743375
20
7.13077
11
24.7687113
21
7.2002512
0
LINE
8
layer1
10
24.7687113
20
7.2002512
11
24.8639549
21
7.2685351
0
LINE
8
layer1
10
24.8639549
20
7.2685351
11
25.1336906
21
7.4518151
0
LINE
8
layer1
10
25.1336906
20
7.4518151
11
25.1519218
21
7.465988
0
LINE
8
layer1
10
25.1519218
20
7.465988
11
25.1673553
21
7.4841478
0
LINE
8
layer1
10
25.1673553
20
7.4841478
11
25.1798211
21
7.506171
0
LINE
8
layer1
10
25.1798211
20
7.506171
11
25.1891655
21
7.5319461
0
LINE
8
layer1
10
25.1891655
20
7.5319461
11
25.1952465
21
7.5613452
0
LINE
8
layer1
10
25.1952465
20
7.5613452
11
25.1979164
21
7.5942485
0
LINE
8
layer1
10
25.1979164
20
7.5942485
11
25.1970331
21
7.6305281
0
LINE
8
layer1
10
25.1970331
20
7.6305281
11
25.1924502
21
7.6700282
0
LINE
8
layer1
10
25.1924502
20
7.6700282
11
25.1840421
21
7.7126328
0
LINE
8
layer1
10
25.1840421
20
7.7126328
11
25.1552202
21
7.8065231
0
LINE
8
layer1
10
25.1552202
20
7.8065231
11
25.1095751
21
7.9109962
0
LINE
8
layer1
10
25.1095751
20
7.9109962
11
25.0461995
21
8.0247995
0
LINE
8
layer1
10
25.0461995
20
8.0247995
11
24.9642452
21
8.1465997
0
LINE
8
layer1
10
24.9642452
20
8.1465997
11
24.8795414
21
8.2563283
0
LINE
8
layer1
10
24.8795414
20
8.2563283
11
24.861332
21
8.2940491
0
LINE
8
layer1
10
24.861332
20
8.2940491
11
24.810482
21
8.4195856
0
LINE
8
layer1
10
24.810482
20
8.4195856
11
24.7808155
21
8.5076462
0
LINE
8
layer1
10
24.7808155
20
8.5076462
11
24.7500855
21
8.6132649
0
LINE
8
layer1
10
24.7500855
20
8.6132649
11
24.7196618
21
8.736819
0
LINE
8
layer1
10
24.7196618
20
8.736819
11
24.6909973
21
8.8786225
0
LINE
8
layer1
10
24.6909973
20
8.8786225
11
24.6657488
21
9.0375182
0
LINE
8
layer1
10
24.6657488
20
9.0375182
11
24.6450808
21
9.2153905
0
LINE
8
layer1
10
24.6450808
20
9.2153905
11
24.630742
21
9.4094925
0
LINE
8
layer1
10
24.630742
20
9.4094925
11
24.6244897
21
9.5970574
0
ARC
8
layer1
10
30.0000077
20
-0.0000154
40
11
50
114.7459128
51
119.2540855
0
LINE
8
layer1
10
25.3954632
20
9.989888
11
25.5435313
21
9.8745819
0
LINE
8
layer1
10
25.5435313
20
9.8745819
11
25.692135
21
9.7488912
0
LINE
8
layer1
10
25.692135
20
9.7488912
11
25.8238884
21
9.6276198
0
LINE
8
layer1
10
25.8238884
20
9.6276198
11
25.937597
21
9.5137968
0
LINE
8
layer1
10
25.937597
20
9.5137968
11
26.0354699
21
9.4072567
0
LINE
8
layer1
10
26.0354699
20
9.4072567
11
26.1175447
21
9.3100201
0
LINE
8
layer1
10
26.1175447
20
9.3100201
11
26.1849293
21
9.2230779
0
LINE
8
layer1
10
26.1849293
20
9.2230779
11
26.2387343
21
9.1473165
0
LINE
8
layer1
10
26.2387343
20
9.1473165
11
26.3104066
21
9.0323895
0
LINE
8
layer1
10
26.3104066
20
9.0323895
11
26.3302201
21
8.9954861
0
LINE
8
layer1
10
26.3302201
20
8.9954861
11
26.3692048
21
8.8624623
0
LINE
8
layer1
10
26.3692048
20
8.8624623
11
26.4195717
21
8.7245675
0
LINE
8
layer1
10
26.4195717
20
8.7245675
11
26.4743893
21
8.6064038
0
LINE
8
layer1
10
26.4743893
20
8.6064038
11
26.5320802
21
8.5080684
0
LINE
8
layer1
10
26.5320802
20
8.5080684
11
26.5910981
21
8.4295636
0
LINE
8
layer1
10
26.5910981
20
8.4295636
11
26.6206237
21
8.3977189
0
LINE
8
layer1
10
26.6206237
20
8.3977189
11
26.6498862
21
8.3707937
0
LINE
8
layer1
10
26.6498862
20
8.3707937
11
26.6787179
21
8.3487545
0
LINE
8
layer1
10
26.6787179
20
8.3487545
11
26.7069064
21
8.3315744
0
LINE
8
layer1
10
26.7069064
20
8.3315744
11
26.7342651
21
8.3192137
0
LINE
8
layer1
10
26.7342651
20
8.3192137
11
26.7606101
21
8.3116233
0
LINE
8
layer1
10
26.7606101
20
8.3116233
11
26.7857546
21
8.3087634
0
LINE
8
layer1
10
26.7857546
20
8.3087634
11
26.8095177
21
8.3105753
0
LINE
8
layer1
10
26.8095177
20
8.3105753
11
26.8316998
21
8.3169941
0
LINE
8
layer1
10
26.8316998
20
8.3169941
11
27.1385231
21
8.4274855
0
LINE
8
layer1
10
27.1385231
20
8.4274855
11
27.2497488
21
8.464403
0
LINE
8
layer1
10
27.2497488
20
8.464403
11
27.3614317
21
8.4999129
0
LINE
8
layer1
10
27.3614317
20
8.4999129
11
27.6746022
21
8.5908697
0
LINE
8
layer1
10
27.6746022
20
8.5908697
11
27.6963208
21
8.5987151
0
LINE
8
layer1
10
27.6963208
20
8.5987151
11
27.7166106
21
8.6112168
0
LINE
8
layer1
10
27.7166106
20
8.6112168
11
27.7352719
21
8.6283101
0
LINE
8
layer1
10
27.7352719
20
8.6283101
11
27.7521239
21
8.6499361
0
LINE
8
layer1
10
27.7521239
20
8.6499361
11
27.7669921
21
8.6760171
0
LINE
8
layer1
10
27.7669921
20
8.6760171
11
27.7796989
21
8.7064849
0
LINE
8
layer1
10
27.7796989
20
8.7064849
11
27.7900699
21
8.7412618
0
LINE
8
layer1
10
27.7900699
20
8.7412618
11
27.7979175
21
8.7802449
0
LINE
8
layer1
10
27.7979175
20
8.7802449
11
27.8030864
21
8.8233625
0
LINE
8
layer1
10
27.8030864
20
8.8233625
11
27.8046889
21
8.921564
0
LINE
8
layer1
10
27.8046889
20
8.921564
11
27.7935618
21
9.0350289
0
LINE
8
layer1
10
27.7935618
20
9.0350289
11
27.7684552
21
9.1628463
0
LINE
8
layer1
10
27.7684552
20
9.1628463
11
27.7281504
21
9.3040106
0
LINE
8
layer1
10
27.7281504
20
9.3040106
11
27.6815002
21
9.4345436
0
LINE
8
layer1
10
27.6815002
20
9.4345436
11
27.6758384
21
9.4760452
0
LINE
8
layer1
10
27.6758384
20
9.4760452
11
27.6662701
21
9.611151
0
LINE
8
layer1
10
27.6662701
20
9.611151
11
27.6652678
21
9.704069
0
LINE
8
layer1
10
27.6652678
20
9.704069
11
27.6686798
21
9.8140145
0
LINE
8
layer1
10
27.6686798
20
9.8140145
11
27.6779255
21
9.9409229
0
LINE
8
layer1
10
27.6779255
20
9.9409229
11
27.6944837
21
10.0846439
0
LINE
8
layer1
10
27.6944837
20
10.0846439
11
27.7195723
21
10.2435648
0
LINE
8
layer1
10
27.7195723
20
10.2435648
11
27.7548815
21
10.4191182
0
LINE
8
layer1
10
27.7548815
20
10.4191182
11
27.8012253
21
10.6081511
0
LINE
8
layer1
10
27.8012253
20
10.6081511
11
27.8532397
21
10.788468
0
ARC
8
layer1
10
30.0000026
20
-0.000017
40
11
50
96.7459132
51
101.2540859
0
LINE
8
layer1
10
28.7078704
20
10.9238282
11
28.81306
21
10.76841
0
LINE
8
layer1
10
28.81306
20
10.76841
11
28.91555
21
10.60295
0
LINE
8
layer1
10
28.91555
20
10.60295
11
29.00338
21
10.4469
0
LINE
8
layer1
10
29.00338
20
10.4469
11
29.07635
21
10.30351
0
LINE
8
layer1
10
29.07635
20
10.30351
11
29.13651
21
10.17194
0
LINE
8
layer1
10
29.13651
20
10.17194
11
29.18452
21
10.0541
0
LINE
8
layer1
10
29.18452
20
10.0541
11
29.22174
21
9.95059
0
LINE
8
layer1
10
29.22174
20
9.95059
11
29.2495
21
9.86191
0
LINE
8
layer1
10
29.2495
20
9.86191
11
29.28215
21
9.73046
0
LINE
8
layer1
10
29.28215
20
9.73046
11
29.28959
21
9.68924
0
LINE
8
layer1
10
29.28959
20
9.68924
11
29.28556
21
9.55068
0
LINE
8
layer1
10
29.28556
20
9.55068
11
29.29085
21
9.40397
0
LINE
8
layer1
10
29.29085
20
9.40397
11
29.30647
21
9.27465
0
LINE
8
layer1
10
29.30647
20
9.27465
11
29.33095
21
9.1633
0
LINE
8
layer1
10
29.33095
20
9.1633
11
29.36282
21
9.0704
0
LINE
8
layer1
10
29.36282
20
9.0704
11
29.38106
21
9.03099
0
LINE
8
layer1
10
29.38106
20
9.03099
11
29.40057
21
8.99634
0
LINE
8
layer1
10
29.40057
20
8.99634
11
29.42118
21
8.96647
0
LINE
8
layer1
10
29.42118
20
8.96647
11
29.44268
21
8.94142
0
LINE
8
layer1
10
29.44268
20
8.94142
11
29.46488
21
8.92121
0
LINE
8
layer1
10
29.46488
20
8.92121
11
29.48759
21
8.90585
0
LINE
8
layer1
10
29.48759
20
8.90585
11
29.51062
21
8.89536
0
LINE
8
layer1
10
29.51062
20
8.89536
11
29.53378
21
8.88974
0
LINE
8
layer1
10
29.53378
20
8.88974
11
29.55686
21
8.88899
0
LINE
8
layer1
10
29.55686
20
8.88899
11
29.88281
21
8.89926
0
LINE
8
layer1
10
29.88281
20
8.89926
11
30
21
8.9
0
LINE
8
layer1
10
30
20
8.9
11
30.11719
21
8.89926
0
LINE
8
layer1
10
30.11719
20
8.89926
11
30.44314
21
8.88899
0
LINE
8
layer1
10
30.44314
20
8.88899
11
30.46622
21
8.88974
0
LINE
8
layer1
10
30.46622
20
8.88974
11
30.48938
21
8.89536
0
LINE
8
layer1
10
30.48938
20
8.89536
11
30.51241
21
8.90585
0
LINE
8
layer1
10
30.51241
20
8.90585
11
30.53512
21
8.92121
0
LINE
8
layer1
10
30.53512
20
8.92121
11
30.55732
21
8.94142
0
LINE
8
layer1
10
30.55732
20
8.94142
11
30.57882
21
8.96647
0
LINE
8
layer1
10
30.57882
20
8.96647
11
30.59943
21
8.99634
0
LINE
8
layer1
10
30.59943
20
8.99634
11
30.61894
21
9.03099
0
LINE
8
layer1
10
30.61894
20
9.03099
11
30.63718
21
9.0704
0
LINE
8
layer1
10
30.63718
20
9.0704
11
30.66905
21
9.1633
0
LINE
8
layer1
10
30.66905
20
9.1633
11
30.69353
21
9.27465
0
LINE
8
layer1
10
30.69353
20
9.27465
11
30.70915
21
9.40397
0
LINE
8
layer1
10
30.70915
20
9.40397
11
30.71444
21
9.55068
0
LINE
8
layer1
10
30.71444
20
9.55068
11
30.71041
21
9.68924
0
LINE
8
layer1
10
30.71041
20
9.68924
11
30.71785
21
9.73046
0
LINE
8
layer1
10
30.71785
20
9.73046
11
30.7505
21
9.86191
0
LINE
8
layer1
10
30.7505
20
9.86191
11
30.77826
21
9.95059
0
LINE
8
layer1
10
30.77826
20
9.95059
11
30.81548
21
10.0541
0
LINE
8
layer1
10
30.81548
20
10.0541
11
30.86349
21
10.17194
0
LINE
8
layer1
10
30.86349
20
10.17194
11
30.92365
21
10.30351
0
LINE
8
layer1
10
30.92365
20
10.30351
11
30.99662
21
10.4469
0
LINE
8
layer1
10
30.99662
20
10.4469
11
31.08445
21
10.60295
0
LINE
8
layer1
10
31.08445
20
10.60295
11
31.18694
21
10.76841
0
LINE
8
layer1
10
31.18694
20
10.76841
11
31.2921296
21
10.9238282
0
ARC
8
layer1
10
29.9999974
20
-0.000017
40
11
50
78.7459141
51
83.2540868
0
LINE
8
layer1
10
32.1467603
20
10.788468
11
32.1987747
21
10.6081511
0
LINE
8
layer1
10
32.1987747
20
10.6081511
11
32.2451185
21
10.4191182
0
LINE
8
layer1
10
32.2451185
20
10.4191182
11
32.2804277
21
10.2435648
0
LINE
8
layer1
10
32.2804277
20
10.2435648
11
32.3055163
21
10.0846439
0
LINE
8
layer1
10
32.3055163
20
10.0846439
11
32.3220745
21
9.9409229
0
LINE
8
layer1
10
32.3220745
20
9.9409229
11
32.3313202
21
9.8140145
0
LINE
8
layer1
10
32.3313202
20
9.8140145
11
32.3347322
21
9.704069
0
LINE
8
layer1
10
32.3347322
20
9.704069
11
32.3337299
21
9.611151
0
LINE
8
layer1
10
32.3337299
20
9.611151
11
32.3241616
21
9.4760452
0
LINE
8
layer1
10
32.3241616
20
9.4760452
11
32.3184998
21
9.4345436
0
LINE
8
layer1
10
32.3184998
20
9.4345436
11
32.2718496
21
9.3040106
0
LINE
8
layer1
10
32.2718496
20
9.3040106
11
32.2315448
21
9.1628463
0
LINE
8
layer1
10
32.2315448
20
9.1628463
11
32.2064382
21
9.0350289
0
LINE
8
layer1
10
32.2064382
20
9.0350289
11
32.1953111
21
8.921564
0
LINE
8
layer1
10
32.1953111
20
8.921564
11
32.1969136
21
8.8233625
0
LINE
8
layer1
10
32.1969136
20
8.8233625
11
32.2020825
21
8.7802449
0
LINE
8
layer1
10
32.2020825
20
8.7802449
11
32.2099301
21
8.7412618
0
LINE
8
layer1
10
32.2099301
20
8.7412618
11
32.2203011
21
8.7064849
0
LINE
8
layer1
10
32.2203011
20
8.7064849
11
32.2330079
21
8.6760171
0
LINE
8
layer1
10
32.2330079
20
8.6760171
11
32.2478761
21
8.6499361
0
LINE
8
layer1
10
32.2478761
20
8.6499361
11
32.2647281
21
8.6283101
0
LINE
8
layer1
10
32.2647281
20
8.6283101
11
32.2833894
21
8.6112168
0
LINE
8
layer1
10
32.2833894
20
8.6112168
11
32.3036792
21
8.5987151
0
LINE
8
layer1
10
32.3036792
20
8.5987151
11
32.3253978
21
8.5908697
0
LINE
8
layer1
10
32.3253978
20
8.5908697
11
32.6385683
21
8.4999129
0
LINE
8
layer1
10
32.6385683
20
8.4999129
11
32.7502512
21
8.464403
0
LINE
8
layer1
10
32.7502512
20
8.464403
11
32.8614769
21
8.4274855
0
LINE
8
layer1
10
32.8614769
20
8.4274855
11
33.1683002
21
8.3169941
0
LINE
8
layer1
10
33.1683002
20
8.3169941
11
33.1904823
21
8.3105753
0
LINE
8
layer1
10
33.1904823
20
8.3105753
11
33.2142454
21
8.3087634
0
LINE
8
layer1
10
33.2142454
20
8.3087634
11
33.2393899
21
8.3116233
0
LINE
8
layer1
10
33.2393899
20
8.3116233
11
33.2657349
21
8.3192137
0
LINE
8
layer1
10
33.2657349
20
8.3192137
11
33.2930936
21
8.3315744
0
LINE
8
layer1
10
33.2930936
20
8.3315744
11
33.3212821
21
8.3487545
0
LINE
8
layer1
10
33.3212821
20
8.3487545
11
33.3501138
21
8.3707937
0
LINE
8
layer1
10
33.3501138
20
8.3707937
11
33.3793763
21
8.3977189
0
LINE
8
layer1
10
33.3793763
20
8.3977189
11
33.4089019
21
8.4295636
0
LINE
8
layer1
10
33.4089019
20
8.4295636
11
33.4679198
21
8.5080684
0
LINE
8
layer1
10
33.4679198
20
8.5080684
11
33.5256107
21
8.6064038
0
LINE
8
layer1
10
33.5256107
20
8.6064038
11
33.5804283
21
8.7245675
0
LINE
8
layer1
10
33.5804283
20
8.7245675
11
33.6307952
21
8.8624623
0
LINE
8
layer1
10
33.6307952
20
8.8624623
11
33.6697799
21
8.9954861
0
LINE
8
layer1
10
33.6697799
20
8.9954861
11
33.6895934
21
9.0323895
0
LINE
8
layer1
10
33.6895934
20
9.0323895
11
33.7612657
21
9.1473165
0
LINE
8
layer1
10
33.7612657
20
9.1473165
11
33.8150707
21
9.2230779
0
LINE
8
layer1
10
33.8150707
20
9.2230779
11
33.8824553
21
9.3100201
0
LINE
8
layer1
10
33.8824553
20
9.3100201
11
33.9645301
21
9.4072567
0
LINE
8
layer1
10
33.9645301
20
9.4072567
11
34.062403
21
9.5137968
0
LINE
8
layer1
10
34.062403
20
9.5137968
11
34.1761116
21
9.6276198
0
LINE
8
layer1
10
34.1761116
20
9.6276198
11
34.307865
21
9.7488912
0
LINE
8
layer1
10
34.307865
20
9.7488912
11
34.4564687
21
9.8745819
0
LINE
8
layer1
10
34.4564687
20
9.8745819
11
34.6045368
21
9.989888
0
ARC
8
layer1
10
29.9999924
20
-0.0000154
40
11
50
60.7459149
51
65.2540876
0
LINE
8
layer1
10
35.3755103
20
9.5970574
11
35.369258
21
9.4094925
0
LINE
8
layer1
10
35.369258
20
9.4094925
11
35.3549192
21
9.2153905
0
LINE
8
layer1
10
35.3549192
20
9.2153905
11
35.3342512
21
9.0375182
0
LINE
8
layer1
10
35.3342512
20
9.0375182
11
35.3090027
21
8.8786225
0
LINE
8
layer1
10
35.3090027
20
8.8786225
11
35.2803382
21
8.736819
0
LINE
8
layer1
10
35.2803382
20
8.736819
11
35.2499145
21
8.6132649
0
LINE
8
layer1
10
35.2499145
20
8.6132649
11
35.2191845
21
8.5076462
0
LINE
8
layer1
10
35.2191845
20
8.5076462
11
35.189518
21
8.4195856
0
LINE
8
layer1
10
35.189518
20
8.4195856
11
35.138668
21
8.2940491
0
LINE
8
layer1
10
35.138668
20
8.2940491
11
35.1204586
21
8.2563283
0
LINE
8
layer1
10
35.1204586
20
8.2563283
11
35.0357548
21
8.1465997
0
LINE
8
layer1
10
35.0357548
20
8.1465997
11
34.9538005
21
8.0247995
0
LINE
8
layer1
10
34.9538005
20
8.0247995
11
34.8904249
21
7.9109962
0
LINE
8
layer1
10
34.8904249
20
7.9109962
11
34.8447798
21
7.8065231
0
LINE
8
layer1
10
34.8447798
20
7.8065231
11
34.8159579
21
7.7126328
0
LINE
8
layer1
10
34.8159579
20
7.7126328
11
34.8075498
21
7.6700282
0
LINE
8
layer1
10
34.8075498
20
7.6700282
11
34.8029669
21
7.6305281
0
LINE
8
layer1
10
34.8029669
20
7.6305281
11
34.8020836
21
7.5942485
0
LINE
8
layer1
10
34.8020836
20
7.5942485
11
34.8047535
21
7.5613452
0
LINE
8
layer1
10
34.8047535
20
7.5613452
11
34.8108345
21
7.5319461
0
LINE
8
layer1
10
34.8108345
20
7.5319461
11
34.8201789
21
7.506171
0
LINE
8
layer1
10
34.8201789
20
7.506171
11
34.8326447
21
7.4841478
0
LINE
8
layer1
10
34.8326447
20
7.4841478
11
34.8480782
21
7.465988
0
LINE
8
layer1
10
34.8480782
20
7.465988
11
34.8663094
21
7.4518151
0
LINE
8
layer1
10
34.8663094
20
7.4518151
11
35.1360451
21
7.2685351
0
LINE
8
layer1
10
35.1360451
20
7.2685351
11
35.2312887
21
7.2002512
0
LINE
8
layer1
10
35.2312887
20
7.2002512
11
35.3256625
21
7.13077
0
LINE
8
layer1
10
35.3256625
20
7.13077
11
35.583325
21
6.9308728
0
LINE
8
layer1
10
35.583325
20
6.9308728
11
35.602438
21
6.9179135
0
LINE
8
layer1
10
35.602438
20
6.9179135
11
35.6244782
21
6.9088471
0
LINE
8
layer1
10
35.6244782
20
6.9088471
11
35.6492757
21
6.903797
0
LINE
8
layer1
10
35.6492757
20
6.903797
11
35.6766768
21
6.9028749
0
LINE
8
layer1
10
35.6766768
20
6.9028749
11
35.7065162
21
6.9061763
0
LINE
8
layer1
10
35.7065162
20
6.9061763
11
35.738634
21
6.9138047
0
LINE
8
layer1
10
35.738634
20
6.9138047
11
35.772865
21
6.9258558
0
LINE
8
layer1
10
35.772865
20
6.9258558
11
35.8090157
21
6.9424206
0
LINE
8
layer1
10
35.8090157
20
6.9424206
11
35.8469368
21
6.9635827
0
LINE
8
layer1
10
35.8469368
20
6.9635827
11
35.9273254
21
7.0200077
0
LINE
8
layer1
10
35.9273254
20
7.0200077
11
36.01258
21
7.0957028
0
LINE
8
layer1
10
36.01258
20
7.0957028
11
36.1012293
21
7.1911436
0
LINE
8
layer1
10
36.1012293
20
7.1911436
11
36.191743
21
7.3067251
0
LINE
8
layer1
10
36.191743
20
7.3067251
11
36.2699261
21
7.4211913
0
LINE
8
layer1
10
36.2699261
20
7.4211913
11
36.3001737
21
7.4501659
0
LINE
8
layer1
10
36.3001737
20
7.4501659
11
36.4038525
21
7.53732
0
LINE
8
layer1
10
36.4038525
20
7.53732
11
36.4784356
21
7.5927467
0
LINE
8
layer1
10
36.4784356
20
7.5927467
11
36.5693889
21
7.6546106
0
LINE
8
layer1
10
36.5693889
20
7.6546106
11
36.6774944
21
7.7217256
0
LINE
8
layer1
10
36.6774944
20
7.7217256
11
36.8034998
21
7.7928068
0
LINE
8
layer1
10
36.8034998
20
7.7928068
11
36.9468163
21
7.8659211
0
LINE
8
layer1
10
36.9468163
20
7.8659211
11
37.1095961
21
7.940543
0
LINE
8
layer1
10
37.1095961
20
7.940543
11
37.2897672
21
8.0141609
0
LINE
8
layer1
10
37.2897672
20
8.0141609
11
37.4662199
21
8.0780679
0
ARC
8
layer1
10
29.9999878
20
-0.0000122
40
11
50
42.7459138
51
47.2540862
0
LINE
8
layer1
10
38.0780679
20
7.4662199
11
38.0141609
21
7.2897672
0
LINE
8
layer1
10
38.0141609
20
7.2897672
11
37.940543
21
7.1095961
0
LINE
8
layer1
10
37.940543
20
7.1095961
11
37.8659211
21
6.9468163
0
LINE
8
layer1
10
37.8659211
20
6.9468163
11
37.7928068
21
6.8034998
0
LINE
8
layer1
10
37.7928068
20
6.8034998
11
37.7217256
21
6.6774944
0
LINE
8
layer1
10
37.7217256
20
6.6774944
11
37.6546106
21
6.5693889
0
LINE
8
layer1
10
37.6546106
20
6.5693889
11
37.5927467
21
6.4784356
0
LINE
8
layer1
10
37.5927467
20
6.4784356
11
37.53732
21
6.4038525
0
LINE
8
layer1
10
37.53732
20
6.4038525
11
37.4501659
21
6.3001737
0
LINE
8
layer1
10
37.4501659
20
6.3001737
11
37.4211913
21
6.2699261
0
LINE
8
layer1
10
37.4211913
20
6.2699261
11
37.3067251
21
6.191743
0
LINE
8
layer1
10
37.3067251
20
6.191743
11
37.1911436
21
6.1012293
0
LINE
8
layer1
10
37.1911436
20
6.1012293
11
37.0957028
21
6.01258
0
LINE
8
layer1
10
37.0957028
20
6.01258
11
37.0200077
21
5.9273254
0
LINE
8
layer1
10
37.0200077
20
5.9273254
11
36.9635827
21
5.8469368
0
LINE
8
layer1
10
36.9635827
20
5.8469368
11
36.9424206
21
5.8090157
0
LINE
8
layer1
10
36.9424206
20
5.8090157
11
36.9258558
21
5.772865
0
LINE
8
layer1
10
36.9258558
20
5.772865
11
36.9138047
21
5.738634
0
LINE
8
layer1
10
36.9138047
20
5.738634
11
36.9061763
21
5.7065162
0
LINE
8
layer1
10
36.9061763
20
5.7065162
11
36.9028749
21
5.6766768
0
LINE
8
layer1
10
36.9028749
20
5.6766768
11
36.903797
21
5.6492757
0
LINE
8
layer1
10
36.903797
20
5.6492757
11
36.9088471
21
5.6244782
0
LINE
8
layer1
10
36.9088471
20
5.6244782
11
36.9179135
21
5.602438
0
LINE
8
layer1
10
36.9179135
20
5.602438
11
36.9308728
21
5.583325
0
LINE
8
layer1
10
36.9308728
20
5.583325
11
37.13077
21
5.3256625
0
LINE
8
layer1
10
37.13077
20
5.3256625
11
37.2002512
21
5.2312887
0
LINE
8
layer1
10
37.2002512
20
5.2312887
11
37.2685351
21
5.1360451
0
LINE
8
layer1
10
37.2685351
20
5.1360451
11
37.4518151
21
4.8663094
0
LINE
8
layer1
10
37.4518151
20
4.8663094
11
37.465988
21
4.8480782
0
LINE
8
layer1
10
37.465988
20
4.8480782
11
37.4841478
21
4.8326447
0
LINE
8
layer1
10
37.4841478
20
4.8326447
11
37.506171
21
4.8201789
0
LINE
8
layer1
10
37.506171
20
4.8201789
11
37.5319461
21
4.8108345
0
LINE
8
layer1
10
37.5319461
20
4.8108345
11
37.5613452
21
4.8047535
0
LINE
8
layer1
10
37.5613452
20
4.8047535
11
37.5942485
21
4.8020836
0
LINE
8
layer1
10
37.5942485
20
4.8020836
11
37.6305281
21
4.8029669
0
LINE
8
layer1
10
37.6305281
20
4.8029669
11
37.6700282
21
4.8075498
0
LINE
8
layer1
10
37.6700282
20
4.8075498
11
37.7126328
21
4.8159579
0
LINE
8
layer1
10
37.7126328
20
4.8159579
11
37.8065231
21
4.8447798
0
LINE
8
layer1
10
37.8065231
20
4.8447798
11
37.9109962
21
4.8904249
0
LINE
8
layer1
10
37.9109962
20
4.8904249
11
38.0247995
21
4.9538005
0
LINE
8
layer1
10
38.0247995
20
4.9538005
11
38.1465997
21
5.0357548
0
LINE
8
layer1
10
38.1465997
20
5.0357548
11
38.2563283
21
5.1204586
0
LINE
8
layer1
10
38.2563283
20
5.1204586
11
38.2940491
21
5.138668
0
LINE
8
layer1
10
38.2940491
20
5.138668
11
38.4195856
21
5.189518
0
LINE
8
layer1
10
38.4195856
20
5.189518
11
38.5076462
21
5.2191845
0
LINE
8
layer1
10
38.5076462
20
5.2191845
11
38.6132649
21
5.2499145
0
LINE
8
layer1
10
38.6132649
20
5.2499145
11
38.736819
21
5.2803382
0
LINE
8
layer1
10
38.736819
20
5.2803382
11
38.8786225
21
5.3090027
0
LINE
8
layer1
10
38.8786225
20
5.3090027
11
39.0375182
21
5.3342512
0
LINE
8
layer1
10
39.0375182
20
5.3342512
11
39.2153905
21
5.3549192
0
LINE
8
layer1
10
39.2153905
20
5.3549192
11
39.4094925
21
5.369258
0
LINE
8
layer1
10
39.4094925
20
5.369258
11
39.5970574
21
5.3755103
0
ARC
8
layer1
10
29.9999846
20
-0.0000077
40
11
50
24.7459128
51
29.2540855
0
LINE
8
layer1
10
39.989888
20
4.6045368
11
39.8745819
21
4.4564687
0
LINE
8
layer1
10
39.8745819
20
4.4564687
11
39.7488912
21
4.307865
0
LINE
8
layer1
10
39.7488912
20
4.307865
11
39.6276198
21
4.1761116
0
LINE
8
layer1
10
39.6276198
20
4.1761116
11
39.5137968
21
4.062403
0
LINE
8
layer1
10
39.5137968
20
4.062403
11
39.4072567
21
3.9645301
0
LINE
8
layer1
10
39.4072567
20
3.9645301
11
39.3100201
21
3.8824553
0
LINE
8
layer1
10
39.3100201
20
3.8824553
11
39.2230779
21
3.8150707
0
LINE
8
layer1
10
39.2230779
20
3.8150707
11
39.1473165
21
3.7612657
0
LINE
8
layer1
10
39.1473165
20
3.7612657
11
39.0323895
21
3.6895934
0
LINE
8
layer1
10
39.0323895
20
3.6895934
11
38.9954861
21
3.6697799
0
LINE
8
layer1
10
38.9954861
20
3.6697799
11
38.8624623
21
3.6307952
0
LINE
8
layer1
10
38.8624623
20
3.6307952
11
38.7245675
21
3.5804283
0
LINE
8
layer1
10
38.7245675
20
3.5804283
11
38.6064038
21
3.5256107
0
LINE
8
layer1
10
38.6064038
20
3.5256107
11
38.5080684
21
3.4679198
0
LINE
8
layer1
10
38.5080684
20
3.4679198
11
38.4295636
21
3.4089019
0
LINE
8
layer1
10
38.4295636
20
3.4089019
11
38.3977189
21
3.3793763
0
LINE
8
layer1
10
38.3977189
20
3.3793763
11
38.3707937
21
3.3501138
0
LINE
8
layer1
10
38.3707937
20
3.3501138
11
38.3487545
21
3.3212821
0
LINE
8
layer1
10
38.3487545
20
3.3212821
11
38.3315744
21
3.2930936
0
LINE
8
layer1
10
38.3315744
20
3.2930936
11
38.3192137
21
3.2657349
0
LINE
8
layer1
10
38.3192137
20
3.2657349
11
38.3116233
21
3.2393899
0
LINE
8
layer1
10
38.3116233
20
3.2393899
11
38.3087634
21
3.2142454
0
LINE
8
layer1
10
38.3087634
20
3.2142454
11
38.3105753
21
3.1904823
0
LINE
8
layer1
10
38.3105753
20
3.1904823
11
38.3169941
21
3.1683002
0
LINE
8
layer1
10
38.3169941
20
3.1683002
11
38.4274855
21
2.8614769
0
LINE
8
layer1
10
38.4274855
20
2.8614769
11
38.464403
21
2.7502512
0
LINE
8
layer1
10
38.464403
20
2.7502512
11
38.4999129
21
2.6385683
0
LINE
8
layer1
10
38.4999129
20
2.6385683
11
38.5908697
21
2.3253978
0
LINE
8
layer1
10
38.5908697
20
2.3253978
11
38.5987151
21
2.3036792
0
LINE
8
layer1
10
38.5987151
20
2.3036792
11
38.6112168
21
2.2833894
0
LINE
8
layer1
10
38.6112168
20
2.2833894
11
38.6283101
21
2.2647281
0
LINE
8
layer1
10
38.6283101
20
2.2647281
11
38.6499361
21
2.2478761
0
LINE
8
layer1
10
38.6499361
20
2.2478761
11
38.6760171
21
2.2330079
0
LINE
8
layer1
10
38.6760171
20
2.2330079
11
38.7064849
21
2.2203011
0
LINE
8
layer1
10
38.7064849
20
2.2203011
11
38.7412618
21
2.2099301
0
LINE
8
layer1
10
38.7412618
20
2.2099301
11
38.7802449
21
2.2020825
0
LINE
8
layer1
10
38.7802449
20
2.2020825
11
38.8233625
21
2.1969136
0
LINE
8
layer1
10
38.8233625
20
2.1969136
11
38.921564
21
2.1953111
0
LINE
8
layer1
10
38.921564
20
2.1953111
11
39.0350289
21
2.2064382
0
LINE
8
layer1
10
39.0350289
20
2.2064382
11
39.1628463
21
2.2315448
0
LINE
8
layer1
10
39.1628463
20
2.2315448
11
39.3040106
21
2.2718496
0
LINE
8
layer1
10
39.3040106
20
2.2718496
11
39.4345436
21
2.3184998
0
LINE
8
layer1
10
39.4345436
20
2.3184998
11
39.4760452
21
2.3241616
0
LINE
8
layer1
10
39.4760452
20
2.3241616
11
39.611151
21
2.3337299
0
LINE
8
layer1
10
39.611151
20
2.3337299
11
39.704069
21
2.3347322
0
LINE
8
layer1
10
39.704069
20
2.3347322
11
39.8140145
21
2.3313202
0
LINE
8
layer1
10
39.8140145
20
2.3313202
11
39.9409229
21
2.3220745
0
LINE
8
layer1
10
39.9409229
20
2.3220745
11
40.0846439
21
2.3055163
0
LINE
8
layer1
10
40.0846439
20
2.3055163
11
40.2435648
21
2.2804277
0
LINE
8
layer1
10
40.2435648
20
2.2804277
11
40.4191182
21
2.2451185
0
LINE
8
layer1
10
40.4191182
20
2.2451185
11
40.6081511
21
2.1987747
0
LINE
8
layer1
10
40.6081511
20
2.1987747
11
40.788468
21
2.1467603
0
ARC
8
layer1
10
29.999983
20
-0.0000026
40
11
50
6.7459132
51
11.2540859
0
LINE
8
layer1
10
40.9238282
20
1.2921296
11
40.76841
21
1.18694
0
LINE
8
layer1
10
40.76841
20
1.18694
11
40.60295
21
1.08445
0
LINE
8
layer1
10
40.60295
20
1.08445
11
40.4469
21
0.99662
0
LINE
8
layer1
10
40.4469
20
0.99662
11
40.30351
21
0.92365
0
LINE
8
layer1
10
40.30351
20
0.92365
11
40.17194
21
0.86349
0
LINE
8
layer1
10
40.17194
20
0.86349
11
40.0541
21
0.81548
0
LINE
8
layer1
10
40.0541
20
0.81548
11
39.95059
21
0.77826
0
LINE
8
layer1
10
39.95059
20
0.77826
11
39.86191
21
0.7505
0
LINE
8
layer1
10
39.86191
20
0.7505
11
39.73046
21
0.71785
0
LINE
8
layer1
10
39.73046
20
0.71785
11
39.68924
21
0.71041
0
LINE
8
layer1
10
39.68924
20
0.71041
11
39.55068
21
0.71444
0
LINE
8
layer1
10
39.55068
20
0.71444
11
39.40397
21
0.70915
0
LINE
8
layer1
10
39.40397
20
0.70915
11
39.27465
21
0.69353
0
LINE
8
layer1
10
39.27465
20
0.69353
11
39.1633
21
0.66905
0
LINE
8
layer1
10
39.1633
20
0.66905
11
39.0704
21
0.63718
0
LINE
8
layer1
10
39.0704
20
0.63718
11
39.03099
21
0.61894
0
LINE
8
layer1
10
39.03099
20
0.61894
11
38.99634
21
0.59943
0
LINE
8
layer1
10
38.99634
20
0.59943
11
38.96647
21
0.57882
0
LINE
8
layer1
10
38.96647
20
0.57882
11
38.94142
21
0.55732
0
LINE
8
layer1
10
38.94142
20
0.55732
11
38.92121
21
0.53512
0
LINE
8
layer1
10
38.92121
20
0.53512
11
38.90585
21
0.51241
0
LINE
8
layer1
10
38.90585
20
0.51241
11
38.89536
21
0.48938
0
LINE
8
layer1
10
38.89536
20
0.48938
11
38.88974
21
0.46622
0
LINE
8
layer1
10
38.88974
20
0.46622
11
38.88899
21
0.44314
0
LINE
8
layer1
10
38.88899
20
0.44314
11
38.89926
21
0.11719
0
LINE
8
layer1
10
38.89926
20
0.11719
11
38.9
21
0
0
LINE
8
layer1
10
38.9
20
0
11
38.89926
21
-0.11719
0
LINE
8
layer1
10
38.89926
20
-0.11719
11
38.88899
21
-0.44314
0
LINE
8
layer1
10
38.88899
20
-0.44314
11
38.88974
21
-0.46622
0
LINE
8
layer1
10
38.88974
20
-0.46622
11
38.89536
21
-0.48938
0
LINE
8
layer1
10
38.89536
20
-0.48938
11
38.90585
21
-0.51241
0
LINE
8
layer1
10
38.90585
20
-0.51241
11
38.92121
21
-0.53512
0
LINE
8
layer1
10
38.92121
20
-0.53512
11
38.94142
21
-0.55732
0
LINE
8
layer1
10
38.94142
20
-0.55732
11
38.96647
21
-0.57882
0
LINE
8
layer1
10
38.96647
20
-0.57882
11
38.99634
21
-0.59943
0
LINE
8
layer1
10
38.99634
20
-0.59943
11
39.03099
21
-0.61894
0
LINE
8
layer1
10
39.03099
20
-0.61894
11
39.0704
21
-0.63718
0
LINE
8
layer1
10
39.0704
20
-0.63718
11
39.1633
21
-0.66905
0
LINE
8
layer1
10
39.1633
20
-0.66905
11
39.27465
21
-0.69353
0
LINE
8
layer1
10
39.27465
20
-0.69353
11
39.40397
21
-0.70915
0
LINE
8
layer1
10
39.40397
20
-0.70915
11
39.55068
21
-0.71444
0
LINE
8
layer1
10
39.55068
20
-0.71444
11
39.68924
21
-0.71041
0
LINE
8
layer1
10
39.68924
20
-0.71041
11
39.73046
21
-0.71785
0
LINE
8
layer1
10
39.73046
20
-0.71785
11
39.86191
21
-0.7505
0
LINE
8
layer1
10
39.86191
20
-0.7505
11
39.95059
21
-0.77826
0
LINE
8
layer1
10
39.95059
20
-0.77826
11
40.0541
21
-0.81548
0
LINE
8
layer1
10
40.0541
20
-0.81548
11
40.17194
21
-0.86349
0
LINE
8
layer1
10
40.17194
20
-0.86349
11
40.30351
21
-0.92365
0
LINE
8
layer1
10
40.30351
20
-0.92365
11
40.4469
21
-0.99662
0
LINE
8
layer1
10
40.4469
20
-0.99662
11
40.60295
21
-1.08445
0
LINE
8
layer1
10
40.60295
20
-1.08445
11
40.76841
21
-1.18694
0
LINE
8
layer1
10
40.76841
20
-1.18694
11
40.9238282
21
-1.2921296
0
ARC
8
layer1
10
29.999983
20
0.0000026
40
11
50
348.7459141
51
353.2540868
0
LINE
8
layer1
10
40.788468
20
-2.1467603
11
40.6081511
21
-2.1987747
0
LINE
8
layer1
10
40.6081511
20
-2.1987747
11
40.4191182
21
-2.2451185
0
LINE
8
layer1
10
40.4191182
20
-2.2451185
11
40.2435648
21
-2.2804277
0
LINE
8
layer1
10
40.2435648
20
-2.2804277
11
40.0846439
21
-2.3055163
0
LINE
8
layer1
10
40.0846439
20
-2.3055163
11
39.9409229
21
-2.3220745
0
LINE
8
layer1
10
39.9409229
20
-2.3220745
11
39.8140145
21
-2.3313202
0
LINE
8
layer1
10
39.8140145
20
-2.3313202
11
39.704069
21
-2.3347322
0
LINE
8
layer1
10
39.704069
20
-2.3347322
11
39.611151
21
-2.3337299
0
LINE
8
layer1
10
39.611151
20
-2.3337299
11
39.4760452
21
-2.3241616
0
LINE
8
layer1
10
39.4760452
20
-2.3241616
11
39.4345436
21
-2.3184998
0
LINE
8
layer1
10
39.4345436
20
-2.3184998
11
39.3040106
21
-2.2718496
0
LINE
8
layer1
10
39.3040106
20
-2.2718496
11
39.1628463
21
-2.2315448
0
LINE
8
layer1
10
39.1628463
20
-2.2315448
11
39.0350289
21
-2.2064382
0
LINE
8
layer1
10
39.0350289
20
-2.2064382
11
38.921564
21
-2.1953111
0
LINE
8
layer1
10
38.921564
20
-2.1953111
11
38.8233625
21
-2.1969136
0
LINE
8
layer1
10
38.8233625
20
-2.1969136
11
38.7802449
21
-2.2020825
0
LINE
8
layer1
10
38.7802449
20
-2.2020825
11
38.7412618
21
-2.2099301
0
LINE
8
layer1
10
38.7412618
20
-2.2099301
11
38.7064849
21
-2.2203011
0
LINE
8
layer1
10
38.7064849
20
-2.2203011
11
38.6760171
21
-2.2330079
0
LINE
8
layer1
10
38.6760171
20
-2.2330079
11
38.6499361
21
-2.2478761
0
LINE
8
layer1
10
38.6499361
20
-2.2478761
11
38.6283101
21
-2.2647281
0
LINE
8
layer1
10
38.6283101
20
-2.2647281
11
38.6112168
21
-2.2833894
0
LINE
8
layer1
10
38.6112168
20
-2.2833894
11
38.5987151
21
-2.3036792
0
LINE
8
layer1
10
38.5987151
20
-2.3036792
11
38.5908697
21
-2.3253978
0
LINE
8
layer1
10
38.5908697
20
-2.3253978
11
38.4999129
21
-2.6385683
0
LINE
8
layer1
10
38.4999129
20
-2.6385683
11
38.464403
21
-2.7502512
0
LINE
8
layer1
10
38.464403
20
-2.7502512
11
38.4274855
21
-2.8614769
0
LINE
8
layer1
10
38.4274855
20
-2.8614769
11
38.3169941
21
-3.1683002
0
LINE
8
layer1
10
38.3169941
20
-3.1683002
11
38.3105753
21
-3.1904823
0
LINE
8
layer1
10
38.3105753
20
-3.1904823
11
38.3087634
21
-3.2142454
0
LINE
8
layer1
10
38.3087634
20
-3.2142454
11
38.3116233
21
-3.2393899
0
LINE
8
layer1
10
38.3116233
20
-3.2393899
11
38.3192137
21
-3.2657349
0
LINE
8
layer1
10
38.3192137
20
-3.2657349
11
38.3315744
21
-3.2930936
0
LINE
8
layer1
10
38.3315744
20
-3.2930936
11
38.3487545
21
-3.3212821
0
LINE
8
layer1
10
38.3487545
20
-3.3212821
11
38.3707937
21
-3.3501138
0
LINE
8
layer1
10
38.3707937
20
-3.3501138
11
38.3977189
21
-3.3793763
0
LINE
8
layer1
10
38.3977189
20
-3.3793763
11
38.4295636
21
-3.4089019
0
LINE
8
layer1
10
38.4295636
20
-3.4089019
11
38.5080684
21
-3.4679198
0
LINE
8
layer1
10
38.5080684
20
-3.4679198
11
38.6064038
21
-3.5256107
0
LINE
8
layer1
10
38.6064038
20
-3.5256107
11
38.7245675
21
-3.5804283
0
LINE
8
layer1
10
38.7245675
20
-3.5804283
11
38.8624623
21
-3.6307952
0
LINE
8
layer1
10
38.8624623
20
-3.6307952
11
38.9954861
21
-3.6697799
0
LINE
8
layer1
10
38.9954861
20
-3.6697799
11
39.0323895
21
-3.6895934
0
LINE
8
layer1
10
39.0323895
20
-3.6895934
11
39.1473165
21
-3.7612657
0
LINE
8
layer1
10
39.1473165
20
-3.7612657
11
39.2230779
21
-3.8150707
0
LINE
8
layer1
10
39.2230779
20
-3.8150707
11
39.3100201
21
-3.8824553
0
LINE
8
layer1
10
39.3100201
20
-3.8824553
11
39.4072567
21
-3.9645301
0
LINE
8
layer1
10
39.4072567
20
-3.9645301
11
39.5137968
21
-4.062403
0
LINE
8
layer1
10
39.5137968
20
-4.062403
11
39.6276198
21
-4.1761116
0
LINE
8
layer1
10
39.6276198
20
-4.1761116
11
39.7488912
21
-4.307865
0
LINE
8
layer1
10
39.7488912
20
-4.307865
11
39.8745819
21
-4.4564687
0
LINE
8
layer1
10
39.8745819
20
-4.4564687
11
39.989888
21
-4.6045368
0
ARC
8
layer1
10
29.9999846
20
0.0000076
40
11
50
330.7459149
51
335.2540876
0
LINE
8
layer1
10
39.5970574
20
-5.3755103
11
39.4094925
21
-5.369258
0
LINE
8
layer1
10
39.4094925
20
-5.369258
11
39.2153905
21
-5.3549192
0
LINE
8
layer1
10
39.2153905
20
-5.3549192
11
39.0375182
21
-5.3342512
0
LINE
8
layer1
10
39.0375182
20
-5.3342512
11
38.8786225
21
-5.3090027
0
LINE
8
layer1
10
38.8786225
20
-5.3090027
11
38.736819
21
-5.2803382
0
LINE
8
layer1
10
38.736819
20
-5.2803382
11
38.6132649
21
-5.2499145
0
LINE
8
layer1
10
38.6132649
20
-5.2499145
11
38.5076462
21
-5.2191845
0
LINE
8
layer1
10
38.5076462
20
-5.2191845
11
38.4195856
21
-5.189518
0
LINE
8
layer1
10
38.4195856
20
-5.189518
11
38.2940491
21
-5.138668
0
LINE
8
layer1
10
38.2940491
20
-5.138668
11
38.2563283
21
-5.1204586
0
LINE
8
layer1
10
38.2563283
20
-5.1204586
11
38.1465997
21
-5.0357548
0
LINE
8
layer1
10
38.1465997
20
-5.0357548
11
38.0247995
21
-4.9538005
0
LINE
8
layer1
10
38.0247995
20
-4.9538005
11
37.9109962
21
-4.8904249
0
LINE
8
layer1
10
37.9109962
20
-4.8904249
11
37.8065231
21
-4.8447798
0
LINE
8
layer1
10
37.8065231
20
-4.8447798
11
37.7126328
21
-4.8159579
0
LINE
8
layer1
10
37.7126328
20
-4.8159579
11
37.6700282
21
-4.8075498
0
LINE
8
layer1
10
37.6700282
20
-4.8075498
11
37.6305281
21
-4.8029669
0
LINE
8
layer1
10
37.6305281
20
-4.8029669
11
37.5942485
21
-4.8020836
0
LINE
8
layer1
10
37.5942485
20
-4.8020836
11
37.5613452
21
-4.8047535
0
LINE
8
layer1
10
37.5613452
20
-4.8047535
11
37.5319461
21
-4.8108345
0
LINE
8
layer1
10
37.5319461
20
-4.8108345
11
37.506171
21
-4.8201789
0
LINE
8
layer1
10
37.506171
20
-4.8201789
11
37.4841478
21
-4.8326447
0
LINE
8
layer1
10
37.4841478
20
-4.8326447
11
37.465988
21
-4.8480782
0
LINE
8
layer1
10
37.465988
20
-4.8480782
11
37.4518151
21
-4.8663094
0
LINE
8
layer1
10
37.4518151
20
-4.8663094
11
37.2685351
21
-5.1360451
0
LINE
8
layer1
10
37.2685351
20
-5.1360451
11
37.2002512
21
-5.2312887
0
LINE
8
layer1
10
37.2002512
20
-5.2312887
11
37.13077
21
-5.3256625
0
LINE
8
layer1
10
37.13077
20
-5.3256625
11
36.9308728
21
-5.583325
0
LINE
8
layer1
10
36.9308728
20
-5.583325
11
36.9179135
21
-5.602438
0
LINE
8
layer1
10
36.9179135
20
-5.602438
11
36.9088471
21
-5.6244782
0
LINE
8
layer1
10
36.9088471
20
-5.6244782
11
36.903797
21
-5.6492757
0
LINE
8
layer1
10
36.903797
20
-5.6492757
11
36.9028749
21
-5.6766768
0
LINE
8
layer1
10
36.9028749
20
-5.6766768
11
36.9061763
21
-5.7065162
0
LINE
8
layer1
10
36.9061763
20
-5.7065162
11
36.9138047
21
-5.738634
0
LINE
8
layer1
10
36.9138047
20
-5.738634
11
36.9258558
21
-5.772865
0
LINE
8
layer1
10
36.9258558
20
-5.772865
11
36.9424206
21
-5.8090157
0
LINE
8
layer1
10
36.9424206
20
-5.8090157
11
36.9635827
21
-5.8469368
0
LINE
8
layer1
10
36.9635827
20
-5.8469368
11
37.0200077
21
-5.9273254
0
LINE
8
layer1
10
37.0200077
20
-5.9273254
11
37.0957028
21
-6.01258
0
LINE
8
layer1
10
37.0957028
20
-6.01258
11
37.1911436
21
-6.1012293
0
LINE
8
layer1
10
37.1911436
20
-6.1012293
11
37.3067251
21
-6.191743
0
LINE
8
layer1
10
37.3067251
20
-6.191743
11
37.4211913
21
-6.2699261
0
LINE
8
layer1
10
37.4211913
20
-6.2699261
11
37.4501659
21
-6.3001737
0
LINE
8
layer1
10
37.4501659
20
-6.3001737
11
37.53732
21
-6.4038525
0
LINE
8
layer1
10
37.53732
20
-6.4038525
11
37.5927467
21
-6.4784356
0
LINE
8
layer1
10
37.5927467
20
-6.4784356
11
37.6546106
21
-6.5693889
0
LINE
8
layer1
10
37.6546106
20
-6.5693889
11
37.7217256
21
-6.6774944
0
LINE
8
layer1
10
37.7217256
20
-6.6774944
11
37.7928068
21
-6.8034998
0
LINE
8
layer1
10
37.7928068
20
-6.8034998
11
37.8659211
21
-6.9468163
0
LINE
8
layer1
10
37.8659211
20
-6.9468163
11
37.940543
21
-7.1095961
0
LINE
8
layer1
10
37.940543
20
-7.1095961
11
38.0141609
21
-7.2897672
0
LINE
8
layer1
10
38.0141609
20
-7.2897672
11
38.0780679
21
-7.4662199
0
ARC
8
layer1
10
29.9999878
20
0.0000122
40
11
50
312.7459138
51
317.2540862
0
LINE
8
layer1
10
37.4662199
20
-8.0780679
11
37.2897672
21
-8.0141609
0
LINE
8
layer1
10
37.2897672
20
-8.0141609
11
37.1095961
21
-7.940543
0
LINE
8
layer1
10
37.1095961
20
-7.940543
11
36.9468163
21
-7.8659211
0
LINE
8
layer1
10
36.9468163
20
-7.8659211
11
36.8034998
21
-7.7928068
0
LINE
8
layer1
10
36.8034998
20
-7.7928068
11
36.6774944
21
-7.7217256
0
LINE
8
layer1
10
36.6774944
20
-7.7217256
11
36.5693889
21
-7.6546106
0
LINE
8
layer1
10
36.5693889
20
-7.6546106
11
36.4784356
21
-7.5927467
0
LINE
8
layer1
10
36.4784356
20
-7.5927467
11
36.4038525
21
-7.53732
0
LINE
8
layer1
10
36.4038525
20
-7.53732
11
36.3001737
21
-7.4501659
0
LINE
8
layer1
10
36.3001737
20
-7.4501659
11
36.2699261
21
-7.4211913
0
LINE
8
layer1
10
36.2699261
20
-7.4211913
11
36.191743
21
-7.3067251
0
LINE
8
layer1
10
36.191743
20
-7.3067251
11
36.1012293
21
-7.1911436
0
LINE
8
layer1
10
36.1012293
20
-7.1911436
11
36.01258
21
-7.0957028
0
LINE
8
layer1
10
36.01258
20
-7.0957028
11
35.9273254
21
-7.0200077
0
LINE
8
layer1
10
35.9273254
20
-7.0200077
11
35.8469368
21
-6.9635827
0
LINE
8
layer1
10
35.8469368
20
-6.9635827
11
35.8090157
21
-6.9424206
0
LINE
8
layer1
10
35.8090157
20
-6.9424206
11
35.772865
21
-6.9258558
0
LINE
8
layer1
10
35.772865
20
-6.9258558
11
35.738634
21
-6.9138047
0
LINE
8
layer1
10
35.738634
20
-6.9138047
11
35.7065162
21
-6.9061763
0
LINE
8
layer1
10
35.7065162
20
-6.9061763
11
35.6766768
21
-6.9028749
0
LINE
8
layer1
10
35.6766768
20
-6.9028749
11
35.6492757
21
-6.903797
0
LINE
8
layer1
10
35.6492757
20
-6.903797
11
35.6244782
21
-6.9088471
0
LINE
8
layer1
10
35.6244782
20
-6.9088471
11
35.602438
21
-6.9179135
0
LINE
8
layer1
10
35.602438
20
-6.9179135
11
35.583325
21
-6.9308728
0
LINE
8
layer1
10
35.583325
20
-6.9308728
11
35.3256625
21
-7.13077
0
LINE
8
layer1
10
35.3256625
20
-7.13077
11
35.2312887
21
-7.2002512
0
LINE
8
layer1
10
35.2312887
20
-7.2002512
11
35.1360451
21
-7.2685351
0
LINE
8
layer1
10
35.1360451
20
-7.2685351
11
34.8663094
21
-7.4518151
0
LINE
8
layer1
10
34.8663094
20
-7.4518151
11
34.8480782
21
-7.465988
0
LINE
8
layer1
10
34.8480782
20
-7.465988
11
34.8326447
21
-7.4841478
0
LINE
8
layer1
10
34.8326447
20
-7.4841478
11
34.8201789
21
-7.506171
0
LINE
8
layer1
10
34.8201789
20
-7.506171
11
34.8108345
21
-7.5319461
0
LINE
8
layer1
10
34.8108345
20
-7.5319461
11
34.8047535
21
-7.5613452
0
LINE
8
layer1
10
34.8047535
20
-7.5613452
11
34.8020836
21
-7.5942485
0
LINE
8
layer1
10
34.8020836
20
-7.5942485
11
34.8029669
21
-7.6305281
0
LINE
8
layer1
10
34.8029669
20
-7.6305281
11
34.8075498
21
-7.6700282
0
LINE
8
layer1
10
34.8075498
20
-7.6700282
11
34.8159579
21
-7.7126328
0
LINE
8
layer1
10
34.8159579
20
-7.7126328
11
34.8447798
21
-7.8065231
0
LINE
8
layer1
10
34.8447798
20
-7.8065231
11
34.8904249
21
-7.9109962
0
LINE
8
layer1
10
34.8904249
20
-7.9109962
11
34.9538005
21
-8.0247995
0
LINE
8
layer1
10
34.9538005
20
-8.0247995
11
35.0357548
21
-8.1465997
0
LINE
8
layer1
10
35.0357548
20
-8.1465997
11
35.1204586
21
-8.2563283
0
LINE
8
layer1
10
35.1204586
20
-8.2563283
11
35.138668
21
-8.2940491
0
LINE
8
layer1
10
35.138668
20
-8.2940491
11
35.189518
21
-8.4195856
0
LINE
8
layer1
10
35.189518
20
-8.4195856
11
35.2191845
21
-8.5076462
0
LINE
8
layer1
10
35.2191845
20
-8.5076462
11
35.2499145
21
-8.6132649
0
LINE
8
layer1
10
35.2499145
20
-8.6132649
11
35.2803382
21
-8.736819
0
LINE
8
layer1
10
35.2803382
20
-8.736819
11
35.3090027
21
-8.8786225
0
LINE
8
layer1
10
35.3090027
20
-8.8786225
11
35.3342512
21
-9.0375182
0
LINE
8
layer1
10
35.3342512
20
-9.0375182
11
35.3549192
21
-9.2153905
0
LINE
8
layer1
10
35.3549192
20
-9.2153905
11
35.369258
21
-9.4094925
0
LINE
8
layer1
10
35.369258
20
-9.4094925
11
35.3755103
21
-9.5970574
0
ARC
8
layer1
10
29.9999923
20
0.0000154
40
11
50
294.7459128
51
299.2540855
0
LINE
8
layer1
10
34.6045368
20
-9.989888
11
34.4564687
21
-9.8745819
0
LINE
8
layer1
10
34.4564687
20
-9.8745819
11
34.307865
21
-9.7488912
0
LINE
8
layer1
10
34.307865
20
-9.7488912
11
34.1761116
21
-9.6276198
0
LINE
8
layer1
10
34.1761116
20
-9.6276198
11
34.062403
21
-9.5137968
0
LINE
8
layer1
10
34.062403
20
-9.5137968
11
33.9645301
21
-9.4072567
0
LINE
8
layer1
10
33.9645301
20
-9.4072567
11
33.8824553
21
-9.3100201
0
LINE
8
layer1
10
33.8824553
20
-9.3100201
11
33.8150707
21
-9.2230779
0
LINE
8
layer1
10
33.8150707
20
-9.2230779
11
33.7612657
21
-9.1473165
0
LINE
8
layer1
10
33.7612657
20
-9.1473165
11
33.6895934
21
-9.0323895
0
LINE
8
layer1
10
33.6895934
20
-9.0323895
11
33.6697799
21
-8.9954861
0
LINE
8
layer1
10
33.6697799
20
-8.9954861
11
33.6307952
21
-8.8624623
0
LINE
8
layer1
10
33.6307952
20
-8.8624623
11
33.5804283
21
-8.7245675
0
LINE
8
layer1
10
33.5804283
20
-8.7245675
11
33.5256107
21
-8.6064038
0
LINE
8
layer1
10
33.5256107
20
-8.6064038
11
33.4679198
21
-8.5080684
0
LINE
8
layer1
10
33.4679198
20
-8.5080684
11
33.4089019
21
-8.4295636
0
LINE
8
layer1
10
33.4089019
20
-8.4295636
11
33.3793763
21
-8.3977189
0
LINE
8
layer1
10
33.3793763
20
-8.3977189
11
33.3501138
21
-8.3707937
0
LINE
8
layer1
10
33.3501138
20
-8.3707937
11
33.3212821
21
-8.3487545
0
LINE
8
layer1
10
33.3212821
20
-8.3487545
11
33.2930936
21
-8.3315744
0
LINE
8
layer1
10
33.2930936
20
-8.3315744
11
33.2657349
21
-8.3192137
0
LINE
8
layer1
10
33.2657349
20
-8.3192137
11
33.2393899
21
-8.3116233
0
LINE
8
layer1
10
33.2393899
20
-8.3116233
11
33.2142454
21
-8.3087634
0
LINE
8
layer1
10
33.2142454
20
-8.3087634
11
33.1904823
21
-8.3105753
0
LINE
8
layer1
10
33.1904823
20
-8.3105753
11
33.1683002
21
-8.3169941
0
LINE
8
layer1
10
33.1683002
20
-8.3169941
11
32.8614769
21
-8.4274855
0
LINE
8
layer1
10
32.8614769
20
-8.4274855
11
32.7502512
21
-8.464403
0
LINE
8
layer1
10
32.7502512
20
-8.464403
11
32.6385683
21
-8.4999129
0
LINE
8
layer1
10
32.6385683
20
-8.4999129
11
32.3253978
21
-8.5908697
0
LINE
8
layer1
10
32.3253978
20
-8.5908697
11
32.3036792
21
-8.5987151
0
LINE
8
layer1
10
32.3036792
20
-8.5987151
11
32.2833894
21
-8.6112168
0
LINE
8
layer1
10
32.2833894
20
-8.6112168
11
32.2647281
21
-8.6283101
0
LINE
8
layer1
10
32.2647281
20
-8.6283101
11
32.2478761
21
-8.6499361
0
LINE
8
layer1
10
32.2478761
20
-8.6499361
11
32.2330079
21
-8.6760171
0
LINE
8
layer1
10
32.2330079
20
-8.6760171
11
32.2203011
21
-8.7064849
0
LINE
8
layer1
10
32.2203011
20
-8.7064849
11
32.2099301
21
-8.7412618
0
LINE
8
layer1
10
32.2099301
20
-8.7412618
11
32.2020825
21
-8.7802449
0
LINE
8
layer1
10
32.2020825
20
-8.7802449
11
32.1969136
21
-8.8233625
0
LINE
8
layer1
10
32.1969136
20
-8.8233625
11
32.1953111
21
-8.921564
0
LINE
8
layer1
10
32.1953111
20
-8.921564
11
32.2064382
21
-9.0350289
0
LINE
8
layer1
10
32.2064382
20
-9.0350289
11
32.2315448
21
-9.1628463
0
LINE
8
layer1
10
32.2315448
20
-9.1628463
11
32.2718496
21
-9.3040106
0
LINE
8
layer1
10
32.2718496
20
-9.3040106
11
32.3184998
21
-9.4345436
0
LINE
8
layer1
10
32.3184998
20
-9.4345436
11
32.3241616
21
-9.4760452
0
LINE
8
layer1
10
32.3241616
20
-9.4760452
11
32.3337299
21
-9.611151
0
LINE
8
layer1
10
32.3337299
20
-9.611151
11
32.3347322
21
-9.704069
0
LINE
8
layer1
10
32.3347322
20
-9.704069
11
32.3313202
21
-9.8140145
0
LINE
8
layer1
10
32.3313202
20
-9.8140145
11
32.3220745
21
-9.9409229
0
LINE
8
layer1
10
32.3220745
20
-9.9409229
11
32.3055163
21
-10.0846439
0
LINE
8
layer1
10
32.3055163
20
-10.0846439
11
32.2804277
21
-10.2435648
0
LINE
8
layer1
10
32.2804277
20
-10.2435648
11
32.2451185
21
-10.4191182
0
LINE
8
layer1
10
32.2451185
20
-10.4191182
11
32.1987747
21
-10.6081511
0
LINE
8
layer1
10
32.1987747
20
-10.6081511
11
32.1467603
21
-10.788468
0
ARC
8
layer1
10
29.9999974
20
0.000017
40
11
50
276.7459132
51
281.2540859
0
LINE
8
layer1
10
31.2921296
20
-10.9238282
11
31.18694
21
-10.76841
0
LINE
8
layer1
10
31.18694
20
-10.76841
11
31.08445
21
-10.60295
0
LINE
8
layer1
10
31.08445
20
-10.60295
11
30.99662
21
-10.4469
0
LINE
8
layer1
10
30.99662
20
-10.4469
11
30.92365
21
-10.30351
0
LINE
8
layer1
10
30.92365
20
-10.30351
11
30.86349
21
-10.17194
0
LINE
8
layer1
10
30.86349
20
-10.17194
11
30.81548
21
-10.0541
0
LINE
8
layer1
10
30.81548
20
-10.0541
11
30.77826
21
-9.95059
0
LINE
8
layer1
10
30.77826
20
-9.95059
11
30.7505
21
-9.86191
0
LINE
8
layer1
10
30.7505
20
-9.86191
11
30.71785
21
-9.73046
0
LINE
8
layer1
10
30.71785
20
-9.73046
11
30.71041
21
-9.68924
0
LINE
8
layer1
10
30.71041
20
-9.68924
11
30.71444
21
-9.55068
0
LINE
8
layer1
10
30.71444
20
-9.55068
11
30.70915
21
-9.40397
0
LINE
8
layer1
10
30.70915
20
-9.40397
11
30.69353
21
-9.27465
0
LINE
8
layer1
10
30.69353
20
-9.27465
11
30.66905
21
-9.1633
0
LINE
8
layer1
10
30.66905
20
-9.1633
11
30.63718
21
-9.0704
0
LINE
8
layer1
10
30.63718
20
-9.0704
11
30.61894
21
-9.03099
0
LINE
8
layer1
10
30.61894
20
-9.03099
11
30.59943
21
-8.99634
0
LINE
8
layer1
10
30.59943
20
-8.99634
11
30.57882
21
-8.96647
0
LINE
8
layer1
10
30.57882
20
-8.96647
11
30.55732
21
-8.94142
0
LINE
8
layer1
10
30.55732
20
-8.94142
11
30.53512
21
-8.92121
0
LINE
8
layer1
10
30.53512
20
-8.92121
11
30.51241
21
-8.90585
0
LINE
8
layer1
10
30.51241
20
-8.90585
11
30.48938
21
-8.89536
0
LINE
8
layer1
10
30.48938
20
-8.89536
11
30.46622
21
-8.88974
0
LINE
8
layer1
10
30.46622
20
-8.88974
11
30.44314
21
-8.88899
0
LINE
8
layer1
10
30.44314
20
-8.88899
11
30.11719
21
-8.89926
0
LINE
8
layer1
10
30.11719
20
-8.89926
11
30
21
-8.9
0
LINE
8
layer1
10
30
20
-8.9
11
29.88281
21
-8.89926
0
LINE
8
layer1
10
29.88281
20
-8.89926
11
29.55686
21
-8.88899
0
LINE
8
layer1
10
29.55686
20
-8.88899
11
29.53378
21
-8.88974
0
LINE
8
layer1
10
29.53378
20
-8.88974
11
29.51062
21
-8.89536
0
LINE
8
layer1
10
29.51062
20
-8.89536
11
29.48759
21
-8.90585
0
LINE
8
layer1
10
29.48759
20
-8.90585
11
29.46488
21
-8.92121
0
LINE
8
layer1
10
29.46488
20
-8.92121
11
29.44268
21
-8.94142
0
LINE
8
layer1
10
29.44268
20
-8.94142
11
29.42118
21
-8.96647
0
LINE
8
layer1
10
29.42118
20
-8.96647
11
29.40057
21
-8.99634
0
LINE
8
layer1
10
29.40057
20
-8.99634
11
29.38106
21
-9.03099
0
LINE
8
layer1
10
29.38106
20
-9.03099
11
29.36282
21
-9.0704
0
LINE
8
layer1
10
29.36282
20
-9.0704
11
29.33095
21
-9.1633
0
LINE
8
layer1
10
29.33095
20
-9.1633
11
29.30647
21
-9.27465
0
LINE
8
layer1
10
29.30647
20
-9.27465
11
29.29085
21
-9.40397
0
LINE
8
layer1
10
29.29085
20
-9.40397
11
29.28556
21
-9.55068
0
LINE
8
layer1
10
29.28556
20
-9.55068
11
29.28959
21
-9.68924
0
LINE
8
layer1
10
29.28959
20
-9.68924
11
29.28215
21
-9.73046
0
LINE
8
layer1
10
29.28215
20
-9.73046
11
29.2495
21
-9.86191
0
LINE
8
layer1
10
29.2495
20
-9.86191
11
29.22174
21
-9.95059
0
LINE
8
layer1
10
29.22174
20
-9.95059
11
29.18452
21
-10.0541
0
LINE
8
layer1
10
29.18452
20
-10.0541
11
29.13651
21
-10.17194
0
LINE
8
layer1
10
29.13651
20
-10.17194
11
29.07635
21
-10.30351
0
LINE
8
layer1
10
29.07635
20
-10.30351
11
29.00338
21
-10.4469
0
LINE
8
layer1
10
29.00338
20
-10.4469
11
28.91555
21
-10.60295
0
LINE
8
layer1
10
28.91555
20
-10.60295
11
28.81306
21
-10.76841
0
LINE
8
layer1
10
28.81306
20
-10.76841
11
28.7078704
21
-10.9238282
0
ARC
8
layer1
10
30.0000026
20
0.000017
40
11
50
258.7459141
51
263.2540868
0
LINE
8
layer1
10
27.8532397
20
-10.788468
11
27.8012253
21
-10.6081511
0
LINE
8
layer1
10
27.8012253
20
-10.6081511
11
27.7548815
21
-10.4191182
0
LINE
8
layer1
10
27.7548815
20
-10.4191182
11
27.7195723
21
-10.2435648
0
LINE
8
layer1
10
27.7195723
20
-10.2435648
11
27.6944837
21
-10.0846439
0
LINE
8
layer1
10
27.6944837
20
-10.0846439
11
27.6779255
21
-9.9409229
0
LINE
8
layer1
10
27.6779255
20
-9.9409229
11
27.6686798
21
-9.8140145
0
LINE
8
layer1
10
27.6686798
20
-9.8140145
11
27.6652678
21
-9.704069
0
LINE
8
layer1
10
27.6652678
20
-9.704069
11
27.6662701
21
-9.611151
0
LINE
8
layer1
10
27.6662701
20
-9.611151
11
27.6758384
21
-9.4760452
0
LINE
8
layer1
10
27.6758384
20
-9.4760452
11
27.6815002
21
-9.4345436
0
LINE
8
layer1
10
27.6815002
20
-9.4345436
11
27.7281504
21
-9.3040106
0
LINE
8
layer1
10
27.7281504
20
-9.3040106
11
27.7684552
21
-9.1628463
0
LINE
8
layer1
10
27.7684552
20
-9.1628463
11
27.7935618
21
-9.0350289
0
LINE
8
layer1
10
27.7935618
20
-9.0350289
11
27.8046889
21
-8.921564
0
LINE
8
layer1
10
27.8046889
20
-8.921564
11
27.8030864
21
-8.8233625
0
LINE
8
layer1
10
27.8030864
20
-8.8233625
11
27.7979175
21
-8.7802449
0
LINE
8
layer1
10
27.7979175
20
-8.7802449
11
27.7900699
21
-8.7412618
0
LINE
8
layer1
10
27.7900699
20
-8.7412618
11
27.7796989
21
-8.7064849
0
LINE
8
layer1
10
27.7796989
20
-8.7064849
11
27.7669921
21
-8.6760171
0
LINE
8
layer1
10
27.7669921
20
-8.6760171
11
27.7521239
21
-8.6499361
0
LINE
8
layer1
10
27.7521239
20
-8.6499361
11
27.7352719
21
-8.6283101
0
LINE
8
layer1
10
27.7352719
20
-8.6283101
11
27.7166106
21
-8.6112168
0
LINE
8
layer1
10
27.7166106
20
-8.6112168
11
27.6963208
21
-8.5987151
0
LINE
8
layer1
10
27.6963208
20
-8.5987151
11
27.6746022
21
-8.5908697
0
LINE
8
layer1
10
27.6746022
20
-8.5908697
11
27.3614317
21
-8.4999129
0
LINE
8
layer1
10
27.3614317
20
-8.4999129
11
27.2497488
21
-8.464403
0
LINE
8
layer1
10
27.2497488
20
-8.464403
11
27.1385231
21
-8.4274855
0
LINE
8
layer1
10
27.1385231
20
-8.4274855
11
26.8316998
21
-8.3169941
0
LINE
8
layer1
10
26.8316998
20
-8.3169941
11
26.8095177
21
-8.3105753
0
LINE
8
layer1
10
26.8095177
20
-8.3105753
11
26.7857546
21
-8.3087634
0
LINE
8
layer1
10
26.7857546
20
-8.3087634
11
26.7606101
21
-8.3116233
0
LINE
8
layer1
10
26.7606101
20
-8.3116233
11
26.7342651
21
-8.3192137
0
LINE
8
layer1
10
26.7342651
20
-8.3192137
11
26.7069064
21
-8.3315744
0
LINE
8
layer1
10
26.7069064
20
-8.3315744
11
26.6787179
21
-8.3487545
0
LINE
8
layer1
10
26.6787179
20
-8.3487545
11
26.6498862
21
-8.3707937
0
LINE
8
layer1
10
26.6498862
20
-8.3707937
11
26.6206237
21
-8.3977189
0
LINE
8
layer1
10
26.6206237
20
-8.3977189
11
26.5910981
21
-8.4295636
0
LINE
8
layer1
10
26.5910981
20
-8.4295636
11
26.5320802
21
-8.5080684
0
LINE
8
layer1
10
26.5320802
20
-8.5080684
11
26.4743893
21
-8.6064038
0
LINE
8
layer1
10
26.4743893
20
-8.6064038
11
26.4195717
21
-8.7245675
0
LINE
8
layer1
10
26.4195717
20
-8.7245675
11
26.3692048
21
-8.8624623
0
LINE
8
layer1
10
26.3692048
20
-8.8624623
11
26.3302201
21
-8.9954861
0
LINE
8
layer1
10
26.3302201
20
-8.9954861
11
26.3104066
21
-9.0323895
0
LINE
8
layer1
10
26.3104066
20
-9.0323895
11
26.2387343
21
-9.1473165
0
LINE
8
layer1
10
26.2387343
20
-9.1473165
11
26.1849293
21
-9.2230779
0
LINE
8
layer1
10
26.1849293
20
-9.2230779
11
26.1175447
21
-9.3100201
0
LINE
8
layer1
10
26.1175447
20
-9.3100201
11
26.0354699
21
-9.4072567
0
LINE
8
layer1
10
26.0354699
20
-9.4072567
11
25.937597
21
-9.5137968
0
LINE
8
layer1
10
25.937597
20
-9.5137968
11
25.8238884
21
-9.6276198
0
LINE
8
layer1
10
25.8238884
20
-9.6276198
11
25.692135
21
-9.7488912
0
LINE
8
layer1
10
25.692135
20
-9.7488912
11
25.5435313
21
-9.8745819
0
LINE
8
layer1
10
25.5435313
20
-9.8745819
11
25.3954632
21
-9.989888
0
ARC
8
layer1
10
30.0000076
20
0.0000154
40
11
50
240.7459149
51
245.2540876
0
LINE
8
layer1
10
24.6244897
20
-9.5970574
11
24.630742
21
-9.4094925
0
LINE
8
layer1
10
24.630742
20
-9.4094925
11
24.6450808
21
-9.2153905
0
LINE
8
layer1
10
24.6450808
20
-9.2153905
11
24.6657488
21
-9.0375182
0
LINE
8
layer1
10
24.6657488
20
-9.0375182
11
24.6909973
21
-8.8786225
0
LINE
8
layer1
10
24.6909973
20
-8.8786225
11
24.7196618
21
-8.736819
0
LINE
8
layer1
10
24.7196618
20
-8.736819
11
24.7500855
21
-8.6132649
0
LINE
8
layer1
10
24.7500855
20
-8.6132649
11
24.7808155
21
-8.5076462
0
LINE
8
layer1
10
24.7808155
20
-8.5076462
11
24.810482
21
-8.4195856
0
LINE
8
layer1
10
24.810482
20
-8.4195856
11
24.861332
21
-8.2940491
0
LINE
8
layer1
10
24.861332
20
-8.2940491
11
24.8795414
21
-8.2563283
0
LINE
8
layer1
10
24.8795414
20
-8.2563283
11
24.9642452
21
-8.1465997
0
LINE
8
layer1
10
24.9642452
20
-8.1465997
11
25.0461995
21
-8.0247995
0
LINE
8
layer1
10
25.0461995
20
-8.0247995
11
25.1095751
21
-7.9109962
0
LINE
8
layer1
10
25.1095751
20
-7.9109962
11
25.1552202
21
-7.8065231
0
LINE
8
layer1
10
25.1552202
20
-7.8065231
11
25.1840421
21
-7.7126328
0
LINE
8
layer1
10
25.1840421
20
-7.7126328
11
25.1924502
21
-7.6700282
0
LINE
8
layer1
10
25.1924502
20
-7.6700282
11
25.1970331
21
-7.6305281
0
LINE
8
layer1
10
25.1970331
20
-7.6305281
11
25.1979164
21
-7.5942485
0
LINE
8
layer1
10
25.1979164
20
-7.5942485
11
25.1952465
21
-7.5613452
0
LINE
8
layer1
10
25.1952465
20
-7.5613452
11
25.1891655
21
-7.5319461
0
LINE
8
layer1
10
25.1891655
20
-7.5319461
11
25.1798211
21
-7.506171
0
LINE
8
layer1
10
25.1798211
20
-7.506171
11
25.1673553
21
-7.4841478
0
LINE
8
layer1
10
25.1673553
20
-7.4841478
11
25.1519218
21
-7.465988
0
LINE
8
layer1
10
25.1519218
20
-7.465988
11
25.1336906
21
-7.4518151
0
LINE
8
layer1
10
25.1336906
20
-7.4518151
11
24.8639549
21
-7.2685351
0
LINE
8
layer1
10
24.8639549
20
-7.2685351
11
24.7687113
21
-7.2002512
0
LINE
8
layer1
10
24.7687113
20
-7.2002512
11
24.6743375
21
-7.13077
0
LINE
8
layer1
10
24.6743375
20
-7.13077
11
24.416675
21
-6.9308728
0
LINE
8
layer1
10
24.416675
20
-6.9308728
11
24.397562
21
-6.9179135
0
LINE
8
layer1
10
24.397562
20
-6.9179135
11
24.3755218
21
-6.9088471
0
LINE
8
layer1
10
24.3755218
20
-6.9088471
11
24.3507243
21
-6.903797
0
LINE
8
layer1
10
24.3507243
20
-6.903797
11
24.3233232
21
-6.9028749
0
LINE
8
layer1
10
24.3233232
20
-6.9028749
11
24.2934838
21
-6.9061763
0
LINE
8
layer1
10
24.2934838
20
-6.9061763
11
24.261366
21
-6.9138047
0
LINE
8
layer1
10
24.261366
20
-6.9138047
11
24.227135
21
-6.9258558
0
LINE
8
layer1
10
24.227135
20
-6.9258558
11
24.1909843
21
-6.9424206
0
LINE
8
layer1
10
24.1909843
20
-6.9424206
11
24.1530632
21
-6.9635827
0
LINE
8
layer1
10
24.1530632
20
-6.9635827
11
24.0726746
21
-7.0200077
0
LINE
8
layer1
10
24.0726746
20
-7.0200077
11
23.98742
21
-7.0957028
0
LINE
8
layer1
10
23.98742
20
-7.0957028
11
23.8987707
21
-7.1911436
0
LINE
8
layer1
10
23.8987707
20
-7.1911436
11
23.808257
21
-7.3067251
0
LINE
8
layer1
10
23.808257
20
-7.3067251
11
23.7300739
21
-7.4211913
0
LINE
8
layer1
10
23.7300739
20
-7.4211913
11
23.6998263
21
-7.4501659
0
LINE
8
layer1
10
23.6998263
20
-7.4501659
11
23.5961475
21
-7.53732
0
LINE
8
layer1
10
23.5961475
20
-7.53732
11
23.5215644
21
-7.5927467
0
LINE
8
layer1
10
23.5215644
20
-7.5927467
11
23.4306111
21
-7.6546106
0
LINE
8
layer1
10
23.4306111
20
-7.6546106
11
23.3225056
21
-7.7217256
0
LINE
8
layer1
10
23.3225056
20
-7.7217256
11
23.1965002
21
-7.7928068
0
LINE
8
layer1
10
23.1965002
20
-7.7928068
11
23.0531837
21
-7.8659211
0
LINE
8
layer1
10
23.0531837
20
-7.8659211
11
22.8904039
21
-7.940543
0
LINE
8
layer1
10
22.8904039
20
-7.940543
11
22.7102328
21
-8.0141609
0
LINE
8
layer1
10
22.7102328
20
-8.0141609
11
22.5337801
21
-8.0780679
0
ARC
8
layer1
10
30.0000122
20
0.0000122
40
11
50
222.7459138
51
227.2540862
0
LINE
8
layer1
10
21.9219321
20
-7.4662199
11
21.9858391
21
-7.2897672
0
LINE
8
layer1
10
21.9858391
20
-7.2897672
11
22.059457
21
-7.1095961
0
LINE
8
layer1
10
22.059457
20
-7.1095961
11
22.1340789
21
-6.9468163
0
LINE
8
layer1
10
22.1340789
20
-6.9468163
11
22.2071932
21
-6.8034998
0
LINE
8
layer1
10
22.2071932
20
-6.8034998
11
22.2782744
21
-6.6774944
0
LINE
8
layer1
10
22.2782744
20
-6.6774944
11
22.3453894
21
-6.5693889
0
LINE
8
layer1
10
22.3453894
20
-6.5693889
11
22.4072533
21
-6.4784356
0
LINE
8
layer1
10
22.4072533
20
-6.4784356
11
22.46268
21
-6.4038525
0
LINE
8
layer1
10
22.46268
20
-6.4038525
11
22.5498341
21
-6.3001737
0
LINE
8
layer1
10
22.5498341
20
-6.3001737
11
22.5788087
21
-6.2699261
0
LINE
8
layer1
10
22.5788087
20
-6.2699261
11
22.6932749
21
-6.191743
0
LINE
8
layer1
10
22.6932749
20
-6.191743
11
22.8088564
21
-6.1012293
0
LINE
8
layer1
10
22.8088564
20
-6.1012293
11
22.9042972
21
-6.01258
0
LINE
8
layer1
10
22.9042972
20
-6.01258
11
22.9799923
21
-5.9273254
0
LINE
8
layer1
10
22.9799923
20
-5.9273254
11
23.0364173
21
-5.8469368
0
LINE
8
layer1
10
23.0364173
20
-5.8469368
11
23.0575794
21
-5.8090157
0
LINE
8
layer1
10
23.0575794
20
-5.8090157
11
23.0741442
21
-5.772865
0
LINE
8
layer1
10
23.0741442
20
-5.772865
11
23.0861953
21
-5.738634
0
LINE
8
layer1
10
23.0861953
20
-5.738634
11
23.0938237
21
-5.7065162
0
LINE
8
layer1
10
23.0938237
20
-5.7065162
11
23.0971251
21
-5.6766768
0
LINE
8
layer1
10
23.0971251
20
-5.6766768
11
23.096203
21
-5.6492757
0
LINE
8
layer1
10
23.096203
20
-5.6492757
11
23.0911529
21
-5.6244782
0
LINE
8
layer1
10
23.0911529
20
-5.6244782
11
23.0820865
21
-5.602438
0
LINE
8
layer1
10
23.0820865
20
-5.602438
11
23.0691272
21
-5.583325
0
LINE
8
layer1
10
23.0691272
20
-5.583325
11
22.86923
21
-5.3256625
0
LINE
8
layer1
10
22.86923
20
-5.3256625
11
22.7997488
21
-5.2312887
0
LINE
8
layer1
10
22.7997488
20
-5.2312887
11
22.7314649
21
-5.1360451
0
LINE
8
layer1
10
22.7314649
20
-5.1360451
11
22.5481849
21
-4.8663094
0
LINE
8
layer1
10
22.5481849
20
-4.8663094
11
22.534012
21
-4.8480782
0
LINE
8
layer1
10
22.534012
20
-4.8480782
11
22.5158522
21
-4.8326447
0
LINE
8
layer1
10
22.5158522
20
-4.8326447
11
22.493829
21
-4.8201789
0
LINE
8
layer1
10
22.493829
20
-4.8201789
11
22.4680539
21
-4.8108345
0
LINE
8
layer1
10
22.4680539
20
-4.8108345
11
22.4386548
21
-4.8047535
0
LINE
8
layer1
10
22.4386548
20
-4.8047535
11
22.4057515
21
-4.8020836
0
LINE
8
layer1
10
22.4057515
20
-4.8020836
11
22.3694719
21
-4.8029669
0
LINE
8
layer1
10
22.3694719
20
-4.8029669
11
22.3299718
21
-4.8075498
0
LINE
8
layer1
10
22.3299718
20
-4.8075498
11
22.2873672
21
-4.8159579
0
LINE
8
layer1
10
22.2873672
20
-4.8159579
11
22.1934769
21
-4.8447798
0
LINE
8
layer1
10
22.1934769
20
-4.8447798
11
22.0890038
21
-4.8904249
0
LINE
8
layer1
10
22.0890038
20
-4.8904249
11
21.9752005
21
-4.9538005
0
LINE
8
layer1
10
21.9752005
20
-4.9538005
11
21.8534003
21
-5.0357548
0
LINE
8
layer1
10
21.8534003
20
-5.0357548
11
21.7436717
21
-5.1204586
0
LINE
8
layer1
10
21.7436717
20
-5.1204586
11
21.7059509
21
-5.138668
0
LINE
8
layer1
10
21.7059509
20
-5.138668
11
21.5804144
21
-5.189518
0
LINE
8
layer1
10
21.5804144
20
-5.189518
11
21.4923538
21
-5.2191845
0
LINE
8
layer1
10
21.4923538
20
-5.2191845
11
21.3867351
21
-5.2499145
0
LINE
8
layer1
10
21.3867351
20
-5.2499145
11
21.263181
21
-5.2803382
0
LINE
8
layer1
10
21.263181
20
-5.2803382
11
21.1213775
21
-5.3090027
0
LINE
8
layer1
10
21.1213775
20
-5.3090027
11
20.9624818
21
-5.3342512
0
LINE
8
layer1
10
20.9624818
20
-5.3342512
11
20.7846095
21
-5.3549192
0
LINE
8
layer1
10
20.7846095
20
-5.3549192
11
20.5905075
21
-5.369258
0
LINE
8
layer1
10
20.5905075
20
-5.369258
11
20.4029426
21
-5.3755103
0
ARC
8
layer1
10
30.0000154
20
0.0000077
40
11
50
204.7459128
51
209.2540855
0
LINE
8
layer1
10
20.010112
20
-4.6045368
11
20.1254181
21
-4.4564687
0
ENDSEC
0
EOF